SplineFontDB: 3.2
FontName: SeriousShannsItalic
FullName: Serious Shanns Italic
FamilyName: Serious Shanns Italic
Weight: Book
Copyright: https://github.com/kaBeech/serious-shanns/blob/main/LICENSE
Version: 6.0.0
ItalicAngle: -12.7
UnderlinePosition: 0
UnderlineWidth: 0
Ascent: 800
Descent: 200
InvalidEm: 0
sfntRevision: 0x00003333
LayerCount: 2
Layer: 0 0 "Back" 1
Layer: 1 0 "Fore" 0
XUID: [1021 45 630387186 1984481]
StyleMap: 0x0040
FSType: 0
OS2Version: 3
OS2_WeightWidthSlopeOnly: 0
OS2_UseTypoMetrics: 0
CreationTime: 1532631502
ModificationTime: 315532800
PfmFamily: 49
TTFWeight: 400
TTFWidth: 5
LineGap: 0
VLineGap: 0
Panose: 0 0 0 0 0 0 0 0 0 0
OS2TypoAscent: 613
OS2TypoAOffset: 0
OS2TypoDescent: -188
OS2TypoDOffset: 0
OS2TypoLinegap: 98
OS2WinAscent: 778
OS2WinAOffset: 0
OS2WinDescent: 308
OS2WinDOffset: 0
HheadAscent: 796
HheadAOffset: 0
HheadDescent: -317
HheadDOffset: 0
OS2SubXSize: 317
OS2SubYSize: 293
OS2SubXOff: 0
OS2SubYOff: 37
OS2SupXSize: 317
OS2SupYSize: 293
OS2SupXOff: 0
OS2SupYOff: 171
OS2StrikeYSize: 0
OS2StrikeYPos: 132
OS2CapHeight: 576
OS2XHeight: 485
OS2Vendor: 'NONE'
OS2CodePages: 00000001.00000000
OS2UnicodeRanges: 00000001.00000000.00000000.00000000
MarkAttachClasses: 1
DEI: 91125
LangName: 1033 "" "" "Normal" "" "" "Version 0.2.0"
Encoding: UnicodeBmp
Compacted: 1
UnicodeInterp: none
NameList: AGL For New Fonts
DisplaySize: -48
AntiAlias: 1
FitToEm: 0
WinInfo: 0 16 9
BeginPrivate: 8
BlueValues 32 [-40 -6 497 511 708 718 765 769]
OtherBlues 11 [-298 -287]
BlueScale 9 0.0291667
BlueShift 1 2
StdHW 4 [86]
StdVW 4 [58]
StemSnapH 19 [82 85 86 89 90 94]
StemSnapV 7 [58 68]
EndPrivate
BeginChars: 65537 123

StartChar: .notdef
Encoding: 65536 -1 0
Width: 593
GlyphClass: 1
Flags: W
HStem: -268 54<42 340> 695 54<252 550>
LayerCount: 2
Fore
SplineSet
-20 -268 m 1
 214 749 l 1
 613 749 l 1
 378 -268 l 1
 -20 -268 l 1
42 -214 m 1
 340 -214 l 1
 550 695 l 1
 252 695 l 1
 42 -214 l 1
EndSplineSet
Validated: 1
EndChar

StartChar: exclam
Encoding: 33 33 12
Width: 593
GlyphClass: 2
Flags: HMW
HStem: -24.001 152.997
VStem: 152.997 151
LayerCount: 2
Fore
SplineSet
440 738 m 0
 438.666992188 732 427.330078125 688.166015625 405.997070312 606.499023438 c 0
 384.6640625 524.83203125 368.6640625 458.33203125 357.997070312 406.999023438 c 0
 347.330078125 356.999023438 340.330078125 327.166015625 336.997070312 317.499023438 c 0
 333.6640625 307.83203125 329.6640625 292.33203125 324.997070312 270.999023438 c 0
 320.330078125 256.33203125 312.330078125 244.83203125 300.997070312 236.499023438 c 0
 290.50390625 228.783203125 279.439453125 224.92578125 267.802734375 224.92578125 c 0
 266.87109375 224.92578125 265.935546875 224.950195312 264.997070312 225 c 0
 252.330078125 225 242.997070312 229.333007812 236.997070312 238 c 0
 233.8203125 242.587890625 232.232421875 248.297851562 232.232421875 255.127929688 c 0
 232.232421875 261.200195312 233.487304688 268.157226562 235.997070312 276.000976562 c 0
 239.330078125 286.000976562 242.830078125 295.66796875 246.497070312 305.000976562 c 0
 250.1640625 314.333984375 252.997070312 322.166992188 254.997070312 328.5 c 0
 256.997070312 334.833007812 260.830078125 349.833007812 266.497070312 373.5 c 0
 272.1640625 397.166992188 278.6640625 427.666992188 285.997070312 465 c 0
 290.6640625 491 296.331054688 518.5 302.998046875 547.5 c 0
 309.665039062 576.5 315.498046875 600.666992188 320.498046875 620 c 0
 325.498046875 639.333007812 331.165039062 661.333007812 337.498046875 686 c 0
 343.831054688 710.666992188 347.998046875 727 349.998046875 735 c 0
 354.665039062 753 362.33203125 766.666992188 372.999023438 776 c 0
 383.666015625 785.333007812 395.333007812 790 408 790 c 0
 408.953125 790.047851562 409.88671875 790.071289062 410.801757812 790.071289062 c 0
 422.696289062 790.071289062 431.428710938 786.047851562 437 778 c 0
 440.599609375 772.799804688 442.400390625 765.919921875 442.400390625 757.360351562 c 0
 442.400390625 751.653320312 441.599609375 745.200195312 440 738 c 0
211.99609375 -24.0009765625 m 0
 208.661132812 -24.3818359375 205.456054688 -24.572265625 202.379882812 -24.572265625 c 0
 183.93359375 -24.572265625 170.140625 -17.7177734375 160.998046875 -4.0048828125 c 0
 153.88671875 6.662109375 150.331054688 18.810546875 150.331054688 32.4404296875 c 0
 150.331054688 39.2548828125 151.219726562 46.439453125 152.997070312 53.9951171875 c 0
 157.6640625 73.9951171875 169.6640625 91.328125 188.997070312 105.995117188 c 0
 208.330078125 120.662109375 227.997070312 128.329101562 247.997070312 128.99609375 c 0
 248.975585938 129.025390625 249.94140625 129.041015625 250.896484375 129.041015625 c 0
 271.408203125 129.041015625 286.44140625 122.192382812 295.997070312 108.497070312 c 0
 302.815429688 98.724609375 306.224609375 87.3251953125 306.224609375 74.298828125 c 0
 306.224609375 68.2197265625 305.482421875 61.7861328125 303.997070312 54.998046875 c 0
 299.330078125 33.6650390625 288.663085938 15.83203125 271.99609375 1.4990234375 c 0
 255.329101562 -12.833984375 235.329101562 -21.333984375 211.99609375 -24.0009765625 c 0
EndSplineSet
Validated: 524289
EndChar

StartChar: quotedbl
Encoding: 34 34 13
Width: 593
GlyphClass: 2
Flags: HMW
VStem: 143.996 306.002
LayerCount: 2
Fore
SplineSet
301 738 m 0
 295 710.666992188 284.165039062 665.830078125 268.498046875 603.497070312 c 0
 252.831054688 541.1640625 240.998046875 498.331054688 232.998046875 474.998046875 c 0
 228.331054688 461.665039062 220.6640625 451.665039062 209.997070312 444.998046875 c 0
 200.299804688 438.9375 190.87890625 435.907226562 181.733398438 435.907226562 c 0
 180.818359375 435.907226562 179.90625 435.9375 178.997070312 435.998046875 c 0
 166.330078125 436.665039062 156.163085938 440.83203125 148.49609375 448.499023438 c 0
 143.73046875 453.264648438 141.34765625 459.25390625 141.34765625 466.466796875 c 0
 141.34765625 470.857421875 142.23046875 475.701171875 143.99609375 480.999023438 c 0
 153.99609375 514.999023438 164.829101562 558.666015625 176.49609375 611.999023438 c 0
 188.163085938 665.33203125 197.330078125 709.33203125 203.997070312 743.999023438 c 0
 205.330078125 751.999023438 208.330078125 758.83203125 212.997070312 764.499023438 c 0
 217.6640625 770.166015625 222.997070312 774.333007812 228.997070312 777 c 0
 234.997070312 779.666992188 240.997070312 781.5 246.997070312 782.5 c 0
 252.997070312 783.5 258.997070312 783.666992188 264.997070312 783 c 0
 270.330078125 783 275.330078125 782.333007812 279.997070312 781 c 0
 284.6640625 779.666992188 288.831054688 777.5 292.498046875 774.5 c 0
 296.165039062 771.5 298.83203125 766.833007812 300.499023438 760.5 c 0
 302.166015625 754.166992188 302.333007812 746.666992188 301 738 c 0
449.998046875 737.99609375 m 0
 444.665039062 710.663085938 434.166992188 665.826171875 418.5 603.493164062 c 0
 402.833007812 541.16015625 390.666015625 498.327148438 381.999023438 474.994140625 c 0
 377.33203125 461.661132812 369.665039062 451.661132812 358.998046875 444.994140625 c 0
 349.30078125 438.93359375 339.879882812 435.903320312 330.734375 435.903320312 c 0
 329.819335938 435.903320312 328.907226562 435.93359375 327.998046875 435.994140625 c 0
 315.998046875 436.661132812 305.998046875 440.828125 297.998046875 448.495117188 c 0
 293.198242188 453.095703125 290.797851562 458.834960938 290.797851562 465.71484375 c 0
 290.797851562 470.301757812 291.865234375 475.395507812 293.998046875 480.995117188 c 0
 303.998046875 514.995117188 314.665039062 558.662109375 325.998046875 611.995117188 c 0
 337.331054688 665.328125 346.331054688 709.328125 352.998046875 743.995117188 c 0
 354.331054688 751.995117188 357.331054688 758.828125 361.998046875 764.495117188 c 0
 366.665039062 770.162109375 372.165039062 774.329101562 378.498046875 776.99609375 c 0
 384.831054688 779.663085938 390.831054688 781.49609375 396.498046875 782.49609375 c 0
 402.165039062 783.49609375 407.998046875 783.663085938 413.998046875 782.99609375 c 0
 419.998046875 782.99609375 425.165039062 782.329101562 429.498046875 780.99609375 c 0
 433.831054688 779.663085938 437.998046875 777.49609375 441.998046875 774.49609375 c 0
 445.998046875 771.49609375 448.831054688 766.829101562 450.498046875 760.49609375 c 0
 452.165039062 754.163085938 451.998046875 746.663085938 449.998046875 737.99609375 c 0
EndSplineSet
Validated: 524289
EndChar

StartChar: numbersign
Encoding: 35 35 14
Width: 593
GlyphClass: 2
Flags: HMW
HStem: 192 82<416.999 436 384 454.999> 445 84<283.993 423.998 317.998 390.993 317.998 516.999 317.998 482.999>
LayerCount: 2
Fore
SplineSet
115 42 m 0
 107 28 95.326171875 16.5 79.9931640625 7.5 c 0
 69.3779296875 1.26953125 59.880859375 -1.845703125 51.501953125 -1.845703125 c 0
 47.7783203125 -1.845703125 44.275390625 -1.23046875 40.9931640625 0 c 0
 30.326171875 2.6669921875 23.826171875 11.1669921875 21.4931640625 25.5 c 0
 20.998046875 28.5400390625 20.7509765625 31.6474609375 20.7509765625 34.822265625 c 0
 20.7509765625 46.6162109375 24.1650390625 59.341796875 30.994140625 72.9990234375 c 0
 40.3271484375 90.9990234375 57.994140625 129.666015625 83.994140625 188.999023438 c 1
 55.994140625 188.999023438 l 2
 40.6611328125 188.999023438 29.6611328125 192.33203125 22.994140625 198.999023438 c 0
 16.3271484375 205.666015625 14.3271484375 214.666015625 16.994140625 225.999023438 c 0
 18.994140625 237.999023438 24.6611328125 247.999023438 33.994140625 255.999023438 c 0
 43.3271484375 263.999023438 55.994140625 268.666015625 71.994140625 269.999023438 c 0
 76.6611328125 269.999023438 84.1611328125 270.166015625 94.494140625 270.499023438 c 0
 104.827148438 270.83203125 112.66015625 270.999023438 117.993164062 270.999023438 c 1
 189.993164062 443.999023438 l 1
 184.66015625 443.999023438 177.66015625 443.83203125 168.993164062 443.499023438 c 0
 160.326171875 443.166015625 154.326171875 442.999023438 150.993164062 442.999023438 c 0
 149.765625 442.9453125 148.567382812 442.918945312 147.3984375 442.918945312 c 0
 133.955078125 442.918945312 124.3203125 446.4453125 118.494140625 453.499023438 c 0
 112.161132812 461.166015625 110.328125 470.666015625 112.995117188 481.999023438 c 0
 114.995117188 493.999023438 120.828125 504.166015625 130.495117188 512.499023438 c 0
 140.162109375 520.83203125 153.329101562 525.33203125 169.99609375 525.999023438 c 0
 181.99609375 526.666015625 199.99609375 526.999023438 223.99609375 526.999023438 c 1
 265.329101562 627.666015625 286.329101562 679.666015625 286.99609375 682.999023438 c 0
 295.663085938 699.666015625 305.99609375 711.333007812 317.99609375 718 c 0
 325.99609375 722.4453125 333.700195312 724.666992188 341.108398438 724.666992188 c 0
 344.811523438 724.666992188 348.440429688 724.112304688 351.99609375 723.000976562 c 0
 364.663085938 720.333984375 373.330078125 713.666992188 377.997070312 703 c 0
 379.8125 698.8515625 380.719726562 694.19921875 380.719726562 689.041992188 c 0
 380.719726562 680.939453125 378.479492188 671.591796875 373.998046875 661 c 2
 317.998046875 529 l 1
 423.998046875 529 l 1
 481.998046875 675 l 2
 490.665039062 692.333007812 500.998046875 704.333007812 512.998046875 711 c 0
 520.998046875 715.4453125 528.850585938 717.666992188 536.5546875 717.666992188 c 0
 540.40625 717.666992188 544.220703125 717.112304688 547.998046875 716.000976562 c 0
 561.331054688 713.333984375 570.331054688 706.666992188 574.998046875 696 c 0
 576.631835938 692.266601562 577.448242188 688.125 577.448242188 683.57421875 c 0
 577.448242188 675.124023438 574.631835938 665.266601562 568.998046875 654 c 0
 555.665039062 626 538.665039062 585 517.998046875 531 c 1
 527.998046875 531 l 2
 542.665039062 531 554.165039062 526.5 562.498046875 517.5 c 0
 569.21875 510.2421875 572.579101562 502.658203125 572.579101562 494.75 c 0
 572.579101562 492.852539062 572.384765625 490.935546875 571.998046875 489 c 0
 569.331054688 477 563.331054688 466.833007812 553.998046875 458.5 c 0
 544.665039062 450.166992188 532.33203125 445.666992188 516.999023438 445 c 2
 482.999023438 445 l 1
 416.999023438 274 l 1
 454.999023438 274 l 2
 469.666015625 274 478.833007812 270.5 482.5 263.5 c 0
 486.166992188 256.5 487 247.333007812 485 236 c 0
 478.333007812 206.666992188 462 192 436 192 c 2
 384 192 l 1
 354 116 333 64.6669921875 321 38 c 0
 312.333007812 24 301 13.1669921875 287 5.5 c 0
 277.799804688 0.4619140625 269.17578125 -2.0576171875 261.127929688 -2.0576171875 c 0
 256.928710938 -2.0576171875 252.885742188 -1.37109375 249 0 c 0
 238.333007812 2.6669921875 231.5 10.5 228.5 23.5 c 0
 227.728515625 26.8427734375 227.342773438 30.3076171875 227.342773438 33.892578125 c 0
 227.342773438 44.25 230.561523438 55.619140625 237 68 c 0
 249.666992188 94.6669921875 267 135.666992188 289 191 c 1
 276.333007812 191 257.5 190.833007812 232.5 190.5 c 0
 207.5 190.166992188 189.333007812 190 178 190 c 1
 148 118 127 68.6669921875 115 42 c 0
283.993164062 445 m 1
 212.994140625 273.999023438 l 1
 238.327148438 274.666015625 274.66015625 274.999023438 321.993164062 274.999023438 c 1
 344.66015625 329.666015625 367.66015625 386.333007812 390.993164062 445 c 1
 283.993164062 445 l 1
EndSplineSet
Validated: 524289
EndChar

StartChar: dollar
Encoding: 36 36 15
Width: 593
GlyphClass: 2
Flags: HMW
HStem: -28.9932 84.9932<166.001 203 177.001 203> 642.998 79.002
VStem: 162.001 82.999 421.502 93.998
LayerCount: 2
Fore
SplineSet
245 -99 m 0
 240.333007812 -113.666992188 232.333984375 -124.993164062 221.000976562 -132.993164062 c 0
 209.66796875 -140.993164062 197.66796875 -144.993164062 185.000976562 -144.993164062 c 0
 173.66796875 -144.993164062 166.000976562 -140.493164062 162.000976562 -131.493164062 c 0
 160.401367188 -127.893554688 159.600585938 -123.6796875 159.600585938 -118.853515625 c 0
 159.600585938 -111.61328125 161.401367188 -102.993164062 165.000976562 -92.9931640625 c 0
 169.66796875 -76.9931640625 175.000976562 -55.66015625 181.000976562 -28.9931640625 c 1
 177.000976562 -28.9931640625 l 2
 155.000976562 -28.9931640625 135.000976562 -25.9931640625 117.000976562 -19.9931640625 c 0
 99.0009765625 -13.9931640625 84.0009765625 -5.9931640625 72.0009765625 4.0068359375 c 0
 60.0009765625 14.0068359375 50.333984375 24.673828125 43.0009765625 36.0068359375 c 0
 35.66796875 47.33984375 30.0009765625 59.6728515625 26.0009765625 73.005859375 c 0
 24.71875 79.9287109375 24.078125 86.3583984375 24.078125 92.2958984375 c 0
 24.078125 101.794921875 25.71875 110.03125 29.0009765625 117.005859375 c 0
 34.333984375 128.338867188 42.6669921875 136.671875 54 142.004882812 c 0
 62 145.337890625 68.5 147.670898438 73.5 149.00390625 c 0
 78.5 150.336914062 83.5 150.669921875 88.5 150.002929688 c 0
 93.5 149.3359375 98 146.668945312 102 142.001953125 c 0
 106 137.334960938 110 130.66796875 114 122.000976562 c 0
 122 101.333984375 132.5 85.1669921875 145.5 73.5 c 0
 158.5 61.8330078125 177 56 201 56 c 2
 203 56 l 1
 230.333007812 167.333007812 253.666015625 266.666015625 272.999023438 353.999023438 c 1
 269.666015625 353.999023438 264.499023438 354.666015625 257.499023438 355.999023438 c 0
 250.499023438 357.33203125 244.999023438 357.999023438 240.999023438 357.999023438 c 0
 219.666015625 360.666015625 200.999023438 366.999023438 184.999023438 376.999023438 c 0
 168.999023438 386.999023438 156.999023438 399.166015625 148.999023438 413.499023438 c 0
 140.999023438 427.83203125 135.666015625 442.83203125 132.999023438 458.499023438 c 0
 131.932617188 464.765625 131.3984375 471.05859375 131.3984375 477.37890625 c 0
 131.3984375 486.859375 132.598632812 496.399414062 134.999023438 505.999023438 c 0
 140.33203125 529.999023438 148.999023438 552.999023438 160.999023438 574.999023438 c 0
 172.999023438 596.999023438 188.166015625 617.499023438 206.499023438 636.499023438 c 0
 224.83203125 655.499023438 246.999023438 671.83203125 272.999023438 685.499023438 c 0
 298.999023438 699.166015625 326.999023438 708.666015625 356.999023438 713.999023438 c 1
 361.666015625 729.999023438 366.999023438 749.33203125 372.999023438 771.999023438 c 0
 382.33203125 808.666015625 398.999023438 826.999023438 422.999023438 826.999023438 c 0
 423.517578125 827.01171875 424.030273438 827.017578125 424.537109375 827.017578125 c 0
 445.2890625 827.017578125 455.666015625 816.641601562 455.666015625 795.888671875 c 0
 455.666015625 789.814453125 454.776367188 782.8515625 452.999023438 775 c 2
 439.999023438 722 l 1
 453.999023438 721.333007812 472.499023438 718 495.499023438 712 c 0
 518.499023438 706 535.33203125 700.333007812 545.999023438 695 c 0
 556.666015625 690.333007812 563.499023438 683 566.499023438 673 c 0
 567.672851562 669.086914062 568.259765625 665.071289062 568.259765625 660.954101562 c 0
 568.259765625 654.549804688 566.83984375 647.8984375 563.999023438 641 c 0
 561.33203125 633 557.499023438 626.833007812 552.499023438 622.5 c 0
 547.499023438 618.166992188 541.999023438 615.5 535.999023438 614.5 c 0
 529.999023438 613.5 524.33203125 613.333007812 518.999023438 614 c 0
 513.666015625 614.666992188 508.666015625 615.666992188 503.999023438 617 c 0
 498.666015625 618.333007812 492.166015625 621.166015625 484.499023438 625.499023438 c 0
 476.83203125 629.83203125 467.999023438 633.665039062 457.999023438 636.998046875 c 0
 447.999023438 640.331054688 435.666015625 642.331054688 420.999023438 642.998046875 c 1
 407.666015625 589.665039062 390.333007812 518.998046875 369 430.998046875 c 1
 396.333007812 426.998046875 420 419.831054688 440 409.498046875 c 0
 460 399.165039062 475.166992188 387.33203125 485.5 373.999023438 c 0
 495.833007812 360.666015625 503.5 345.333007812 508.5 328 c 0
 513.1875 311.749023438 515.53125 295.791992188 515.53125 280.126953125 c 0
 515.53125 266.818359375 513.955078125 247.967773438 508 225 c 0
 500.666992188 194.333007812 489.166992188 165.333007812 473.5 138 c 0
 457.833007812 110.666992188 439 87 417 67 c 0
 395 47 370.833007812 29.6669921875 344.5 15 c 0
 318.166992188 0.3330078125 290.666992188 -10.6669921875 262 -18 c 1
 252.666992188 -58 247 -85 245 -99 c 0
227.000976562 531.006835938 m 0
 225.66796875 524.911132812 225.000976562 519.034179688 225.000976562 513.374023438 c 0
 225.000976562 499.224609375 229.16796875 486.435546875 237.500976562 475.006835938 c 0
 249.16796875 459.006835938 267.66796875 447.673828125 293.000976562 441.006835938 c 1
 304.333984375 487.006835938 319.666992188 551.006835938 339 633.006835938 c 1
 310.333007812 624.33984375 285.833007812 611.33984375 265.5 594.006835938 c 0
 245.166992188 576.673828125 232.333984375 555.673828125 227.000976562 531.006835938 c 0
418.000976562 208.006835938 m 0
 420.372070312 219.267578125 421.557617188 229.73828125 421.557617188 239.418945312 c 0
 421.557617188 252.064453125 419.291015625 263.998046875 415.001953125 276.508789062 c 0
 411.001953125 288.17578125 403.168945312 299.008789062 391.501953125 309.008789062 c 0
 379.834960938 319.008789062 364.66796875 327.67578125 346.000976562 335.008789062 c 1
 338.66796875 305.67578125 328.000976562 261.508789062 314.000976562 202.508789062 c 0
 300.000976562 143.508789062 289.66796875 100.67578125 283.000976562 74.0087890625 c 1
 316.333984375 87.341796875 345.500976562 105.674804688 370.500976562 129.0078125 c 0
 395.500976562 152.340820312 411.333984375 178.673828125 418.000976562 208.006835938 c 0
EndSplineSet
Validated: 524289
EndChar

StartChar: percent
Encoding: 37 37 16
Width: 593
GlyphClass: 2
Flags: HMW
HStem: -28.001 76 170.999 74<400.667 413.667> 432 75<189 234.667> 632 73<258.333 262.333>
LayerCount: 2
Fore
SplineSet
200 432 m 0
 178 432 160.000976562 438.5 146.000976562 451.5 c 0
 132.000976562 464.5 123.16796875 480.833007812 119.500976562 500.5 c 0
 118.006835938 508.513671875 117.259765625 516.775390625 117.259765625 525.286132812 c 0
 117.259765625 537.665039062 118.83984375 550.569335938 122 564.000976562 c 0
 131.333007812 605.333984375 149.833007812 639.166992188 177.5 665.5 c 0
 205.166992188 691.833007812 238.666992188 705 278 705 c 0
 293.333007812 705 307 702.166992188 319 696.5 c 0
 331 690.833007812 341 682.333007812 349 671 c 0
 357 659.666992188 361.5 644.166992188 362.5 624.5 c 0
 362.620117188 622.139648438 362.6796875 619.734375 362.6796875 617.283203125 c 0
 362.6796875 599.307617188 359.453125 578.879882812 353 556 c 0
 341.666992188 515.333007812 323.666992188 484.5 299 463.5 c 0
 274.333007812 442.5 241.333007812 432 200 432 c 0
20.0009765625 19 m 0
 39.333984375 47.6669921875 84 107.833984375 154 199.500976562 c 0
 224 291.16796875 294.166992188 383.66796875 364.5 477.000976562 c 0
 434.833007812 570.333984375 483 637.000976562 509 677.000976562 c 0
 519 689.000976562 530.333007812 696.500976562 543 699.500976562 c 0
 546.931640625 700.431640625 550.702148438 700.897460938 554.3125 700.897460938 c 0
 562.333984375 700.897460938 569.563476562 698.598632812 576 694.000976562 c 0
 586 688.66796875 590.5 680.834960938 589.5 670.501953125 c 0
 588.5 660.168945312 582.333007812 647.668945312 571 633.001953125 c 0
 538.333007812 592.334960938 459.5 488.66796875 334.5 322.000976562 c 0
 209.5 155.333984375 126 42.6669921875 84 -16 c 0
 66.76953125 -39.630859375 50.6298828125 -51.4462890625 35.580078125 -51.4462890625 c 0
 30.25 -51.4462890625 25.0576171875 -49.9638671875 20.0009765625 -47 c 0
 9.0009765625 -40.666015625 3.5009765625 -32 3.5009765625 -21 c 0
 3.5009765625 -10 9.0009765625 3.333984375 20.0009765625 19 c 0
227 507 m 0
 242.333007812 507 255.333984375 512.33203125 266.000976562 522.999023438 c 0
 276.66796875 533.666015625 284.66796875 547.999023438 290.000976562 565.999023438 c 0
 292.842773438 576.736328125 294.264648438 586.126953125 294.264648438 594.171875 c 0
 294.264648438 603.109375 292.509765625 610.385742188 289.000976562 616 c 0
 282.333984375 626.666992188 270.666992188 632 254 632 c 0
 239.333007812 632 226.5 626.166992188 215.5 614.5 c 0
 204.5 602.833007812 196 587 190 567 c 0
 187.666015625 557.666015625 186.5 549.416015625 186.5 542.25 c 0
 186.5 535.083007812 187.666015625 529 190 524 c 0
 194.666992188 514 207 508.333007812 227 507 c 0
343.000976562 -28.0009765625 m 0
 321.000976562 -28.0009765625 303 -21.5009765625 289 -8.5009765625 c 0
 275 4.4990234375 266.166992188 20.83203125 262.5 40.4990234375 c 0
 261.005859375 48.5126953125 260.258789062 56.7744140625 260.258789062 65.28515625 c 0
 260.258789062 77.6640625 261.838867188 90.568359375 264.999023438 104 c 0
 274.33203125 145.333007812 292.83203125 179.166015625 320.499023438 205.499023438 c 0
 348.166015625 231.83203125 381.333007812 244.999023438 420 244.999023438 c 0
 435.333007812 244.999023438 449.166015625 242.33203125 461.499023438 236.999023438 c 0
 473.83203125 231.666015625 483.999023438 223.166015625 491.999023438 211.499023438 c 0
 499.999023438 199.83203125 504.499023438 184.165039062 505.499023438 164.498046875 c 0
 505.610351562 162.3125 505.666015625 160.088867188 505.666015625 157.825195312 c 0
 505.666015625 139.717773438 502.110351562 119.109375 494.999023438 95.998046875 c 0
 483.666015625 55.3310546875 465.833007812 24.3310546875 441.5 2.998046875 c 0
 417.904296875 -17.6884765625 386.317382812 -28.03125 346.737304688 -28.03125 c 0
 345.499023438 -28.03125 344.25390625 -28.021484375 343.000976562 -28.0009765625 c 0
370 47.9990234375 m 0
 370.838867188 47.9609375 371.669921875 47.94140625 372.49609375 47.94140625 c 0
 386.108398438 47.94140625 397.943359375 53.1279296875 408.000976562 63.4990234375 c 0
 418.66796875 74.4990234375 426.66796875 88.666015625 432.000976562 105.999023438 c 0
 434.752929688 116.522460938 436.12890625 125.768554688 436.12890625 133.736328125 c 0
 436.12890625 158.578125 422.752929688 170.999023438 396.000976562 170.999023438 c 0
 381.333984375 170.999023438 368.666992188 165.166015625 358 153.499023438 c 0
 347.333007812 141.83203125 339 126.33203125 333 106.999023438 c 0
 330.747070312 98.3095703125 329.620117188 90.513671875 329.620117188 83.6103515625 c 0
 329.620117188 76.2138671875 330.9140625 69.84375 333.5 64.4990234375 c 0
 338.5 54.166015625 350.666992188 48.666015625 370 47.9990234375 c 0
EndSplineSet
Validated: 524289
EndChar

StartChar: ampersand
Encoding: 38 38 17
Width: 593
GlyphClass: 2
Flags: HMW
HStem: -41.998 93.998<166.668 210.332> 645.001 79<391.334 391.667>
VStem: 384.003 89.9971 471 83.5<297 297>
LayerCount: 2
Fore
SplineSet
449 -35 m 0xe0
 442.482421875 -38.5849609375 436.083984375 -40.376953125 429.805664062 -40.376953125 c 0
 423.241210938 -40.376953125 416.806640625 -38.4169921875 410.501953125 -34.498046875 c 0
 398.168945312 -26.8310546875 389.3359375 -13.6640625 384.002929688 5.0029296875 c 0xe0
 383.3359375 8.3359375 381.8359375 18.3359375 379.502929688 35.0029296875 c 0
 377.169921875 51.669921875 375.002929688 63.669921875 373.002929688 71.0029296875 c 1
 371.002929688 68.3359375 366.002929688 62.6689453125 358.002929688 54.001953125 c 0
 350.002929688 45.3349609375 344.002929688 39.001953125 340.002929688 35.001953125 c 0
 336.002929688 31.001953125 329.502929688 25.001953125 320.502929688 17.001953125 c 0
 311.502929688 9.001953125 304.002929688 2.8349609375 298.002929688 -1.498046875 c 0
 292.002929688 -5.8310546875 284.169921875 -10.998046875 274.502929688 -16.998046875 c 0
 264.8359375 -22.998046875 255.668945312 -27.498046875 247.001953125 -30.498046875 c 0
 238.334960938 -33.498046875 228.501953125 -36.1650390625 217.501953125 -38.498046875 c 0
 206.501953125 -40.8310546875 195.334960938 -41.998046875 184.001953125 -41.998046875 c 0
 149.334960938 -41.998046875 119.66796875 -32.3310546875 95.0009765625 -12.998046875 c 0
 70.333984375 6.3349609375 53.6669921875 31.66796875 45 63.0009765625 c 0
 40.4931640625 79.2939453125 38.240234375 96.30859375 38.240234375 114.04296875 c 0
 38.240234375 130.415039062 40.16015625 147.400390625 44 165.000976562 c 0
 72.6669921875 291.000976562 141 376.66796875 249 422.000976562 c 1
 245.666992188 432.000976562 241.5 444.000976562 236.5 458.000976562 c 0
 231.5 472.000976562 228 481.833984375 226 487.500976562 c 0
 224 493.16796875 221.833007812 500.500976562 219.5 509.500976562 c 0
 217.166992188 518.500976562 216 526.333984375 216 533.000976562 c 0
 216 539.66796875 216.5 547.834960938 217.5 557.501953125 c 0
 218.5 567.168945312 220.333007812 577.668945312 223 589.001953125 c 0
 225.666992188 601.001953125 229.833984375 612.834960938 235.500976562 624.501953125 c 0
 241.16796875 636.168945312 249.000976562 648.168945312 259.000976562 660.501953125 c 0
 269.000976562 672.834960938 280.500976562 683.66796875 293.500976562 693.000976562 c 0
 306.500976562 702.333984375 322.500976562 709.833984375 341.500976562 715.500976562 c 0
 360.500976562 721.16796875 380.66796875 724.000976562 402.000976562 724.000976562 c 0
 420.000976562 724.000976562 437.000976562 721.000976562 453.000976562 715.000976562 c 0
 469.000976562 709.000976562 482.833984375 700.16796875 494.500976562 688.500976562 c 0
 506.16796875 676.833984375 514.000976562 661.500976562 518.000976562 642.500976562 c 0
 519.71484375 634.358398438 520.572265625 625.817382812 520.572265625 616.87890625 c 0
 520.572265625 604.9609375 519.048828125 592.333984375 516.000976562 579.000976562 c 0
 511.333984375 557.66796875 504.166992188 537.834960938 494.5 519.501953125 c 0
 484.833007812 501.168945312 474.833007812 485.8359375 464.5 473.502929688 c 0
 454.166992188 461.169921875 441.666992188 449.336914062 427 438.00390625 c 0
 412.333007812 426.670898438 399.333007812 417.670898438 388 411.00390625 c 0
 376.666992188 404.336914062 363.666992188 397.669921875 349 391.002929688 c 1
 355.666992188 370.3359375 367.666992188 339.668945312 385 299.001953125 c 0
 402.333007812 258.334960938 413.333007812 231.334960938 418 218.001953125 c 1
 424 227.334960938 431 238.16796875 439 250.500976562 c 0
 447 262.833984375 453.666992188 272.833984375 459 280.500976562 c 0
 464.333007812 288.16796875 468.333007812 293.66796875 471 297.000976562 c 0
 485.666992188 314.333984375 498.5 325.166992188 509.5 329.5 c 0
 513.833007812 331.20703125 518.139648438 332.060546875 522.420898438 332.060546875 c 0
 529.008789062 332.060546875 535.53515625 330.040039062 542 325.999023438 c 0
 550.4296875 321.181640625 554.645507812 312.694335938 554.645507812 300.534179688 c 0
 554.645507812 288.635742188 550.828125 271.743164062 535 248 c 0
 530.333007812 242 518 228.666992188 498 208 c 0
 478 187.333007812 460.666992188 168.333007812 446 151 c 1
 450 138.333007812 455.666992188 120.166015625 463 96.4990234375 c 0
 470.333007812 72.83203125 474.333007812 58.9990234375 475 54.9990234375 c 0
 477.509765625 47.4697265625 478.764648438 39.5712890625 478.764648438 31.302734375 c 0
 478.764648438 22.001953125 477.176757812 12.234375 474 1.9990234375 c 0
 468 -17.333984375 459.666992188 -29.6669921875 449 -35 c 0xe0
307.000976562 572.000976562 m 0
 305 563.665039062 304 554.913085938 304 545.744140625 c 0
 304 536.579101562 305 526.999023438 306.999023438 517.000976562 c 0
 310.999023438 497.000976562 317.33203125 479.333984375 325.999023438 464.000976562 c 1
 340.666015625 468.66796875 353.333007812 473.500976562 364 478.500976562 c 0
 374.666992188 483.500976562 385.166992188 490.000976562 395.5 498.000976562 c 0
 405.833007812 506.000976562 414.333007812 515.833984375 421 527.500976562 c 0
 427.666992188 539.16796875 432.666992188 553.000976562 436 569.000976562 c 0
 438.077148438 577.5390625 439.115234375 585.37890625 439.115234375 592.51953125 c 0
 439.115234375 606.006835938 435.41015625 617.000976562 428 625.500976562 c 0
 416.666992188 638.500976562 401.333984375 645.000976562 382.000976562 645.000976562 c 0
 343.333984375 645.000976562 318.333984375 620.66796875 307.000976562 572.000976562 c 0
138.999023438 174.000976562 m 0
 135.8515625 160.361328125 134.27734375 147.59765625 134.27734375 135.711914062 c 0
 134.27734375 117.389648438 138.017578125 101.15234375 145.498046875 87 c 0
 157.831054688 63.6669921875 177.998046875 52 205.998046875 52 c 0
 214.665039062 52 223.33203125 53 231.999023438 55 c 0
 240.666015625 57 248.333007812 59 255 61 c 0
 261.666992188 63 268.666992188 66.3330078125 276 71 c 0
 283.333007812 75.6669921875 289.166015625 79.5 293.499023438 82.5 c 0
 297.83203125 85.5 303.33203125 90.1669921875 309.999023438 96.5 c 0
 316.666015625 102.833007812 321.333007812 107.333007812 324 110 c 0
 326.666992188 112.666992188 331 117.5 337 124.5 c 0
 343 131.5 346.666992188 135.666992188 348 137 c 0
 343.333007812 163 338.666015625 183.333007812 333.999023438 198 c 0
 329.999023438 213.333007812 320.83203125 238.333007812 306.499023438 273 c 0
 292.166015625 307.666992188 281.999023438 333.333984375 275.999023438 350.000976562 c 1
 255.33203125 341.333984375 236.999023438 330.500976562 220.999023438 317.500976562 c 0
 204.999023438 304.500976562 191.666015625 290.16796875 180.999023438 274.500976562 c 0
 170.33203125 258.833984375 161.83203125 243.000976562 155.499023438 227.000976562 c 0
 149.166015625 211.000976562 143.666015625 193.333984375 138.999023438 174.000976562 c 0
EndSplineSet
Validated: 524289
EndChar

StartChar: quotesingle
Encoding: 39 39 18
Width: 593
GlyphClass: 2
Flags: HMW
HStem: 446.001 325.499
VStem: 221 152
LayerCount: 2
Fore
SplineSet
373 728 m 0
 367.666992188 701.333007812 358.001953125 660.16796875 344.001953125 604.500976562 c 0
 330.001953125 548.833984375 318.668945312 509.333984375 310.001953125 486.000976562 c 0
 305.334960938 472.000976562 297.66796875 461.66796875 287.000976562 455.000976562 c 0
 277.303710938 448.940429688 267.8828125 445.91015625 258.737304688 445.91015625 c 0
 257.822265625 445.91015625 256.91015625 445.940429688 256.000976562 446.000976562 c 0
 243.333984375 446.66796875 233.166992188 451.000976562 225.5 459.000976562 c 0
 220.734375 463.973632812 218.3515625 470.106445312 218.3515625 477.397460938 c 0
 218.3515625 481.8359375 219.234375 486.703125 221 492.000976562 c 0
 231 526.66796875 241 566.66796875 251 612.000976562 c 0
 261 657.333984375 269.333007812 697.666992188 276 733 c 0
 277.333007812 741 280.333007812 748 285 754 c 0
 289.666992188 760 295.166992188 764.166992188 301.5 766.5 c 0
 307.833007812 768.833007812 313.833007812 770.5 319.5 771.5 c 0
 325.166992188 772.5 331 772.666992188 337 772 c 0
 342.333007812 772 347.333007812 771.333007812 352 770 c 0
 356.666992188 768.666992188 361 766.5 365 763.5 c 0
 369 760.5 371.666992188 756 373 750 c 0
 374.333007812 744 374.333007812 736.666992188 373 728 c 0
EndSplineSet
Validated: 524289
EndChar

StartChar: parenleft
Encoding: 40 40 19
Width: 593
GlyphClass: 2
Flags: HMW
HStem: -130.998 83.998<230.331 277> 733.002 81<442 482.666>
LayerCount: 2
Fore
SplineSet
297 -93 m 0
 294.333007812 -103.666992188 288.165039062 -112.665039062 278.498046875 -119.998046875 c 0
 268.831054688 -127.331054688 259.6640625 -130.998046875 250.997070312 -130.998046875 c 0
 209.6640625 -130.998046875 175.831054688 -114.998046875 149.498046875 -82.998046875 c 0
 123.165039062 -50.998046875 105.998046875 -6.6650390625 97.998046875 50.001953125 c 0
 94.4423828125 75.1875 92.6650390625 102.083984375 92.6650390625 130.693359375 c 0
 92.6650390625 166.455078125 95.4423828125 204.890625 100.998046875 246.001953125 c 0
 107.665039062 294.668945312 123.33203125 358.001953125 147.999023438 436.001953125 c 0
 172.666015625 514.001953125 199.666015625 578.334960938 228.999023438 629.001953125 c 0
 242.33203125 651.001953125 257.999023438 672.834960938 275.999023438 694.501953125 c 0
 293.999023438 716.168945312 313.666015625 736.001953125 334.999023438 754.001953125 c 0
 356.33203125 772.001953125 378.999023438 786.501953125 402.999023438 797.501953125 c 0
 426.999023438 808.501953125 449.33203125 814.001953125 469.999023438 814.001953125 c 0
 490.481445312 814.001953125 500.72265625 805.068359375 500.72265625 787.200195312 c 0
 500.72265625 782.96875 500.147460938 778.236328125 498.999023438 773.001953125 c 0
 495.666015625 759.001953125 489.333007812 748.834960938 480 742.501953125 c 0
 470.666992188 736.168945312 460.666992188 733.001953125 450 733.001953125 c 0
 434 733.001953125 417.833007812 728.001953125 401.5 718.001953125 c 0
 385.166992188 708.001953125 369.666992188 694.334960938 355 677.001953125 c 0
 340.333007812 659.668945312 326.833007812 640.668945312 314.5 620.001953125 c 0
 302.166992188 599.334960938 290.666992188 577.001953125 280 553.001953125 c 0
 264 518.334960938 247.5 470.66796875 230.5 410.000976562 c 0
 213.5 349.333984375 202 300.000976562 196 262.000976562 c 0
 191.090820312 228.727539062 188.63671875 196.235351562 188.63671875 164.5234375 c 0
 188.63671875 157.477539062 188.7578125 150.469726562 189 143.500976562 c 0
 190.333007812 105.16796875 194.5 72.16796875 201.5 44.5009765625 c 0
 208.5 16.833984375 218.166992188 -5.3330078125 230.5 -22 c 0
 242.833007812 -38.6669921875 256.333007812 -47 271 -47 c 0
 283 -47 291.333007812 -50.3330078125 296 -57 c 0
 298.512695312 -60.58984375 299.76953125 -65.7255859375 299.76953125 -72.408203125 c 0
 299.76953125 -78.1357421875 298.846679688 -85 297 -93 c 0
EndSplineSet
Validated: 524289
EndChar

StartChar: parenright
Encoding: 41 41 20
Width: 593
GlyphClass: 2
Flags: HMW
HStem: -131.005 84<136.664 143.665> 732.998 81.002<318.333 350.666>
VStem: 410.999 86.001
LayerCount: 2
Fore
SplineSet
447 246 m 0
 423 172 393.997070312 106.662109375 359.997070312 49.9951171875 c 0
 325.997070312 -6.671875 288.330078125 -51.0048828125 246.997070312 -83.0048828125 c 0
 205.6640625 -115.004882812 164.331054688 -131.004882812 122.998046875 -131.004882812 c 0
 114.331054688 -131.004882812 106.6640625 -127.337890625 99.9970703125 -120.004882812 c 0
 93.330078125 -112.671875 91.330078125 -103.671875 93.9970703125 -93.0048828125 c 0
 97.9970703125 -75.671875 103.997070312 -63.671875 111.997070312 -57.0048828125 c 0
 119.997070312 -50.337890625 130.330078125 -47.0048828125 142.997070312 -47.0048828125 c 0
 157.6640625 -47.0048828125 174.831054688 -38.671875 194.498046875 -22.0048828125 c 0
 214.165039062 -5.337890625 233.998046875 16.8291015625 253.998046875 44.49609375 c 0
 273.998046875 72.1630859375 293.665039062 105.330078125 312.998046875 143.997070312 c 0
 332.331054688 182.6640625 347.998046875 221.997070312 359.998046875 261.997070312 c 0
 371.998046875 299.997070312 383.331054688 349.330078125 393.998046875 409.997070312 c 0
 404.665039062 470.6640625 410.33203125 518.331054688 410.999023438 552.998046875 c 0
 410.999023438 576.998046875 409.499023438 599.331054688 406.499023438 619.998046875 c 0
 403.499023438 640.665039062 398.83203125 659.665039062 392.499023438 676.998046875 c 0
 386.166015625 694.331054688 377.166015625 707.998046875 365.499023438 717.998046875 c 0
 353.83203125 727.998046875 339.999023438 732.998046875 323.999023438 732.998046875 c 0
 312.666015625 732.998046875 303.999023438 736.165039062 297.999023438 742.498046875 c 0
 293.844726562 746.8828125 291.768554688 753.104492188 291.768554688 761.1640625 c 0
 291.768554688 764.745117188 292.178710938 768.690429688 292.999023438 772.998046875 c 0
 294.999023438 781.665039062 297.999023438 788.83203125 301.999023438 794.499023438 c 0
 305.999023438 800.166015625 310.33203125 804.333007812 314.999023438 807 c 0
 319.666015625 809.666992188 323.999023438 811.5 327.999023438 812.5 c 0
 331.999023438 813.5 335.999023438 814 339.999023438 814 c 0
 361.33203125 814 381.33203125 808.5 399.999023438 797.5 c 0
 418.666015625 786.5 434.499023438 772 447.499023438 754 c 0
 460.499023438 736 471.33203125 716.166992188 479.999023438 694.5 c 0
 488.666015625 672.833007812 494.333007812 651 497 629 c 0
 499.038085938 611.791992188 500.056640625 593.0078125 500.056640625 572.647460938 c 0
 500.056640625 533.057617188 496.204101562 487.508789062 488.5 436 c 0
 476.833007812 358 463 294.666992188 447 246 c 0
EndSplineSet
Validated: 524289
EndChar

StartChar: asterisk
Encoding: 42 42 21
Width: 593
GlyphClass: 2
Flags: HMW
HStem: 292.998 103.999 305.999 77<353.998 397.998>
VStem: 202.997 86.001 302.998 86
LayerCount: 2
Fore
SplineSet
199 139 m 0x70
 195 131 189.498046875 124.999023438 182.498046875 120.999023438 c 0
 175.498046875 116.999023438 168.331054688 114.666015625 160.998046875 113.999023438 c 0
 153.665039062 113.33203125 146.998046875 113.83203125 140.998046875 115.499023438 c 0
 134.998046875 117.166015625 129.998046875 119.333007812 125.998046875 122 c 0
 121.331054688 125.333007812 117.6640625 130.166015625 114.997070312 136.499023438 c 0
 112.330078125 142.83203125 111.497070312 150.665039062 112.497070312 159.998046875 c 0
 113.497070312 169.331054688 117.6640625 178.998046875 124.997070312 188.998046875 c 2
 211.997070312 297.998046875 l 1
 159.997070312 294.665039062 121.997070312 292.998046875 97.9970703125 292.998046875 c 0
 83.330078125 292.998046875 72.9970703125 298.331054688 66.9970703125 308.998046875 c 0
 62.8427734375 316.3828125 60.7666015625 324.086914062 60.7666015625 332.110351562 c 0
 60.7666015625 335.676757812 61.1767578125 339.305664062 61.9970703125 342.998046875 c 0
 62.6640625 348.998046875 64.4970703125 355.165039062 67.4970703125 361.498046875 c 0
 70.4970703125 367.831054688 74.330078125 373.831054688 78.9970703125 379.498046875 c 0
 83.6640625 385.165039062 89.6640625 389.665039062 96.9970703125 392.998046875 c 0
 104.330078125 396.331054688 111.663085938 397.6640625 118.99609375 396.997070312 c 0xb0
 146.99609375 394.330078125 188.329101562 390.997070312 242.99609375 386.997070312 c 1
 227.663085938 435.6640625 214.330078125 472.997070312 202.997070312 498.997070312 c 0
 200.330078125 506.6640625 198.997070312 514.247070312 198.997070312 521.747070312 c 0
 198.997070312 529.247070312 200.330078125 536.663085938 202.997070312 543.997070312 c 0
 208.330078125 558.6640625 216.330078125 568.331054688 226.997070312 572.998046875 c 0
 233.6640625 576.998046875 241.1640625 579.165039062 249.497070312 579.498046875 c 0
 257.830078125 579.831054688 265.830078125 577.331054688 273.497070312 571.998046875 c 0
 281.1640625 566.665039062 286.331054688 558.665039062 288.998046875 547.998046875 c 0
 292.331054688 531.998046875 301.6640625 493.665039062 316.997070312 432.998046875 c 1
 352.330078125 478.331054688 379.663085938 516.331054688 398.99609375 546.998046875 c 0
 405.663085938 557.665039062 413.830078125 565.665039062 423.497070312 570.998046875 c 0
 433.1640625 576.331054688 441.831054688 578.831054688 449.498046875 578.498046875 c 0
 457.165039062 578.165039062 463.33203125 575.665039062 467.999023438 570.998046875 c 0
 473.33203125 567.665039062 477.165039062 562.33203125 479.498046875 554.999023438 c 0
 481.831054688 547.666015625 481.831054688 538.999023438 479.498046875 528.999023438 c 0
 477.165039062 518.999023438 471.998046875 509.33203125 463.998046875 499.999023438 c 0
 436.665039062 468.666015625 405.665039062 429.666015625 370.998046875 382.999023438 c 1
 424.998046875 382.999023438 464.331054688 386.666015625 488.998046875 393.999023438 c 0
 493.665039062 395.484375 497.977539062 396.2265625 501.935546875 396.2265625 c 0
 510.416992188 396.2265625 517.271484375 392.817382812 522.499023438 385.999023438 c 0
 528.580078125 378.068359375 531.620117188 369.717773438 531.620117188 360.948242188 c 0
 531.620117188 358.66015625 531.413085938 356.34375 530.999023438 353.999023438 c 0
 529.666015625 347.999023438 527.666015625 341.999023438 524.999023438 335.999023438 c 0
 522.33203125 329.999023438 518.83203125 323.999023438 514.499023438 317.999023438 c 0
 510.166015625 311.999023438 504.666015625 307.33203125 497.999023438 303.999023438 c 0
 491.33203125 300.666015625 484.665039062 299.999023438 477.998046875 301.999023438 c 0
 462.998046875 304.999023438 435.997070312 306.499023438 396.99609375 306.499023438 c 0
 383.997070312 306.499023438 369.6640625 306.33203125 353.998046875 305.999023438 c 1
 389.998046875 189.999023438 l 2
 391.512695312 183.029296875 392.270507812 176.438476562 392.270507812 170.2265625 c 0
 392.270507812 162.771484375 391.1796875 155.862304688 388.998046875 149.499023438 c 0
 384.998046875 137.83203125 378.331054688 129.33203125 368.998046875 123.999023438 c 0
 362.331054688 119.999023438 353.998046875 117.666015625 343.998046875 116.999023438 c 0
 333.998046875 116.33203125 324.831054688 118.33203125 316.498046875 122.999023438 c 0
 308.165039062 127.666015625 303.665039062 135.333007812 302.998046875 146 c 0
 301.665039062 172.666992188 294.33203125 211 280.999023438 261 c 1
 237.666015625 199.666992188 210.333007812 159 199 139 c 0x70
EndSplineSet
Validated: 524289
EndChar

StartChar: plus
Encoding: 43 43 22
Width: 593
GlyphClass: 2
Flags: HMW
HStem: 356.998 84.001<240.666 266.998>
LayerCount: 2
Fore
SplineSet
298 250 m 0
 294.666992188 234.666992188 288.999023438 223.831054688 280.999023438 217.498046875 c 0
 272.999023438 211.165039062 263.666015625 207.998046875 252.999023438 207.998046875 c 0
 231.448242188 207.998046875 220.671875 216.701171875 220.671875 234.108398438 c 0
 220.671875 238.778320312 221.448242188 244.075195312 222.999023438 249.998046875 c 2
 246.999023438 356.998046875 l 1
 234.33203125 356.998046875 217.499023438 356.831054688 196.499023438 356.498046875 c 0
 175.499023438 356.165039062 161.33203125 355.998046875 153.999023438 355.998046875 c 0
 138.666015625 355.998046875 128.166015625 360.165039062 122.499023438 368.498046875 c 0
 118.645507812 374.1640625 116.71875 380.678710938 116.71875 388.041015625 c 0
 116.71875 391.505859375 117.145507812 395.158203125 117.999023438 398.998046875 c 0
 119.999023438 411.665039062 125.666015625 422.33203125 134.999023438 430.999023438 c 0
 143.665039062 439.046875 155.206054688 443.0703125 169.620117188 443.0703125 c 0
 170.729492188 443.0703125 171.85546875 443.046875 172.999023438 442.999023438 c 0
 216.33203125 441.666015625 247.665039062 440.999023438 266.998046875 440.999023438 c 1
 274.998046875 474.33203125 282.331054688 510.33203125 288.998046875 548.999023438 c 0
 294.331054688 577.666015625 310.998046875 591.999023438 338.998046875 591.999023438 c 0
 351.665039062 592.666015625 361.33203125 589.999023438 367.999023438 583.999023438 c 0
 371.920898438 580.469726562 373.881835938 575.094726562 373.881835938 567.875 c 0
 373.881835938 562.8203125 372.920898438 556.862304688 370.999023438 549.999023438 c 0
 359.666015625 511.33203125 349.999023438 474.33203125 341.999023438 438.999023438 c 1
 443.999023438 438.999023438 l 2
 458.666015625 438.999023438 467.999023438 435.666015625 471.999023438 428.999023438 c 0
 475.999023438 422.33203125 477.33203125 413.33203125 475.999023438 401.999023438 c 0
 474.666015625 395.999023438 472.833007812 390.499023438 470.5 385.499023438 c 0
 468.166992188 380.499023438 465 375.666015625 461 370.999023438 c 0
 457 366.33203125 452 362.83203125 446 360.499023438 c 0
 440 358.166015625 433.333007812 357.333007812 426 358 c 0
 416.400390625 359.200195312 400.201171875 359.799804688 377.401367188 359.799804688 c 0
 362.201171875 359.799804688 344.067382812 359.533203125 323 359 c 1
 319 341 314.166992188 319.666992188 308.5 295 c 0
 302.833007812 270.333007812 299.333007812 255.333007812 298 250 c 0
EndSplineSet
Validated: 524289
EndChar

StartChar: comma
Encoding: 44 44 23
Width: 593
GlyphClass: 2
Flags: HMW
VStem: 167.501 254.999
LayerCount: 2
Fore
SplineSet
421 96 m 0
 407 63.3330078125 382.001953125 12.9990234375 346.001953125 -55.0009765625 c 0
 310.001953125 -123.000976562 284.668945312 -165.000976562 270.001953125 -181.000976562 c 0
 256.668945312 -195.000976562 241.668945312 -205.000976562 225.001953125 -211.000976562 c 0
 215.001953125 -214.600585938 206.44140625 -216.401367188 199.321289062 -216.401367188 c 0
 194.57421875 -216.401367188 190.467773438 -215.600585938 187.000976562 -214.000976562 c 0
 181.000976562 -212.000976562 176.000976562 -208.000976562 172.000976562 -202.000976562 c 0
 168.000976562 -196.000976562 166.500976562 -188.66796875 167.500976562 -180.000976562 c 0
 168.500976562 -171.333984375 173.000976562 -162.333984375 181.000976562 -153.000976562 c 0
 198.333984375 -133.000976562 226.166992188 -89.0009765625 264.5 -21.0009765625 c 0
 302.833007812 46.9990234375 327.666015625 94.33203125 338.999023438 120.999023438 c 0
 342.999023438 130.33203125 349.166015625 137.665039062 357.499023438 142.998046875 c 0
 365.83203125 148.331054688 373.83203125 150.998046875 381.499023438 150.998046875 c 0
 389.166015625 150.998046875 396.333007812 150.331054688 403 148.998046875 c 0
 411.666992188 145.665039062 418.166992188 139.33203125 422.5 129.999023438 c 0
 424.442382812 125.815429688 425.413085938 121.229492188 425.413085938 116.2421875 c 0
 425.413085938 110.103515625 423.942382812 103.356445312 421 96 c 0
EndSplineSet
Validated: 524289
EndChar

StartChar: hyphen
Encoding: 45 45 24
Width: 593
GlyphClass: 2
Flags: HMW
HStem: 243 87<187.333 193.001> 251 82<388.001 418.335>
VStem: 152.001 290.001
LayerCount: 2
Fore
SplineSet
201 330 m 0xa0
 236.333007812 330 278.501953125 330.5 327.501953125 331.5 c 0
 376.501953125 332.5 404.334960938 333 411.001953125 333 c 0
 425.668945312 333 435.001953125 329.5 439.001953125 322.5 c 0
 443.001953125 315.5 444.001953125 306.333007812 442.001953125 295 c 0
 435.334960938 265.666992188 418.66796875 251 392.000976562 251 c 0x60
 384.000976562 251 352.500976562 249.666992188 297.500976562 247 c 0
 242.500976562 244.333007812 204.000976562 243 182.000976562 243 c 0
 160.66796875 243 150.000976562 252.172851562 150.000976562 270.51953125 c 0
 150.000976562 275.106445312 150.66796875 280.266601562 152.000976562 286 c 0
 157.333984375 315.333007812 173.666992188 330 201 330 c 0xa0
EndSplineSet
Validated: 524289
EndChar

StartChar: period
Encoding: 46 46 25
Width: 593
GlyphClass: 2
Flags: HMW
HStem: -14 153.998
VStem: 221.001 151
LayerCount: 2
Fore
SplineSet
280 -14 m 0
 276.723632812 -14.3740234375 273.572265625 -14.5615234375 270.546875 -14.5615234375 c 0
 252.018554688 -14.5615234375 238.170898438 -7.5439453125 229.001953125 6.49609375 c 0
 221.890625 17.384765625 218.334960938 29.5341796875 218.334960938 42.94140625 c 0
 218.334960938 49.6455078125 219.223632812 56.6630859375 221.000976562 63.99609375 c 0
 225.66796875 84.6630859375 237.66796875 102.330078125 257.000976562 116.997070312 c 0
 276.333984375 131.6640625 296.000976562 139.331054688 316.000976562 139.998046875 c 0
 316.979492188 140.02734375 317.946289062 140.04296875 318.901367188 140.04296875 c 0
 339.426757812 140.04296875 354.626953125 133.194335938 364.500976562 119.499023438 c 0
 371.31640625 110.044921875 374.724609375 98.923828125 374.724609375 86.1337890625 c 0
 374.724609375 79.533203125 373.81640625 72.48828125 372.000976562 64.9990234375 c 0
 367.333984375 43.666015625 356.666992188 25.8330078125 340 11.5 c 0
 323.333007812 -2.8330078125 303.333007812 -11.3330078125 280 -14 c 0
EndSplineSet
Validated: 524289
EndChar

StartChar: slash
Encoding: 47 47 26
Width: 593
GlyphClass: 2
Flags: HMW
VStem: -20 95
LayerCount: 2
Fore
SplineSet
597 676 m 0
 573 642 508.501953125 558.498046875 403.501953125 425.498046875 c 0
 298.501953125 292.498046875 234.334960938 209.998046875 211.001953125 177.998046875 c 0
 196.334960938 157.331054688 172.16796875 122.331054688 138.500976562 72.998046875 c 0
 104.833984375 23.6650390625 83.6669921875 -6.3349609375 75 -17.001953125 c 0
 61 -35.6689453125 45.5 -48.6689453125 28.5 -56.001953125 c 0
 20 -59.66796875 12.375 -61.501953125 5.625 -61.501953125 c 0
 -1.125 -61.501953125 -7 -59.66796875 -12 -56.001953125 c 0
 -18 -52.001953125 -21 -44.0654296875 -21 -32.1904296875 c 0
 -21 -28.232421875 -20.6669921875 -23.8359375 -20 -19.0029296875 c 0
 -17.3330078125 0.330078125 -9.3330078125 17.9970703125 4 33.9970703125 c 0
 132 193.997070312 242.333007812 336.330078125 335 460.997070312 c 0
 393 537.6640625 455.666992188 624.331054688 523 720.998046875 c 0
 530.333007812 731.665039062 539 739.83203125 549 745.499023438 c 0
 559 751.166015625 568 753.833007812 576 753.5 c 0
 584 753.166992188 591.666992188 751.333984375 599 748.000976562 c 0
 609 742.000976562 614 732.66796875 614 720.000976562 c 0
 614 707.333984375 608.333007812 692.666992188 597 676 c 0
EndSplineSet
Validated: 524289
EndChar

StartChar: zero
Encoding: 48 48 27
Width: 593
GlyphClass: 2
Flags: HMW
HStem: -24 83.999<192.001 203.333> 636.999 81.001<378.333 379.667>
LayerCount: 2
Fore
SplineSet
194 -24 m 0
 165.333007812 -24 139.833984375 -18.333984375 117.500976562 -7.0009765625 c 0
 95.16796875 4.33203125 77.66796875 19.9990234375 65.0009765625 39.9990234375 c 0
 52.333984375 59.9990234375 44.5009765625 84.9990234375 41.5009765625 114.999023438 c 0
 40.771484375 122.295898438 40.40625 129.770507812 40.40625 137.422851562 c 0
 40.40625 161.23046875 43.9384765625 186.755859375 51.0009765625 213.999023438 c 0
 52.333984375 220.666015625 55.833984375 237.166015625 61.5009765625 263.499023438 c 0
 67.16796875 289.83203125 71.8349609375 310.83203125 75.501953125 326.499023438 c 0
 79.1689453125 342.166015625 84.6689453125 363.833007812 92.001953125 391.5 c 0
 99.3349609375 419.166992188 106.334960938 443 113.001953125 463 c 0
 119.668945312 483 128.001953125 504.5 138.001953125 527.5 c 0
 148.001953125 550.5 158.001953125 570.666992188 168.001953125 588 c 0
 193.334960938 630 226.16796875 662.166992188 266.500976562 684.5 c 0
 306.833984375 706.833007812 352.666992188 718 404 718 c 0
 429.333007812 718 451.833007812 713.333007812 471.5 704 c 0
 491.166992188 694.666992188 507.833984375 681 521.500976562 663 c 0
 535.16796875 645 544.334960938 621.666992188 549.001953125 593 c 0
 551.1796875 579.62109375 552.26953125 565.298828125 552.26953125 550.032226562 c 0
 552.26953125 532.586914062 550.846679688 513.91015625 548.002929688 494 c 0
 542.669921875 460.666992188 535.336914062 422.833984375 526.00390625 380.500976562 c 0
 516.670898438 338.16796875 505.670898438 295.500976562 493.00390625 252.500976562 c 0
 480.336914062 209.500976562 468.669921875 176.66796875 458.002929688 154.000976562 c 0
 447.3359375 131.333984375 436.668945312 111.333984375 426.001953125 94.0009765625 c 0
 415.334960938 76.66796875 404.66796875 61.66796875 394.000976562 49.0009765625 c 0
 383.333984375 36.333984375 371.833984375 25.6669921875 359.500976562 17 c 0
 347.16796875 8.3330078125 335.16796875 1.3330078125 323.500976562 -4 c 0
 311.833984375 -9.3330078125 298.833984375 -13.5 284.500976562 -16.5 c 0
 270.16796875 -19.5 256.16796875 -21.5 242.500976562 -22.5 c 0
 228.833984375 -23.5 212.666992188 -24 194 -24 c 0
145.000976562 229.999023438 m 0
 144.333984375 227.33203125 143.500976562 223.333007812 142.500976562 218 c 0
 141.500976562 212.666992188 140.66796875 209 140.000976562 207 c 1
 251.333984375 329 355.333984375 454.333007812 452.000976562 583 c 1
 444.66796875 600.333007812 434.000976562 613.666015625 420.000976562 622.999023438 c 0
 406.000976562 632.33203125 389.333984375 636.999023438 370.000976562 636.999023438 c 0
 335.333984375 636.999023438 306.000976562 626.666015625 282.000976562 605.999023438 c 0
 258.000976562 585.33203125 236.000976562 551.999023438 216.000976562 505.999023438 c 0
 208.000976562 489.33203125 200.500976562 469.83203125 193.500976562 447.499023438 c 0
 186.500976562 425.166015625 179.500976562 398.166015625 172.500976562 366.499023438 c 0
 165.500976562 334.83203125 160.833984375 312.499023438 158.500976562 299.499023438 c 0
 156.16796875 286.499023438 151.66796875 263.33203125 145.000976562 229.999023438 c 0
374.000976562 168 m 0
 378.000976562 176 385.66796875 197.999023438 397.000976562 233.999023438 c 0
 408.333984375 269.999023438 420.000976562 311.166015625 432.000976562 357.499023438 c 0
 444.000976562 403.83203125 453.333984375 448.33203125 460.000976562 490.999023438 c 1
 359.333984375 344.33203125 252.333984375 221.33203125 139.000976562 121.999023438 c 1
 146.333984375 80.666015625 171.000976562 59.9990234375 213.000976562 59.9990234375 c 0
 229.66796875 59.9990234375 245.000976562 61.4990234375 259.000976562 64.4990234375 c 0
 273.000976562 67.4990234375 286.833984375 72.83203125 300.500976562 80.4990234375 c 0
 314.16796875 88.166015625 327.000976562 99.3330078125 339.000976562 114 c 0
 351.000976562 128.666992188 362.66796875 146.666992188 374.000976562 168 c 0
EndSplineSet
Validated: 524289
EndChar

StartChar: one
Encoding: 49 49 28
Width: 593
GlyphClass: 2
Flags: HMW
HStem: -9 85.5 -5 89<114.666 115.331>
LayerCount: 2
Fore
SplineSet
523 38 m 0x80
 520.333007812 24.6669921875 514.497070312 13.5 505.497070312 4.5 c 0
 496.497070312 -4.5 482.6640625 -9 463.997070312 -9 c 0x80
 455.997070312 -9 400.997070312 -8.3330078125 298.997070312 -7 c 0
 196.997070312 -5.6669921875 130.6640625 -5 99.9970703125 -5 c 0
 85.9970703125 -5 76.830078125 -1 72.4970703125 7 c 0
 69.814453125 11.9521484375 68.4736328125 17.7978515625 68.4736328125 24.5380859375 c 0
 68.4736328125 28.6865234375 68.9814453125 33.173828125 69.998046875 38 c 0
 72.6650390625 51.3330078125 78.33203125 62.3330078125 86.9990234375 71 c 0
 95.666015625 79.6669921875 107.333007812 84 122 84 c 0x40
 150 84 197.666992188 83.6669921875 265 83 c 1
 271 109.666992188 275.666992188 131 279 147 c 0
 279.666992188 152.333007812 283.5 170 290.5 200 c 0
 297.5 230 302.666992188 251.666992188 306 265 c 0
 309.333007812 278.333007812 315.833007812 303 325.5 339 c 0
 335.166992188 375 342.166992188 401.833007812 346.5 419.5 c 0
 350.833007812 437.166992188 358.166015625 465.166992188 368.499023438 503.5 c 0
 378.83203125 541.833007812 386.665039062 570 391.998046875 588 c 1
 336.665039062 546.666992188 297.33203125 522 273.999023438 514 c 0
 269.896484375 512.359375 265.952148438 511.5390625 262.165039062 511.5390625 c 0
 253.64453125 511.5390625 245.921875 515.692382812 238.999023438 524 c 0
 231.499023438 533 227.749023438 542 227.749023438 551 c 0
 227.749023438 554 228.166015625 557 228.999023438 560 c 0
 230.999023438 570.666992188 235.33203125 580.166992188 241.999023438 588.5 c 0
 248.666015625 596.833007812 258.666015625 605.333007812 271.999023438 614 c 0
 293.33203125 628.666992188 315.83203125 644.833984375 339.499023438 662.500976562 c 0
 363.166015625 680.16796875 380.499023438 693.000976562 391.499023438 701.000976562 c 0
 402.499023438 709.000976562 413.166015625 715.833984375 423.499023438 721.500976562 c 0
 433.83203125 727.16796875 442.665039062 730.000976562 449.998046875 730.000976562 c 0
 463.331054688 730.000976562 475.498046875 724.000976562 486.498046875 712.000976562 c 0
 495.805664062 701.846679688 500.459960938 693.125 500.459960938 685.834960938 c 0
 500.459960938 683.2109375 500.459960938 683.2109375 456.498046875 518.500976562 c 0
 431.498046875 424.833984375 417.331054688 370.000976562 413.998046875 354.000976562 c 0
 398.665039062 287.333984375 385.998046875 231.666992188 375.998046875 187 c 0
 369.998046875 162.333007812 362.665039062 126.333007812 353.998046875 79 c 1
 371.998046875 79 390.831054688 78.6669921875 410.498046875 78 c 0
 430.165039062 77.3330078125 446.33203125 76.8330078125 458.999023438 76.5 c 0
 471.666015625 76.1669921875 480.333007812 76 485 76 c 0
 502.333007812 76 513.5 72.5 518.5 65.5 c 0
 523.5 58.5 525 49.3330078125 523 38 c 0x80
EndSplineSet
Validated: 524289
EndChar

StartChar: two
Encoding: 50 50 29
Width: 593
GlyphClass: 2
Flags: HMW
HStem: -18.0049 84.0049 -12 89<404 440.501> 637.997 83.999<388.334 401.336>
LayerCount: 2
Fore
SplineSet
417 -12 m 0x60
 391 -12 358.501953125 -12.6728515625 319.501953125 -14.005859375 c 0
 280.501953125 -15.3388671875 245.834960938 -16.671875 215.501953125 -18.0048828125 c 0
 185.168945312 -19.337890625 154.501953125 -20.0048828125 123.501953125 -20.0048828125 c 0
 92.501953125 -20.0048828125 68.3349609375 -18.671875 51.001953125 -16.0048828125 c 0
 37.6689453125 -14.671875 29.8359375 -5.671875 27.5029296875 10.9951171875 c 0
 26.9765625 14.7587890625 26.712890625 18.8955078125 26.712890625 23.4072265625 c 0
 26.712890625 38.8740234375 29.8095703125 58.7373046875 36.0029296875 82.9951171875 c 0
 42.669921875 111.662109375 55.169921875 141.829101562 73.5029296875 173.49609375 c 0
 91.8359375 205.163085938 115.668945312 235.49609375 145.001953125 264.49609375 c 0
 174.334960938 293.49609375 206.001953125 316.99609375 240.001953125 334.99609375 c 0
 316.001953125 374.99609375 365.334960938 402.99609375 388.001953125 418.99609375 c 0
 418.001953125 440.329101562 439.334960938 462.99609375 452.001953125 486.99609375 c 0
 458.668945312 500.99609375 464.3359375 518.329101562 469.002929688 538.99609375 c 0
 471.78515625 551.053710938 473.176757812 561.962890625 473.176757812 571.72265625 c 0
 473.176757812 590.021484375 468.28515625 604.279296875 458.502929688 614.497070312 c 0
 443.502929688 630.1640625 418.669921875 637.997070312 384.002929688 637.997070312 c 0
 360.002929688 637.997070312 335.002929688 629.997070312 309.002929688 613.997070312 c 0
 283.002929688 597.997070312 261.669921875 580.330078125 245.002929688 560.997070312 c 0
 237.002929688 552.330078125 230.169921875 545.497070312 224.502929688 540.497070312 c 0
 218.8359375 535.497070312 213.168945312 532.6640625 207.501953125 531.997070312 c 0
 201.834960938 531.330078125 196.834960938 531.663085938 192.501953125 532.99609375 c 0
 188.168945312 534.329101562 183.001953125 536.662109375 177.001953125 539.995117188 c 0
 167.668945312 545.995117188 163.001953125 554.662109375 163.001953125 565.995117188 c 0
 163.001953125 577.328125 169.001953125 591.995117188 181.001953125 609.995117188 c 0
 190.334960938 622.662109375 202.501953125 635.329101562 217.501953125 647.99609375 c 0
 232.501953125 660.663085938 249.501953125 672.663085938 268.501953125 683.99609375 c 0
 287.501953125 695.329101562 308.668945312 704.49609375 332.001953125 711.49609375 c 0
 355.334960938 718.49609375 377.66796875 721.99609375 399.000976562 721.99609375 c 0
 466.333984375 721.99609375 513.500976562 705.329101562 540.500976562 671.99609375 c 0
 557.721679688 650.736328125 566.331054688 622.697265625 566.331054688 587.877929688 c 0
 566.331054688 568.103515625 563.5546875 546.143554688 558.000976562 521.99609375 c 0
 545.333984375 466.663085938 522.000976562 422.330078125 488.000976562 388.997070312 c 0
 462.66796875 364.330078125 421.66796875 336.997070312 365.000976562 306.997070312 c 0
 351.000976562 298.997070312 326.66796875 286.6640625 292.000976562 269.997070312 c 0
 262.000976562 254.6640625 235.500976562 235.831054688 212.500976562 213.498046875 c 0
 189.500976562 191.165039062 171.333984375 168.33203125 158.000976562 144.999023438 c 0
 144.66796875 121.666015625 134.000976562 96.3330078125 126.000976562 69 c 1
 160.000976562 67 193.000976562 66 225.000976562 66 c 0xa0
 257.000976562 66 282.16796875 66.5 300.500976562 67.5 c 0
 318.833984375 68.5 340.000976562 70 364.000976562 72 c 2
 412.000976562 76 l 2
 412.66796875 76 415.66796875 76.1669921875 421.000976562 76.5 c 0
 426.333984375 76.8330078125 429.833984375 77 431.500976562 77 c 2
 440.500976562 77 l 2
 444.833984375 77 448.000976562 76.3330078125 450.000976562 75 c 0
 452.000976562 73.6669921875 454.16796875 72 456.500976562 70 c 0
 458.833984375 68 460.500976562 65.3330078125 461.500976562 62 c 0
 462.500976562 58.6669921875 462.66796875 54.6669921875 462.000976562 50 c 0
 461.333984375 42 459.166992188 33.5 455.5 24.5 c 0
 451.833007812 15.5 446.5 7.1669921875 439.5 -0.5 c 0
 432.5 -8.1669921875 425 -12 417 -12 c 0x60
EndSplineSet
Validated: 524289
EndChar

StartChar: three
Encoding: 51 51 30
Width: 593
GlyphClass: 2
Flags: HMW
HStem: -23.9941 84<222.666 246.333> 318.006 100<251.666 258.333> 638.006 83.998<362.001 376.999>
VStem: 393.5 100
LayerCount: 2
Fore
SplineSet
486 199 m 0
 470.666992188 130.333007812 438.666992188 76.005859375 390 36.005859375 c 0
 341.333007812 -3.994140625 281.666015625 -23.994140625 210.999023438 -23.994140625 c 0
 188.999023438 -23.994140625 168.166015625 -20.494140625 148.499023438 -13.494140625 c 0
 128.83203125 -6.494140625 111.999023438 2.505859375 97.9990234375 13.505859375 c 0
 83.9990234375 24.505859375 72.33203125 36.505859375 62.9990234375 49.505859375 c 0
 53.666015625 62.505859375 47.666015625 75.3388671875 44.9990234375 88.005859375 c 0
 43.666015625 94.138671875 42.9990234375 100.059570312 42.9990234375 105.765625 c 0
 42.9990234375 114.326171875 44.4990234375 122.405273438 47.4990234375 130.005859375 c 0
 52.4990234375 142.672851562 60.666015625 151.672851562 71.9990234375 157.005859375 c 0
 81.654296875 161.603515625 90.2783203125 163.90234375 97.8720703125 163.90234375 c 0
 101.290039062 163.90234375 104.499023438 163.436523438 107.499023438 162.505859375 c 0
 117.166015625 159.505859375 125.333007812 151.005859375 132 137.005859375 c 0
 141.333007812 117.005859375 154.666015625 99.1728515625 171.999023438 83.505859375 c 0
 189.33203125 67.8388671875 210.33203125 60.005859375 234.999023438 60.005859375 c 0
 271.666015625 60.005859375 304.666015625 71.3388671875 333.999023438 94.005859375 c 0
 363.33203125 116.672851562 381.999023438 146.005859375 389.999023438 182.005859375 c 0
 393.110351562 196.673828125 394.666015625 210.0078125 394.666015625 222.008789062 c 0
 394.666015625 228.0078125 394.27734375 233.672851562 393.5 239.005859375 c 0
 391.166992188 255.005859375 384.666992188 269.005859375 374 281.005859375 c 0
 363.333007812 293.005859375 346.833007812 302.172851562 324.5 308.505859375 c 0
 302.166992188 314.838867188 274.666992188 318.005859375 242 318.005859375 c 0
 229.333007812 318.005859375 219.666015625 323.505859375 212.999023438 334.505859375 c 0
 208.553710938 341.83984375 206.33203125 349.692382812 206.33203125 358.0625 c 0
 206.33203125 362.248046875 206.88671875 366.561523438 207.998046875 371.005859375 c 0
 211.331054688 385.005859375 217.331054688 396.338867188 225.998046875 405.005859375 c 0
 234.665039062 413.672851562 245.33203125 418.005859375 257.999023438 418.005859375 c 0
 309.999023438 418.005859375 353.499023438 429.172851562 388.499023438 451.505859375 c 0
 423.499023438 473.838867188 445.33203125 506.338867188 453.999023438 549.005859375 c 0
 456.55859375 558.60546875 457.838867188 567.420898438 457.838867188 575.450195312 c 0
 457.838867188 592.513671875 452.05859375 606.032226562 440.499023438 616.005859375 c 0
 423.499023438 630.672851562 395.999023438 638.005859375 357.999023438 638.005859375 c 0
 350.666015625 638.005859375 343.499023438 637.172851562 336.499023438 635.505859375 c 0
 329.499023438 633.838867188 323.499023438 632.171875 318.499023438 630.504882812 c 0
 313.499023438 628.837890625 307.999023438 626.004882812 301.999023438 622.004882812 c 0
 295.999023438 618.004882812 291.166015625 614.671875 287.499023438 612.004882812 c 0
 283.83203125 609.337890625 278.999023438 605.004882812 272.999023438 599.004882812 c 2
 260.499023438 586.504882812 l 2
 258.166015625 584.171875 253.999023438 579.338867188 247.999023438 572.005859375 c 0
 234.666015625 557.338867188 222.499023438 548.671875 211.499023438 546.004882812 c 0
 208.356445312 545.243164062 205.25390625 544.862304688 202.192382812 544.862304688 c 0
 194.5390625 544.862304688 187.141601562 547.243164062 179.999023438 552.004882812 c 0
 171.288085938 556.982421875 166.93359375 565.0078125 166.93359375 576.083007812 c 0
 166.93359375 588.150390625 171.974609375 603.212890625 184.000976562 622.00390625 c 0
 193.333984375 635.336914062 204.000976562 647.50390625 216.000976562 658.50390625 c 0
 228.000976562 669.50390625 241.66796875 680.00390625 257.000976562 690.00390625 c 0
 272.333984375 700.00390625 290.000976562 707.836914062 310.000976562 713.50390625 c 0
 330.000976562 719.170898438 351.000976562 722.00390625 373.000976562 722.00390625 c 0
 444.333984375 722.00390625 494.333984375 706.00390625 523.000976562 674.00390625 c 0
 541.399414062 653.466796875 550.59765625 626.614257812 550.59765625 593.4453125 c 0
 550.59765625 574.932617188 547.732421875 554.452148438 542.000976562 532.00390625 c 0
 538.000976562 512.670898438 531.833984375 495.170898438 523.500976562 479.50390625 c 0
 515.16796875 463.836914062 505.66796875 450.50390625 495.000976562 439.50390625 c 0
 484.333984375 428.50390625 472.166992188 418.836914062 458.5 410.50390625 c 0
 444.833007812 402.170898438 431.5 395.670898438 418.5 391.00390625 c 0
 405.5 386.336914062 391.666992188 382.669921875 377 380.002929688 c 1
 401 374.002929688 421 366.669921875 437 358.002929688 c 0
 453 349.3359375 466 338.168945312 476 324.501953125 c 0
 486 310.834960938 491.833007812 293.66796875 493.5 273.000976562 c 0
 493.833007812 268.8671875 494 264.573242188 494 260.119140625 c 0
 494 242.305664062 491.333007812 221.932617188 486 199 c 0
EndSplineSet
Validated: 524289
EndChar

StartChar: four
Encoding: 52 52 31
Width: 593
GlyphClass: 2
Flags: HMW
HStem: -23.001 21G<341.334 354.001> 223.999 79.999
LayerCount: 2
Fore
SplineSet
402 55 m 0
 401.333007812 33.6669921875 395.500976562 15.33203125 384.500976562 -0.0009765625 c 0
 373.500976562 -15.333984375 361.000976562 -23.0009765625 347.000976562 -23.0009765625 c 0
 335.66796875 -23.0009765625 325.66796875 -18.16796875 317.000976562 -8.5009765625 c 0
 309.489257812 -0.123046875 305.733398438 8.380859375 305.733398438 17.0087890625 c 0
 305.733398438 23.4921875 311.611328125 48.0009765625 314.499023438 59.9990234375 c 0
 318.83203125 77.9990234375 324.999023438 103.83203125 332.999023438 137.499023438 c 0
 340.999023438 171.166015625 347.666015625 199.999023438 352.999023438 223.999023438 c 1
 339.74609375 224.15625 326.954101562 224.234375 314.623046875 224.234375 c 0
 222.12890625 224.234375 155.587890625 219.822265625 114.999023438 210.999023438 c 0
 104.999023438 208.999023438 96.166015625 209.33203125 88.4990234375 211.999023438 c 0
 80.83203125 214.666015625 75.4990234375 219.333007812 72.4990234375 226 c 0
 69.4990234375 232.666992188 67.666015625 240.333984375 66.9990234375 249.000976562 c 0
 66.33203125 257.66796875 67.1650390625 266.66796875 69.498046875 276.000976562 c 0
 71.8310546875 285.333984375 75.3310546875 294.333984375 79.998046875 303.000976562 c 0
 90.6650390625 321.66796875 114.498046875 352.16796875 151.498046875 394.500976562 c 0
 188.498046875 436.833984375 235.665039062 489.166992188 292.998046875 551.5 c 0
 350.331054688 613.833007812 391.331054688 659 415.998046875 687 c 0
 427.331054688 699.666992188 438.831054688 709.166992188 450.498046875 715.5 c 0
 462.165039062 721.833007812 472.33203125 725 480.999023438 725 c 0
 483.301757812 725.2421875 485.543945312 725.36328125 487.725585938 725.36328125 c 0
 497.543945312 725.36328125 506.134765625 722.909179688 513.499023438 718 c 0
 521.877929688 712.4140625 526.068359375 703.072265625 526.068359375 689.973632812 c 0
 526.068359375 684.974609375 524.942382812 656.916992188 510 579 c 0
 500.666992188 530.333007812 492.333984375 489.166015625 485.000976562 455.499023438 c 0
 477.66796875 421.83203125 466.66796875 370.999023438 452.000976562 302.999023438 c 1
 462.66796875 302.33203125 474.66796875 301.999023438 488.000976562 301.999023438 c 0
 502.66796875 301.999023438 512.000976562 298.499023438 516.000976562 291.499023438 c 0
 520.000976562 284.499023438 521.000976562 275.33203125 519.000976562 263.999023438 c 0
 512.333984375 234.666015625 495.666992188 219.999023438 469 219.999023438 c 0
 456.333007812 219.999023438 445 220.33203125 435 220.999023438 c 1
 413 123.666015625 402 68.3330078125 402 55 c 0
433.000976562 601.998046875 m 1
 311.000976562 472.665039062 225.666992188 372.331054688 177 300.998046875 c 1
 212.239257812 303.37890625 255.302734375 304.569335938 306.190429688 304.569335938 c 0
 326.541992188 304.569335938 348.145507812 304.37890625 371 303.998046875 c 1
 399.666992188 428.665039062 420.333984375 527.998046875 433.000976562 601.998046875 c 1
EndSplineSet
Validated: 524289
EndChar

StartChar: five
Encoding: 53 53 32
Width: 593
GlyphClass: 2
Flags: HMW
HStem: -18.001 83.998<202.998 209.331> 419.997 89.0029<327.332 390> 619 88.998<527.667 559.001> 630 79.998
LayerCount: 2
Fore
SplineSet
501 296 m 0xd0
 489.666992188 246.666992188 473.6640625 202.166015625 452.997070312 162.499023438 c 0
 432.330078125 122.83203125 408.497070312 89.83203125 381.497070312 63.4990234375 c 0
 354.497070312 37.166015625 324.830078125 16.9990234375 292.497070312 2.9990234375 c 0
 260.1640625 -11.0009765625 226.6640625 -18.0009765625 191.997070312 -18.0009765625 c 0
 164.6640625 -18.0009765625 140.1640625 -15.0009765625 118.497070312 -9.0009765625 c 0
 96.830078125 -3.0009765625 79.4970703125 5.33203125 66.4970703125 15.9990234375 c 0
 53.4970703125 26.666015625 43.1640625 37.8330078125 35.4970703125 49.5 c 0
 27.830078125 61.1669921875 21.9970703125 73.333984375 17.9970703125 86.0009765625 c 0
 16.6640625 93.201171875 15.9970703125 99.8681640625 15.9970703125 106.000976562 c 0
 15.9970703125 115.201171875 17.4970703125 123.201171875 20.4970703125 130.000976562 c 0
 25.4970703125 141.333984375 34.330078125 150.000976562 46.9970703125 156.000976562 c 0
 54.9970703125 159.333984375 61.1640625 161.666992188 65.4970703125 163 c 0
 69.830078125 164.333007812 74.830078125 164.666015625 80.4970703125 163.999023438 c 0
 86.1640625 163.33203125 90.8310546875 160.665039062 94.498046875 155.998046875 c 0
 98.1650390625 151.331054688 101.665039062 144.6640625 104.998046875 135.997070312 c 0
 122.331054688 89.9970703125 154.998046875 66.6640625 202.998046875 65.9970703125 c 0
 249.665039062 65.9970703125 291.165039062 85.830078125 327.498046875 125.497070312 c 0
 363.831054688 165.1640625 389.6640625 218.331054688 404.997070312 284.998046875 c 0
 409.211914062 303.6640625 411.319335938 320.59765625 411.319335938 335.796875 c 0
 411.319335938 354.252929688 408.211914062 370.153320312 401.997070312 383.497070312 c 0
 390.6640625 407.830078125 367.331054688 419.997070312 331.998046875 419.997070312 c 0
 322.665039062 419.997070312 313.498046875 419.497070312 304.498046875 418.497070312 c 0
 295.498046875 417.497070312 287.831054688 416.1640625 281.498046875 414.497070312 c 0
 275.165039062 412.830078125 267.998046875 410.330078125 259.998046875 406.997070312 c 0
 251.998046875 403.6640625 245.998046875 400.997070312 241.998046875 398.997070312 c 0
 237.998046875 396.997070312 232.331054688 393.330078125 224.998046875 387.997070312 c 0
 217.665039062 382.6640625 212.83203125 378.997070312 210.499023438 376.997070312 c 0
 208.166015625 374.997070312 203.166015625 370.830078125 195.499023438 364.497070312 c 0
 187.83203125 358.1640625 182.999023438 354.331054688 180.999023438 352.998046875 c 0
 174.999023438 348.331054688 168.166015625 344.331054688 160.499023438 340.998046875 c 0
 152.83203125 337.665039062 144.499023438 335.498046875 135.499023438 334.498046875 c 0
 126.499023438 333.498046875 118.33203125 334.998046875 110.999023438 338.998046875 c 0
 101.666015625 343.665039062 96.166015625 353.998046875 94.4990234375 369.998046875 c 0
 94.060546875 374.208984375 93.8408203125 378.673828125 93.8408203125 383.392578125 c 0
 93.8408203125 396.603515625 95.560546875 411.805664062 98.9990234375 428.998046875 c 0
 103.666015625 452.331054688 108.999023438 474.831054688 114.999023438 496.498046875 c 0
 120.999023438 518.165039062 127.666015625 541.498046875 134.999023438 566.498046875 c 0
 142.33203125 591.498046875 146.999023438 608.665039062 148.999023438 617.998046875 c 1
 145.666015625 626.665039062 144.666015625 636.498046875 145.999023438 647.498046875 c 0
 147.33203125 658.498046875 150.33203125 668.665039062 154.999023438 677.998046875 c 0
 159.666015625 687.331054688 165.833007812 695.331054688 173.5 701.998046875 c 0
 181.166992188 708.665039062 189.333984375 711.998046875 198.000976562 711.998046875 c 0
 221.333984375 711.998046875 275.500976562 711.331054688 360.500976562 709.998046875 c 0xd0
 445.500976562 708.665039062 510.333984375 707.998046875 555.000976562 707.998046875 c 0
 563.000976562 707.998046875 568.66796875 704.331054688 572.000976562 696.998046875 c 0
 575.333984375 689.665039062 576.666992188 681.33203125 576 671.999023438 c 0
 575.333007812 662.666015625 573.666015625 653.999023438 570.999023438 645.999023438 c 0
 569.666015625 641.33203125 567.833007812 637.33203125 565.5 633.999023438 c 0
 563.166992188 630.666015625 560.333984375 628.166015625 557.000976562 626.499023438 c 0
 553.66796875 624.83203125 550.834960938 623.33203125 548.501953125 621.999023438 c 0
 546.168945312 620.666015625 542.668945312 619.833007812 538.001953125 619.5 c 0
 533.334960938 619.166992188 530.16796875 619 528.500976562 619 c 0xe0
 526.833984375 619 523.333984375 619.333007812 518.000976562 620 c 0
 512.66796875 620.666992188 509.66796875 621 509.000976562 621 c 0
 500.333984375 621 485.166992188 622 463.5 624 c 0
 441.833007812 626 422.333007812 627.5 405 628.5 c 0
 387.666992188 629.5 363.5 630 332.5 630 c 0
 301.5 630 269 629 235 627 c 1
 233 620.333007812 227.833007812 601 219.5 569 c 0
 211.166992188 537 205.166992188 513.833007812 201.5 499.5 c 0
 197.833007812 485.166992188 193.333007812 464.666992188 188 438 c 1
 210 458.666992188 237.333007812 475.666992188 270 489 c 0
 302.666992188 502.333007812 338 509 376 509 c 0
 404 509 427.666992188 503.5 447 492.5 c 0
 466.333007812 481.5 481 466.333007812 491 447 c 0
 501 427.666992188 506.833007812 405.166992188 508.5 379.5 c 0
 508.833007812 374.366210938 509 369.145507812 509 363.837890625 c 0
 509 342.611328125 506.333007812 319.999023438 501 296 c 0xd0
EndSplineSet
Validated: 524289
EndChar

StartChar: six
Encoding: 54 54 33
Width: 593
GlyphClass: 2
Flags: HMW
HStem: -21.9971 84.0049<237.665 241.333> 393.004 87.9961<319.333 394.333> 657 80.002
VStem: 59.999 82.9971 427.499 95
LayerCount: 2
Fore
SplineSet
511 246 m 0
 502.333007812 208.666992188 488.33203125 173.502929688 468.999023438 140.502929688 c 0
 449.666015625 107.502929688 427.499023438 79.169921875 402.499023438 55.5029296875 c 0
 377.499023438 31.8359375 349.499023438 13.0029296875 318.499023438 -0.9970703125 c 0
 287.499023438 -14.9970703125 256.666015625 -21.9970703125 225.999023438 -21.9970703125 c 0
 187.999023438 -21.9970703125 156.499023438 -14.1640625 131.499023438 1.5029296875 c 0
 106.499023438 17.169921875 88.166015625 39.8369140625 76.4990234375 69.50390625 c 0
 65.462890625 97.56640625 59.9453125 130.848632812 59.9453125 169.349609375 c 0
 59.9453125 171.55078125 59.962890625 173.768554688 59.9990234375 176.00390625 c 0
 60.666015625 217.336914062 67.3330078125 263.669921875 80 315.002929688 c 0
 94 372.3359375 111.333007812 424.002929688 132 470.002929688 c 0
 152.666992188 516.002929688 175.5 554.669921875 200.5 586.002929688 c 0
 225.5 617.3359375 253.333007812 643.8359375 284 665.502929688 c 0
 314.666992188 687.169921875 346.333984375 703.669921875 379.000976562 715.002929688 c 0
 411.66796875 726.3359375 447.000976562 733.668945312 485.000976562 737.001953125 c 0
 487.793945312 737.255859375 490.484375 737.3828125 493.071289062 737.3828125 c 0
 504.072265625 737.3828125 513.21484375 735.088867188 520.500976562 730.500976562 c 0
 528.879882812 725.224609375 533.0703125 716.915039062 533.0703125 705.571289062 c 0
 533.0703125 701.477539062 533.0703125 691.969726562 516 676.5 c 0
 505.333007812 666.833007812 494.666015625 660.333007812 483.999023438 657 c 0
 476.666015625 655 465.499023438 652.333007812 450.499023438 649 c 0
 435.499023438 645.666992188 422.83203125 642.5 412.499023438 639.5 c 0
 402.166015625 636.5 389.499023438 632 374.499023438 626 c 0
 359.499023438 620 343.999023438 611.333007812 327.999023438 600 c 0
 311.999023438 588.666992188 295.666015625 575 278.999023438 559 c 0
 261.666015625 541.666992188 243.833007812 518 225.5 488 c 0
 207.166992188 458 193.666992188 431.333007812 185 408 c 1
 210.333007812 432.666992188 239.666015625 451 272.999023438 463 c 0
 306.33203125 475 341.999023438 481 379.999023438 481 c 0
 408.666015625 481 433.166015625 476.666992188 453.499023438 468 c 0
 473.83203125 459.333007812 489.999023438 445.666015625 501.999023438 426.999023438 c 0
 513.999023438 408.33203125 520.83203125 383.83203125 522.499023438 353.499023438 c 0
 522.751953125 348.90234375 522.877929688 344.178710938 522.877929688 339.330078125 c 0
 522.877929688 312.178710938 518.918945312 281.069335938 511 246 c 0
144.999023438 230.002929688 m 0
 143.498046875 218.997070312 142.74609375 207.899414062 142.74609375 196.708007812 c 0
 142.74609375 192.984375 142.830078125 189.250976562 142.99609375 185.506835938 c 0
 143.663085938 170.506835938 146.330078125 155.33984375 150.997070312 140.006835938 c 0
 155.6640625 124.673828125 161.831054688 111.340820312 169.498046875 100.0078125 c 0
 177.165039062 88.6748046875 187.665039062 79.5078125 200.998046875 72.5078125 c 0
 214.331054688 65.5078125 229.331054688 62.0078125 245.998046875 62.0078125 c 0
 268.665039062 62.0078125 292.33203125 70.6748046875 316.999023438 88.0078125 c 0
 341.666015625 105.340820312 362.999023438 127.173828125 380.999023438 153.506835938 c 0
 398.999023438 179.83984375 410.999023438 206.672851562 416.999023438 234.005859375 c 0
 424.013671875 263.977539062 427.520507812 289.375 427.520507812 310.196289062 c 0
 427.520507812 333.04296875 423.297851562 350.248046875 414.999023438 362.00390625 c 0
 406.999023438 373.336914062 396.666015625 381.336914062 383.999023438 386.00390625 c 0
 371.33203125 390.670898438 354.999023438 393.00390625 334.999023438 393.00390625 c 0
 303.666015625 393.00390625 272.499023438 384.336914062 241.499023438 367.00390625 c 0
 210.499023438 349.670898438 183.33203125 327.670898438 159.999023438 301.00390625 c 1
 152.666015625 272.336914062 147.666015625 248.669921875 144.999023438 230.002929688 c 0
EndSplineSet
Validated: 524289
EndChar

StartChar: seven
Encoding: 55 55 34
Width: 593
GlyphClass: 2
Flags: HMW
HStem: 622.497 90.5
LayerCount: 2
Fore
SplineSet
113 26 m 0
 101.666992188 8.6669921875 89.162109375 -4.3359375 75.4951171875 -13.0029296875 c 0
 65.0439453125 -19.630859375 55.275390625 -22.9443359375 46.189453125 -22.9443359375 c 0
 43.3935546875 -22.9443359375 40.662109375 -22.630859375 37.9951171875 -22.0029296875 c 0
 25.328125 -18.669921875 17.828125 -10.669921875 15.4951171875 1.9970703125 c 0
 15.0537109375 4.3935546875 14.8330078125 6.837890625 14.8330078125 9.3291015625 c 0
 14.8330078125 20.0087890625 18.88671875 31.564453125 26.9951171875 43.9970703125 c 0
 74.328125 112.6640625 123.995117188 180.997070312 175.995117188 248.997070312 c 0
 227.995117188 316.997070312 270.495117188 371.1640625 303.495117188 411.497070312 c 0
 336.495117188 451.830078125 367.495117188 490.997070312 396.495117188 528.997070312 c 0
 425.495117188 566.997070312 446.328125 597.997070312 458.995117188 621.997070312 c 1
 429.903320312 623.087890625 399.622070312 623.633789062 368.149414062 623.633789062 c 0
 341.924804688 623.633789062 314.874023438 623.254882812 286.99609375 622.497070312 c 0
 225.663085938 620.830078125 184.99609375 617.330078125 164.99609375 611.997070312 c 0
 156.99609375 609.997070312 150.49609375 610.330078125 145.49609375 612.997070312 c 0
 140.49609375 615.6640625 136.829101562 619.6640625 134.49609375 624.997070312 c 0
 132.163085938 630.330078125 130.830078125 635.997070312 130.497070312 641.997070312 c 0
 130.1640625 647.997070312 130.331054688 653.997070312 130.998046875 659.997070312 c 0
 133.665039062 671.997070312 138.665039062 681.497070312 145.998046875 688.497070312 c 0
 153.331054688 695.497070312 164.998046875 700.6640625 180.998046875 703.997070312 c 0
 204.998046875 708.6640625 237.331054688 711.6640625 277.998046875 712.997070312 c 0
 298.33203125 713.6640625 317.83203125 713.997070312 336.498046875 713.997070312 c 0
 355.165039062 713.997070312 372.998046875 713.663085938 389.998046875 712.997070312 c 0
 423.998046875 711.6640625 457.165039062 710.331054688 489.498046875 708.998046875 c 0
 521.831054688 707.665039062 539.331054688 706.998046875 541.998046875 706.998046875 c 0
 548.665039062 706.998046875 554.665039062 705.498046875 559.998046875 702.498046875 c 0
 565.331054688 699.498046875 569.998046875 694.665039062 573.998046875 687.998046875 c 0
 577.998046875 681.331054688 578.831054688 672.6640625 576.498046875 661.997070312 c 0
 574.165039062 651.330078125 568.33203125 638.997070312 558.999023438 624.997070312 c 0
 545.666015625 604.997070312 522.999023438 574.830078125 490.999023438 534.497070312 c 0
 458.999023438 494.1640625 425.83203125 452.831054688 391.499023438 410.498046875 c 0
 357.166015625 368.165039062 314.333007812 311.83203125 263 241.499023438 c 0
 211.666992188 171.166015625 161.666992188 99.3330078125 113 26 c 0
EndSplineSet
Validated: 524289
EndChar

StartChar: eight
Encoding: 56 56 35
Width: 593
GlyphClass: 2
Flags: HMW
HStem: -27.9922 85.9971<226.667 231.333> 646.004 72.001<379.333 384.333>
VStem: 424.5 90.501
LayerCount: 2
Fore
SplineSet
510 204 m 0
 505.333007812 182.666992188 497.83203125 161.338867188 487.499023438 140.005859375 c 0
 477.166015625 118.672851562 463.499023438 97.83984375 446.499023438 77.5068359375 c 0
 429.499023438 57.173828125 410.166015625 39.3408203125 388.499023438 24.0078125 c 0
 366.83203125 8.6748046875 340.999023438 -3.8251953125 310.999023438 -13.4921875 c 0
 280.999023438 -23.1591796875 248.666015625 -27.9921875 213.999023438 -27.9921875 c 0
 182.666015625 -27.9921875 155.499023438 -23.3251953125 132.499023438 -13.9921875 c 0
 109.499023438 -4.6591796875 91.83203125 7.173828125 79.4990234375 21.5068359375 c 0
 67.166015625 35.83984375 57.8330078125 53.0068359375 51.5 73.0068359375 c 0
 45.4833984375 92.0078125 42.474609375 111.159179688 42.474609375 130.4609375 c 0
 42.474609375 141.575195312 43.3037109375 165.397460938 50 196.005859375 c 0
 55.3330078125 218.672851562 66.3330078125 243.005859375 83 269.005859375 c 0
 99.6669921875 295.005859375 120.666992188 319.005859375 146 341.005859375 c 0
 171.333007812 363.005859375 197.333007812 378.338867188 224 387.005859375 c 1
 194.666992188 403.672851562 174 425.505859375 162 452.505859375 c 0
 154.286132812 469.86328125 150.428710938 487.426757812 150.428710938 505.197265625 c 0
 150.428710938 515.069335938 151.619140625 525.005859375 154 535.005859375 c 0
 156 543.005859375 158.5 551.505859375 161.5 560.505859375 c 0
 164.5 569.505859375 169.333007812 580.172851562 176 592.505859375 c 0
 182.666992188 604.838867188 190.166992188 616.671875 198.5 628.004882812 c 0
 206.833007812 639.337890625 217.333007812 650.504882812 230 661.504882812 c 0
 242.666992188 672.504882812 256.5 682.171875 271.5 690.504882812 c 0
 286.5 698.837890625 304.333007812 705.504882812 325 710.504882812 c 0
 345.666992188 715.504882812 367.666992188 718.004882812 391 718.004882812 c 0
 415 718.004882812 436.166992188 715.504882812 454.5 710.504882812 c 0
 472.833007812 705.504882812 487.833007812 698.837890625 499.5 690.504882812 c 0
 511.166992188 682.171875 520.666992188 672.504882812 528 661.504882812 c 0
 535.333007812 650.504882812 540.666015625 639.337890625 543.999023438 628.004882812 c 0
 547.33203125 616.671875 549.33203125 604.671875 549.999023438 592.004882812 c 0
 550.265625 586.938476562 550.399414062 582.112304688 550.399414062 577.525390625 c 0
 550.399414062 570.64453125 550.098632812 564.3046875 549.499023438 558.50390625 c 0
 548.499023438 548.836914062 546.999023438 539.669921875 544.999023438 531.002929688 c 0
 542.999023438 523.002929688 540.166015625 515.002929688 536.499023438 507.002929688 c 0
 532.83203125 499.002929688 528.83203125 492.002929688 524.499023438 486.002929688 c 0
 520.166015625 480.002929688 514.666015625 473.669921875 507.999023438 467.002929688 c 0
 501.33203125 460.3359375 495.33203125 454.668945312 489.999023438 450.001953125 c 0
 484.666015625 445.334960938 477.833007812 440.001953125 469.5 434.001953125 c 0
 461.166992188 428.001953125 454.5 423.501953125 449.5 420.501953125 c 0
 444.5 417.501953125 437.833007812 413.334960938 429.5 408.001953125 c 0
 421.166992188 402.668945312 415.333984375 399.001953125 412.000976562 397.001953125 c 1
 432.66796875 386.334960938 450.16796875 374.334960938 464.500976562 361.001953125 c 0
 478.833984375 347.668945312 489.500976562 334.501953125 496.500976562 321.501953125 c 0
 503.500976562 308.501953125 508.500976562 294.668945312 511.500976562 280.001953125 c 0
 513.955078125 268.001953125 515.182617188 257.006835938 515.182617188 247.014648438 c 0
 515.182617188 244.793945312 515.122070312 242.623046875 515.000976562 240.500976562 c 0
 514.333984375 228.833984375 512.666992188 216.666992188 510 204 c 0
241.999023438 538.004882812 m 0
 240.600585938 532.235351562 239.901367188 526.637695312 239.901367188 521.211914062 c 0
 239.901367188 505.94921875 245.434570312 492.046875 256.500976562 479.504882812 c 0
 271.500976562 462.504882812 299.000976562 445.337890625 339.000976562 428.004882812 c 1
 367.66796875 439.337890625 394.16796875 454.670898438 418.500976562 474.00390625 c 0
 442.833984375 493.336914062 456.666992188 511.336914062 460 528.00390625 c 0
 461.713867188 536.00390625 462.571289062 543.942382812 462.571289062 551.819335938 c 0
 462.571289062 562.323242188 461.047851562 572.717773438 458 583.00390625 c 0
 452.666992188 601.00390625 442.5 616.00390625 427.5 628.00390625 c 0
 412.5 640.00390625 394.666992188 646.00390625 374 646.00390625 c 0
 345.333007812 646.00390625 317.666015625 634.836914062 290.999023438 612.50390625 c 0
 264.33203125 590.170898438 247.999023438 565.337890625 241.999023438 538.004882812 c 0
238.000976562 58.0048828125 m 0
 256.000976562 58.0048828125 274.666992188 60.8330078125 294 66.5 c 0
 313.333007812 72.1669921875 331.5 80.333984375 348.5 91.0009765625 c 0
 365.5 101.66796875 380.5 115.66796875 393.5 133.000976562 c 0
 406.5 150.333984375 415.333007812 168.666992188 420 188 c 0
 421.750976562 195.001953125 424.549804688 208.245117188 424.549804688 221.444335938 c 0
 424.549804688 230.415039062 423.200195312 240.600585938 420.5 252.001953125 c 0
 417.5 264.668945312 412.333007812 276.3359375 405 287.002929688 c 0
 397.666992188 297.669921875 386.666992188 308.836914062 372 320.50390625 c 0
 357.333007812 332.170898438 339 342.670898438 317 352.00390625 c 1
 269 339.336914062 227.666992188 317.336914062 193 286.00390625 c 0
 158.333007812 254.670898438 136.666015625 221.337890625 127.999023438 186.004882812 c 0
 125.701171875 176.557617188 124.551757812 167.453125 124.551757812 158.690429688 c 0
 124.551757812 144.573242188 127.534179688 131.344726562 133.499023438 119.004882812 c 0
 143.166015625 99.0048828125 157.333007812 83.837890625 176 73.5048828125 c 0
 194.666992188 63.171875 215.333984375 58.0048828125 238.000976562 58.0048828125 c 0
EndSplineSet
Validated: 524289
EndChar

StartChar: nine
Encoding: 57 57 36
Width: 593
GlyphClass: 2
Flags: HMW
HStem: -22 79.9961<98 98> 234.998 89<224.333 295.667> 654.995 84.0049<363.667 367.331>
LayerCount: 2
Fore
SplineSet
98 -22 m 0
 95.2041015625 -22.25390625 92.5048828125 -22.380859375 89.90234375 -22.380859375 c 0
 78.853515625 -22.380859375 69.55078125 -20.0908203125 61.9970703125 -15.50390625 c 0
 53.830078125 -10.544921875 49.7470703125 -2.90625 49.7470703125 7.412109375 c 0
 49.7470703125 14.451171875 50.5458984375 24.6025390625 66.998046875 38.9970703125 c 0
 77.6650390625 48.330078125 88.33203125 54.6630859375 98.9990234375 57.99609375 c 0
 106.33203125 59.99609375 117.999023438 62.6630859375 133.999023438 65.99609375 c 0
 149.999023438 69.3291015625 164.499023438 72.8291015625 177.499023438 76.49609375 c 0
 190.499023438 80.1630859375 205.33203125 84.99609375 221.999023438 90.99609375 c 0
 238.666015625 96.99609375 255.166015625 105.329101562 271.499023438 115.99609375 c 0
 287.83203125 126.663085938 303.999023438 139.330078125 319.999023438 153.997070312 c 0
 339.999023438 173.330078125 358.999023438 195.830078125 376.999023438 221.497070312 c 0
 394.999023438 247.1640625 408.33203125 270.331054688 416.999023438 290.998046875 c 1
 394.999023438 269.665039062 369.666015625 254.998046875 340.999023438 246.998046875 c 0
 312.33203125 238.998046875 277.999023438 234.998046875 237.999023438 234.998046875 c 0
 210.666015625 234.998046875 186.166015625 241.831054688 164.499023438 255.498046875 c 0
 142.83203125 269.165039062 125.999023438 287.33203125 113.999023438 309.999023438 c 0
 101.999023438 332.666015625 94.33203125 358.833007812 90.9990234375 388.5 c 0
 89.8876953125 398.387695312 89.3330078125 408.33203125 89.3330078125 418.331054688 c 0
 89.3330078125 438.33203125 91.5546875 458.555664062 96 479.000976562 c 0
 104.666992188 516.333984375 118.5 551.166992188 137.5 583.5 c 0
 156.5 615.833007812 178.5 643.333007812 203.5 666 c 0
 228.5 688.666992188 256.333007812 706.5 287 719.5 c 0
 317.666992188 732.5 348.333984375 739 379.000976562 739 c 0
 455.000976562 739 504.500976562 708 527.500976562 646 c 0
 537.873046875 618.0390625 543.059570312 584.586914062 543.059570312 545.643554688 c 0
 543.059570312 498.234375 535.373046875 442.686523438 520.000976562 379 c 0
 507.333984375 325.666992188 490.166992188 277.5 468.5 234.5 c 0
 446.833007812 191.5 422.666015625 155 395.999023438 125 c 0
 369.33203125 95 339.499023438 69.3330078125 306.499023438 48 c 0
 273.499023438 26.6669921875 239.83203125 10.5 205.499023438 -0.5 c 0
 171.166015625 -11.5 135.333007812 -18.6669921875 98 -22 c 0
189.997070312 490.995117188 m 0
 184.267578125 466.268554688 181.403320312 444.237304688 181.403320312 424.8984375 c 0
 181.403320312 401.482421875 185.603515625 382.015625 194.000976562 366.498046875 c 0
 209.333984375 338.165039062 238.666992188 323.998046875 282 323.998046875 c 0
 309.333007812 323.998046875 337.666015625 330.665039062 366.999023438 343.998046875 c 0
 396.33203125 357.331054688 421.33203125 375.6640625 441.999023438 398.997070312 c 1
 447.33203125 418.330078125 453.33203125 447.663085938 459.999023438 486.99609375 c 0
 461.499023438 497.99609375 462.249023438 509.088867188 462.249023438 520.276367188 c 0
 462.249023438 524.005859375 462.166015625 527.74609375 461.999023438 531.49609375 c 0
 461.33203125 546.49609375 458.665039062 561.663085938 453.998046875 576.99609375 c 0
 449.331054688 592.329101562 443.1640625 605.662109375 435.497070312 616.995117188 c 0
 427.830078125 628.328125 417.330078125 637.495117188 403.997070312 644.495117188 c 0
 390.6640625 651.495117188 375.6640625 654.995117188 358.997070312 654.995117188 c 0
 335.6640625 654.995117188 312.1640625 646.995117188 288.497070312 630.995117188 c 0
 264.830078125 614.995117188 243.997070312 594.495117188 225.997070312 569.495117188 c 0
 207.997070312 544.495117188 195.997070312 518.328125 189.997070312 490.995117188 c 0
EndSplineSet
Validated: 524289
EndChar

StartChar: colon
Encoding: 58 58 37
Width: 593
GlyphClass: 2
Flags: HMW
VStem: 200.004 192.996
LayerCount: 2
Fore
SplineSet
393 417 m 0
 389.666992188 395 382.00390625 371.6640625 370.00390625 346.997070312 c 0
 364.00390625 333.6640625 355.00390625 323.497070312 343.00390625 316.497070312 c 0
 332.047851562 310.106445312 321.924804688 306.91015625 312.635742188 306.91015625 c 0
 311.750976562 306.91015625 310.874023438 306.939453125 310.00390625 306.997070312 c 0
 276.943359375 308.80078125 260.4140625 321.442382812 260.4140625 344.924804688 c 0
 260.4140625 347.486328125 260.610351562 350.177734375 261.00390625 352.997070312 c 0
 263.670898438 370.997070312 268.337890625 393.997070312 275.004882812 421.997070312 c 0
 277.004882812 430.6640625 281.004882812 437.831054688 287.004882812 443.498046875 c 0
 293.004882812 449.165039062 299.671875 453.33203125 307.004882812 455.999023438 c 0
 314.337890625 458.666015625 321.170898438 460.333007812 327.50390625 461 c 0
 333.836914062 461.666992188 340.336914062 462 347.00390625 462 c 0
 352.336914062 462 357.669921875 461.333007812 363.002929688 460 c 0
 368.3359375 458.666992188 373.668945312 456.5 379.001953125 453.5 c 0
 384.334960938 450.5 388.16796875 445.833007812 390.500976562 439.5 c 0
 392.833984375 433.166992188 393.666992188 425.666992188 393 417 c 0
332.00390625 149.997070312 m 0
 330.670898438 126.6640625 324.004882812 102.66015625 312.004882812 77.9931640625 c 0
 306.004882812 64.66015625 296.004882812 54.8271484375 282.004882812 48.494140625 c 0
 269.338867188 42.7646484375 258.037109375 39.8994140625 248.099609375 39.8994140625 c 0
 247.052734375 39.8994140625 246.021484375 39.931640625 245.004882812 39.9951171875 c 0
 232.337890625 40.662109375 221.170898438 44.8291015625 211.50390625 52.49609375 c 0
 203.494140625 58.8486328125 199.489257812 67.375 199.489257812 78.0751953125 c 0
 199.489257812 80.2890625 199.661132812 82.595703125 200.00390625 84.99609375 c 0
 202.670898438 98.99609375 204.337890625 107.829101562 205.004882812 111.49609375 c 0
 205.671875 115.163085938 207.504882812 121.99609375 210.504882812 131.99609375 c 0
 213.504882812 141.99609375 215.671875 149.663085938 217.004882812 154.99609375 c 0
 219.004882812 162.99609375 222.837890625 169.99609375 228.504882812 175.99609375 c 0
 234.171875 181.99609375 240.504882812 186.163085938 247.504882812 188.49609375 c 0
 254.504882812 190.829101562 261.171875 192.49609375 267.504882812 193.49609375 c 0
 273.837890625 194.49609375 280.004882812 194.99609375 286.004882812 194.99609375 c 0
 293.337890625 194.99609375 300.337890625 193.829101562 307.004882812 191.49609375 c 0
 313.671875 189.163085938 319.671875 184.330078125 325.004882812 176.997070312 c 0
 330.337890625 169.6640625 332.670898438 160.6640625 332.00390625 149.997070312 c 0
EndSplineSet
Validated: 524289
EndChar

StartChar: semicolon
Encoding: 59 59 38
Width: 593
GlyphClass: 2
Flags: HMW
VStem: 147.006 300.994
LayerCount: 2
Fore
SplineSet
448 375 m 0
 444.666992188 353 436.671875 329.666015625 424.004882812 304.999023438 c 0
 418.004882812 291.666015625 409.004882812 281.499023438 397.004882812 274.499023438 c 0
 386.048828125 268.108398438 376.204101562 264.912109375 367.470703125 264.912109375 c 0
 366.638671875 264.912109375 365.81640625 264.94140625 365.004882812 264.999023438 c 0
 357.004882812 265.666015625 349.171875 267.499023438 341.504882812 270.499023438 c 0
 333.837890625 273.499023438 327.170898438 278.666015625 321.50390625 285.999023438 c 0
 315.836914062 293.33203125 313.669921875 301.999023438 315.002929688 311.999023438 c 0
 317.669921875 329.999023438 323.002929688 352.999023438 331.002929688 380.999023438 c 0
 333.002929688 388.999023438 336.8359375 395.999023438 342.502929688 401.999023438 c 0
 348.169921875 407.999023438 354.669921875 412.166015625 362.002929688 414.499023438 c 0
 369.3359375 416.83203125 376.3359375 418.499023438 383.002929688 419.499023438 c 0
 389.669921875 420.499023438 395.669921875 420.666015625 401.002929688 419.999023438 c 0
 407.002929688 419.999023438 412.669921875 419.499023438 418.002929688 418.499023438 c 0
 423.3359375 417.499023438 428.668945312 415.33203125 434.001953125 411.999023438 c 0
 439.334960938 408.666015625 443.16796875 403.833007812 445.500976562 397.5 c 0
 447.833984375 391.166992188 448.666992188 383.666992188 448 375 c 0
360.004882812 73.9990234375 m 0
 353.337890625 52.666015625 313.005859375 -34.3349609375 239.005859375 -187.001953125 c 0
 232.338867188 -201.001953125 223.838867188 -211.168945312 213.505859375 -217.501953125 c 0
 204.157226562 -223.231445312 194.9453125 -226.096679688 185.869140625 -226.096679688 c 0
 184.913085938 -226.096679688 183.958984375 -226.064453125 183.005859375 -226.000976562 c 0
 170.338867188 -225.333984375 160.005859375 -221.000976562 152.005859375 -213.000976562 c 0
 146.953125 -207.948242188 144.426757812 -201.69921875 144.426757812 -194.252929688 c 0
 144.426757812 -189.909179688 145.286132812 -185.159179688 147.005859375 -180.000976562 c 0
 151.672851562 -164.000976562 167.172851562 -125.000976562 193.505859375 -63.0009765625 c 0
 219.838867188 -1.0009765625 240.338867188 46.33203125 255.005859375 78.9990234375 c 0
 259.672851562 88.9990234375 264.505859375 96.9990234375 269.505859375 102.999023438 c 0
 274.505859375 108.999023438 279.338867188 112.999023438 284.005859375 114.999023438 c 0
 288.672851562 116.999023438 293.672851562 118.33203125 299.005859375 118.999023438 c 0
 304.338867188 119.666015625 309.005859375 119.666015625 313.005859375 118.999023438 c 0
 319.005859375 118.999023438 325.005859375 118.166015625 331.005859375 116.499023438 c 0
 337.005859375 114.83203125 342.838867188 112.499023438 348.505859375 109.499023438 c 0
 354.172851562 106.499023438 358.172851562 101.999023438 360.505859375 95.9990234375 c 0
 362.838867188 89.9990234375 362.671875 82.666015625 360.004882812 73.9990234375 c 0
EndSplineSet
Validated: 524289
EndChar

StartChar: less
Encoding: 60 60 39
Width: 593
GlyphClass: 2
Flags: W
HStem: -12.3984 21G<357.175 362.908>
LayerCount: 2
Fore
SplineSet
413 14 m 0
 408.333007812 7.3330078125 402.500976562 1.66796875 395.500976562 -2.9990234375 c 0
 388.500976562 -7.666015625 379.500976562 -10.666015625 368.500976562 -11.9990234375 c 0
 366.301757812 -12.265625 364.0546875 -12.3984375 361.76171875 -12.3984375 c 0
 352.587890625 -12.3984375 342.66796875 -10.265625 332.000976562 -5.9990234375 c 0
 318.000976562 -0.666015625 301.66796875 11.0009765625 283.000976562 29.0009765625 c 0
 264.333984375 47.0009765625 244.666992188 68.5009765625 224 93.5009765625 c 0
 203.333007812 118.500976562 183 144.000976562 163 170.000976562 c 0
 143 196.000976562 121.833007812 222.833984375 99.5 250.500976562 c 0
 77.1669921875 278.16796875 57.6669921875 299.66796875 41 315.000976562 c 0
 34.3330078125 321.000976562 31 330.000976562 31 342.000976562 c 0
 31 354.000976562 33.8330078125 365.500976562 39.5 376.500976562 c 0
 45.1669921875 387.500976562 52.333984375 395.333984375 61.0009765625 400.000976562 c 0
 102.333984375 428.000976562 151.833984375 463.16796875 209.500976562 505.500976562 c 0
 267.16796875 547.833984375 319.66796875 586.166992188 367.000976562 620.5 c 0
 414.333984375 654.833007812 455.666992188 682 491 702 c 0
 502.333007812 708.666992188 512.333007812 712.166992188 521 712.5 c 0
 529.666992188 712.833007812 536.666992188 711.166015625 542 707.499023438 c 0
 547.333007812 703.83203125 551.5 699.33203125 554.5 693.999023438 c 0
 557.5 688.666015625 559.666992188 682.999023438 561 676.999023438 c 0
 561.592773438 674.48046875 561.888671875 671.953125 561.888671875 669.41796875 c 0
 561.888671875 660.545898438 558.259765625 651.573242188 551.000976562 642.499023438 c 0
 541.66796875 630.83203125 524.66796875 616.999023438 500.000976562 600.999023438 c 0
 459.333984375 574.999023438 396.666992188 532.33203125 312 472.999023438 c 0
 227.333007812 413.666015625 173.666015625 375.999023438 150.999023438 359.999023438 c 1
 170.33203125 339.999023438 191.499023438 315.83203125 214.499023438 287.499023438 c 0
 237.499023438 259.166015625 257.499023438 233.499023438 274.499023438 210.499023438 c 0
 291.499023438 187.499023438 310.33203125 163.999023438 330.999023438 139.999023438 c 0
 351.666015625 115.999023438 370.333007812 96.9990234375 387 82.9990234375 c 0
 403.666992188 68.9990234375 414 56.83203125 418 46.4990234375 c 0
 419.412109375 42.8525390625 420.1171875 39.142578125 420.1171875 35.3720703125 c 0
 420.1171875 28.45703125 417.745117188 21.3330078125 413 14 c 0
EndSplineSet
Validated: 524289
EndChar

StartChar: equal
Encoding: 61 61 40
Width: 593
GlyphClass: 2
Flags: HMW
HStem: 246.996 83<123.332 151.999> 442.999 85.001
LayerCount: 2
Fore
SplineSet
195 528 m 0
 230.333007812 526.666992188 266.499023438 525.99609375 303.499023438 525.99609375 c 0
 340.499023438 525.99609375 375.33203125 526.329101562 407.999023438 526.99609375 c 0
 440.666015625 527.663085938 460.333007812 527.99609375 467 527.99609375 c 0
 481.666992188 527.99609375 491 524.663085938 495 517.99609375 c 0
 499 511.329101562 500 502.329101562 498 490.99609375 c 0
 496.666992188 484.99609375 495 479.49609375 493 474.49609375 c 0
 491 469.49609375 488 464.663085938 484 459.99609375 c 0
 480 455.329101562 475 451.829101562 469 449.49609375 c 0
 463 447.163085938 456.333007812 446.330078125 449 446.997070312 c 0
 434.326171875 447.442382812 418.985351562 447.6640625 402.9765625 447.6640625 c 0
 394.984375 447.6640625 386.825195312 447.609375 378.5 447.498046875 c 0
 353.5 447.165039062 319.166992188 446.33203125 275.5 444.999023438 c 0
 231.833007812 443.666015625 200 442.999023438 180 442.999023438 c 0
 164.666992188 442.999023438 153.5 446.999023438 146.5 454.999023438 c 0
 139.5 462.999023438 137.333007812 472.666015625 140 483.999023438 c 0
 142 496.666015625 147.833007812 507.333007812 157.5 516 c 0
 166.4765625 524.047851562 177.89453125 528.071289062 191.756835938 528.071289062 c 0
 192.823242188 528.071289062 193.904296875 528.047851562 195 528 c 0
151.999023438 329.99609375 m 0
 168.25 329.7734375 185.430664062 329.662109375 203.541015625 329.662109375 c 0
 239.663085938 329.662109375 279.481445312 330.10546875 322.998046875 330.993164062 c 0
 388.331054688 332.326171875 421.331054688 332.993164062 421.998046875 332.993164062 c 0
 436.665039062 332.993164062 445.998046875 329.493164062 449.998046875 322.493164062 c 0
 453.998046875 315.493164062 454.998046875 306.326171875 452.998046875 294.993164062 c 0
 451.665039062 288.993164062 449.83203125 283.493164062 447.499023438 278.493164062 c 0
 445.166015625 273.493164062 442.166015625 268.66015625 438.499023438 263.993164062 c 0
 434.83203125 259.326171875 429.999023438 255.826171875 423.999023438 253.493164062 c 0
 417.999023438 251.16015625 411.33203125 250.327148438 403.999023438 250.994140625 c 0
 389.325195312 251.439453125 373.8359375 251.661132812 357.53125 251.661132812 c 0
 349.390625 251.661132812 341.045898438 251.606445312 332.499023438 251.495117188 c 0
 306.83203125 251.162109375 271.83203125 250.329101562 227.499023438 248.99609375 c 0
 183.166015625 247.663085938 150.999023438 246.99609375 130.999023438 246.99609375 c 0
 115.666015625 246.99609375 105.166015625 251.163085938 99.4990234375 259.49609375 c 0
 95.6455078125 265.162109375 93.71875 271.676757812 93.71875 279.0390625 c 0
 93.71875 282.50390625 94.1455078125 286.15625 94.9990234375 289.99609375 c 0
 96.9990234375 301.329101562 102.999023438 310.829101562 112.999023438 318.49609375 c 0
 122.999023438 326.163085938 135.999023438 329.99609375 151.999023438 329.99609375 c 0
EndSplineSet
Validated: 524289
EndChar

StartChar: greater
Encoding: 62 62 41
Width: 593
GlyphClass: 2
Flags: W
LayerCount: 2
Fore
SplineSet
102 5 m 0
 91.3330078125 -1 81.4990234375 -4.333984375 72.4990234375 -5.0009765625 c 0
 63.4990234375 -5.66796875 56.33203125 -4.16796875 50.9990234375 -0.5009765625 c 0
 45.666015625 3.166015625 41.4990234375 7.666015625 38.4990234375 12.9990234375 c 0
 35.4990234375 18.33203125 33.33203125 23.9990234375 31.9990234375 29.9990234375 c 0
 31.40625 32.517578125 31.1103515625 35.044921875 31.1103515625 37.580078125 c 0
 31.1103515625 46.4521484375 34.7392578125 55.4248046875 41.998046875 64.4990234375 c 0
 51.3310546875 76.166015625 68.6640625 89.9990234375 93.9970703125 105.999023438 c 0
 134.6640625 131.999023438 197.1640625 174.666015625 281.497070312 233.999023438 c 0
 365.830078125 293.33203125 419.663085938 330.999023438 442.99609375 346.999023438 c 1
 423.663085938 366.999023438 402.330078125 391.166015625 378.997070312 419.499023438 c 0
 355.6640625 447.83203125 335.331054688 473.499023438 317.998046875 496.499023438 c 0
 300.665039062 519.499023438 281.83203125 542.999023438 261.499023438 566.999023438 c 0
 241.166015625 590.999023438 222.666015625 609.999023438 205.999023438 623.999023438 c 0
 189.33203125 637.999023438 178.999023438 650.166015625 174.999023438 660.499023438 c 0
 173.586914062 664.145507812 172.881835938 667.85546875 172.881835938 671.625976562 c 0
 172.881835938 678.541015625 175.25390625 685.665039062 179.999023438 692.998046875 c 0
 184.666015625 699.665039062 190.499023438 705.33203125 197.499023438 709.999023438 c 0
 204.499023438 714.666015625 213.499023438 717.666015625 224.499023438 718.999023438 c 0
 226.698242188 719.265625 228.9453125 719.3984375 231.23828125 719.3984375 c 0
 240.412109375 719.3984375 250.33203125 717.265625 260.999023438 712.999023438 c 0
 274.999023438 707.666015625 291.499023438 696.166015625 310.499023438 678.499023438 c 0
 329.499023438 660.83203125 349.166015625 639.33203125 369.499023438 613.999023438 c 0
 389.83203125 588.666015625 409.999023438 562.999023438 429.999023438 536.999023438 c 0
 449.999023438 510.999023438 471.166015625 484.33203125 493.499023438 456.999023438 c 0
 515.83203125 429.666015625 535.665039062 407.999023438 552.998046875 391.999023438 c 0
 558.998046875 385.999023438 561.831054688 376.999023438 561.498046875 364.999023438 c 0
 561.165039062 352.999023438 558.33203125 341.499023438 552.999023438 330.499023438 c 0
 547.666015625 319.499023438 540.666015625 311.666015625 531.999023438 306.999023438 c 0
 490.666015625 278.999023438 441.166015625 243.83203125 383.499023438 201.499023438 c 0
 325.83203125 159.166015625 273.33203125 120.833007812 225.999023438 86.5 c 0
 178.666015625 52.1669921875 137.333007812 25 102 5 c 0
EndSplineSet
Validated: 524289
EndChar

StartChar: question
Encoding: 63 63 42
Width: 593
GlyphClass: 2
Flags: HMW
HStem: -14.0039 153.998 637.999 84.001<321.667 334.331>
VStem: 96.001 151 171.999 95.001
LayerCount: 2
Fore
SplineSet
267 262 m 0xd0
 260.333007812 244.666992188 251.499023438 231.330078125 240.499023438 221.997070312 c 0
 233.166015625 215.775390625 224.721679688 212.6640625 215.166992188 212.6640625 c 0
 210.388671875 212.6640625 205.333007812 213.442382812 199.999023438 214.998046875 c 0
 183.999023438 219.665039062 174.666015625 228.33203125 171.999023438 240.999023438 c 0
 171.4375 243.666015625 171.157226562 246.524414062 171.157226562 249.576171875 c 0
 171.157226562 261.016601562 175.104492188 275.157226562 182.999023438 291.999023438 c 0
 191.666015625 309.999023438 201.999023438 326.999023438 213.999023438 342.999023438 c 0
 225.999023438 358.999023438 238.166015625 372.666015625 250.499023438 383.999023438 c 0
 262.83203125 395.33203125 275.665039062 406.165039062 288.998046875 416.498046875 c 0
 302.331054688 426.831054688 314.998046875 436.498046875 326.998046875 445.498046875 c 0
 338.998046875 454.498046875 350.165039062 463.665039062 360.498046875 472.998046875 c 0
 370.831054688 482.331054688 379.6640625 492.498046875 386.997070312 503.498046875 c 0
 394.330078125 514.498046875 399.330078125 526.331054688 401.997070312 538.998046875 c 0
 404.779296875 551.055664062 406.170898438 561.96484375 406.170898438 571.724609375 c 0
 406.170898438 590.0234375 401.279296875 604.28125 391.497070312 614.499023438 c 0
 376.497070312 630.166015625 351.6640625 637.999023438 316.997070312 637.999023438 c 0
 308.330078125 637.999023438 298.997070312 635.83203125 288.997070312 631.499023438 c 0
 278.997070312 627.166015625 270.330078125 622.333007812 262.997070312 617 c 0
 255.6640625 611.666992188 247.1640625 604.5 237.497070312 595.5 c 0
 227.830078125 586.5 220.330078125 578.833007812 214.997070312 572.5 c 0
 209.6640625 566.166992188 203.331054688 558.666992188 195.998046875 550 c 0
 188.665039062 541.333007812 181.83203125 534.5 175.499023438 529.5 c 0
 169.166015625 524.5 163.333007812 521.833007812 158 521.5 c 0
 152.666992188 521.166992188 147.833984375 521.5 143.500976562 522.5 c 0
 139.16796875 523.5 133.66796875 525.666992188 127.000976562 529 c 0
 117.66796875 535 113.16796875 543.666992188 113.500976562 555 c 0
 113.833984375 566.333007812 120.000976562 581 132.000976562 599 c 0
 142.000976562 613 153.333984375 626.5 166.000976562 639.5 c 0
 178.66796875 652.5 193.66796875 665.5 211.000976562 678.5 c 0
 228.333984375 691.5 247.666992188 702 269 710 c 0
 290.333007812 718 311.333007812 722 332 722 c 0
 399.333007812 722 446.5 705.333007812 473.5 672 c 0
 490.720703125 650.740234375 499.330078125 622.701171875 499.330078125 587.881835938 c 0
 499.330078125 568.107421875 496.553710938 546.147460938 491 522 c 0
 487 504 480.5 487.666992188 471.5 473 c 0
 462.5 458.333007812 452.5 445.666015625 441.5 434.999023438 c 0
 430.5 424.33203125 418.5 414.33203125 405.5 404.999023438 c 0
 392.5 395.666015625 379.333007812 386.333007812 366 377 c 0
 352.666992188 367.666992188 339.833984375 358 327.500976562 348 c 0
 315.16796875 338 303.66796875 325.5 293.000976562 310.5 c 0
 282.333984375 295.5 273.666992188 279.333007812 267 262 c 0xd0
155.999023438 -14.00390625 m 0
 152.62890625 -14.3779296875 149.390625 -14.5654296875 146.284179688 -14.5654296875 c 0
 127.263671875 -14.5654296875 113.170898438 -7.5478515625 104.001953125 6.4921875 c 0
 96.890625 17.380859375 93.3349609375 29.5302734375 93.3349609375 42.9375 c 0
 93.3349609375 49.6416015625 94.2236328125 56.6591796875 96.0009765625 63.9921875 c 0
 100.66796875 84.6591796875 112.66796875 102.326171875 132.000976562 116.993164062 c 0
 151.333984375 131.66015625 171.000976562 139.327148438 191.000976562 139.994140625 c 0
 191.979492188 140.0234375 192.946289062 140.0390625 193.901367188 140.0390625 c 0
 214.426757812 140.0390625 229.626953125 133.190429688 239.500976562 119.495117188 c 0
 246.31640625 110.041015625 249.724609375 98.919921875 249.724609375 86.1298828125 c 0
 249.724609375 79.529296875 248.81640625 72.484375 247.000976562 64.9951171875 c 0xe0
 242.333984375 43.662109375 231.666992188 25.8291015625 215 11.49609375 c 0
 198.333007812 -2.8369140625 178.666015625 -11.3369140625 155.999023438 -14.00390625 c 0
EndSplineSet
Validated: 524289
EndChar

StartChar: at
Encoding: 64 64 43
Width: 593
GlyphClass: 2
Flags: HMW
HStem: -129 84.9961<175.673 224.004> 102.002 77.9951<376.673 419.671> 118.002 79.9941<257.671 266.006> 612.994 90.0078<389.337 393.006>
VStem: 25.5039 85.501 342.005 81 492.506 75.499
LayerCount: 2
Fore
SplineSet
423 5 m 0xde
 417.666992188 -4.3330078125 412.340820312 -12.5009765625 407.0078125 -19.5009765625 c 0
 401.674804688 -26.5009765625 395.0078125 -35.16796875 387.0078125 -45.5009765625 c 0
 379.0078125 -55.833984375 370.674804688 -64.6669921875 362.0078125 -72 c 0
 353.340820312 -79.3330078125 343.0078125 -86.8330078125 331.0078125 -94.5 c 0
 319.0078125 -102.166992188 306.340820312 -108.5 293.0078125 -113.5 c 0
 279.674804688 -118.5 264.174804688 -122.5 246.5078125 -125.5 c 0
 232.053710938 -127.954101562 217.264648438 -129.181640625 202.140625 -129.181640625 c 0
 198.779296875 -129.181640625 195.401367188 -129.12109375 192.006835938 -129 c 0
 159.33984375 -129 130.672851562 -120.333007812 106.005859375 -103 c 0
 81.3388671875 -85.6669921875 62.171875 -61.5 48.5048828125 -30.5 c 0
 34.837890625 0.5 27.1708984375 38.1669921875 25.50390625 82.5 c 0
 25.30078125 87.9072265625 25.19921875 93.3759765625 25.19921875 98.9072265625 c 0
 25.19921875 138.725585938 30.4677734375 181.756835938 41.00390625 228 c 0
 55.00390625 286.666992188 72.00390625 341.333984375 92.00390625 392.000976562 c 0
 112.00390625 442.66796875 134.170898438 486.834960938 158.50390625 524.501953125 c 0
 182.836914062 562.168945312 208.50390625 594.501953125 235.50390625 621.501953125 c 0
 262.50390625 648.501953125 290.336914062 668.834960938 319.00390625 682.501953125 c 0
 347.670898438 696.168945312 375.670898438 703.001953125 403.00390625 703.001953125 c 0
 423.670898438 703.001953125 442.170898438 701.168945312 458.50390625 697.501953125 c 0
 474.836914062 693.834960938 490.00390625 687.834960938 504.00390625 679.501953125 c 0
 518.00390625 671.168945312 529.336914062 660.001953125 538.00390625 646.001953125 c 0
 546.670898438 632.001953125 553.837890625 614.501953125 559.504882812 593.501953125 c 0
 565.171875 572.501953125 568.004882812 548.001953125 568.004882812 520.001953125 c 0
 568.004882812 492.001953125 565.337890625 459.001953125 560.004882812 421.001953125 c 0
 554.671875 383.001953125 546.671875 340.334960938 536.004882812 293.001953125 c 0
 530.671875 269.001953125 523.838867188 246.168945312 515.505859375 224.501953125 c 0
 507.172851562 202.834960938 497.33984375 182.501953125 486.006835938 163.501953125 c 0
 474.673828125 144.501953125 461.506835938 129.501953125 446.506835938 118.501953125 c 0
 431.506835938 107.501953125 415.673828125 102.001953125 399.006835938 102.001953125 c 0xde
 360.638671875 102.001953125 341.455078125 122.662109375 341.455078125 163.981445312 c 0
 341.455078125 170.764648438 341.971679688 178.104492188 343.005859375 186.001953125 c 1
 318.338867188 140.668945312 286.005859375 118.001953125 246.005859375 118.001953125 c 0
 209.338867188 118.001953125 183.671875 130.334960938 169.004882812 155.001953125 c 0
 160.938476562 168.568359375 156.904296875 186.068359375 156.904296875 207.5 c 0
 156.904296875 225.03515625 159.604492188 245.202148438 165.004882812 268.002929688 c 0
 171.004882812 293.3359375 179.004882812 316.668945312 189.004882812 338.001953125 c 0
 199.004882812 359.334960938 210.171875 377.501953125 222.504882812 392.501953125 c 0
 234.837890625 407.501953125 248.337890625 420.168945312 263.004882812 430.501953125 c 0
 277.671875 440.834960938 292.504882812 448.16796875 307.504882812 452.500976562 c 0
 320.50390625 456.255859375 333.502929688 458.133789062 346.501953125 458.133789062 c 0
 352.504882812 458 l 0
 367.504882812 457.333007812 381.671875 453.666015625 395.004882812 446.999023438 c 0
 408.337890625 440.999023438 418.004882812 432.999023438 424.004882812 422.999023438 c 0
 430.004882812 412.999023438 430.004882812 403.999023438 424.004882812 395.999023438 c 0
 420.671875 390.666015625 417.004882812 386.333007812 413.004882812 383 c 0
 409.004882812 379.666992188 404.671875 377.333984375 400.004882812 376.000976562 c 0
 395.337890625 374.66796875 391.170898438 373.66796875 387.50390625 373.000976562 c 0
 383.836914062 372.333984375 379.169921875 372.500976562 373.502929688 373.500976562 c 0
 367.8359375 374.500976562 363.502929688 375.333984375 360.502929688 376.000976562 c 0
 357.502929688 376.66796875 353.3359375 378.000976562 348.002929688 380.000976562 c 0
 340.669921875 381.333984375 332.836914062 381.666992188 324.50390625 381 c 0
 316.170898438 380.333007812 307.837890625 377.5 299.504882812 372.5 c 0
 291.171875 367.5 283.171875 361.166992188 275.504882812 353.5 c 0
 267.837890625 345.833007812 260.837890625 335.666015625 254.504882812 322.999023438 c 0
 248.171875 310.33203125 243.004882812 295.999023438 239.004882812 279.999023438 c 0
 237.004882812 271.33203125 235.671875 263.165039062 235.004882812 255.498046875 c 0
 234.337890625 247.831054688 234.170898438 239.1640625 234.50390625 229.497070312 c 0
 234.836914062 219.830078125 237.336914062 212.163085938 242.00390625 206.49609375 c 0
 246.670898438 200.829101562 253.337890625 197.99609375 262.004882812 197.99609375 c 0xbe
 281.337890625 197.99609375 297.004882812 206.163085938 309.004882812 222.49609375 c 0
 321.004882812 238.829101562 332.004882812 265.99609375 342.004882812 303.99609375 c 0
 344.671875 314.663085938 354.671875 323.330078125 372.004882812 329.997070312 c 0
 382.8125 334.2421875 392.278320312 336.365234375 400.404296875 336.365234375 c 0
 406.314453125 336.365234375 411.514648438 335.2421875 416.005859375 332.997070312 c 0
 423.338867188 329.6640625 425.671875 322.997070312 423.004882812 312.997070312 c 0
 411.004882812 277.6640625 403.671875 250.1640625 401.004882812 230.497070312 c 0
 399.671875 220.6640625 399.004882812 212.4140625 399.004882812 205.747070312 c 0
 399.004882812 199.080078125 399.671875 193.997070312 401.004882812 190.497070312 c 0
 403.671875 183.497070312 409.004882812 179.997070312 417.004882812 179.997070312 c 0
 422.337890625 179.997070312 427.837890625 184.330078125 433.504882812 192.997070312 c 0
 439.171875 201.6640625 444.338867188 212.997070312 449.005859375 226.997070312 c 0
 453.672851562 240.997070312 457.505859375 253.330078125 460.505859375 263.997070312 c 0
 463.505859375 274.6640625 466.005859375 284.997070312 468.005859375 294.997070312 c 0
 476.005859375 328.997070312 482.005859375 360.330078125 486.005859375 388.997070312 c 0
 490.005859375 417.6640625 492.172851562 442.1640625 492.505859375 462.497070312 c 0
 492.5390625 464.529296875 492.555664062 466.541015625 492.555664062 468.533203125 c 0
 492.555664062 486.474609375 491.206054688 502.794921875 488.505859375 517.49609375 c 0
 485.505859375 533.829101562 482.172851562 547.162109375 478.505859375 557.495117188 c 0
 474.838867188 567.828125 469.505859375 576.661132812 462.505859375 583.994140625 c 0
 455.505859375 591.327148438 449.172851562 596.827148438 443.505859375 600.494140625 c 0
 437.838867188 604.161132812 431.005859375 606.994140625 423.005859375 608.994140625 c 0
 415.005859375 610.994140625 409.005859375 612.161132812 405.005859375 612.494140625 c 0
 401.005859375 612.827148438 396.005859375 612.994140625 390.005859375 612.994140625 c 0
 365.338867188 612.994140625 340.171875 604.661132812 314.504882812 587.994140625 c 0
 288.837890625 571.327148438 264.504882812 548.16015625 241.504882812 518.493164062 c 0
 218.504882812 488.826171875 197.171875 451.993164062 177.504882812 407.993164062 c 0
 157.837890625 363.993164062 142.004882812 315.993164062 130.004882812 263.993164062 c 0
 119.337890625 218.66015625 113.004882812 177.827148438 111.004882812 141.494140625 c 0
 110.458984375 131.5859375 110.186523438 122.198242188 110.186523438 113.330078125 c 0
 110.186523438 89.6826171875 112.125976562 69.7373046875 116.004882812 53.4951171875 c 0
 121.337890625 31.162109375 129.170898438 12.3291015625 139.50390625 -3.00390625 c 0
 149.836914062 -18.3369140625 161.336914062 -29.00390625 174.00390625 -35.00390625 c 0
 186.670898438 -41.00390625 200.670898438 -44.00390625 216.00390625 -44.00390625 c 0
 232.00390625 -44.00390625 247.170898438 -42.3369140625 261.50390625 -39.00390625 c 0
 275.836914062 -35.6708984375 288.00390625 -31.6708984375 298.00390625 -27.00390625 c 0
 308.00390625 -22.3369140625 317.836914062 -16.00390625 327.50390625 -8.00390625 c 0
 337.170898438 -0.00390625 345.170898438 7.3291015625 351.50390625 13.99609375 c 0
 357.836914062 20.6630859375 365.00390625 29.330078125 373.00390625 39.9970703125 c 0
 376.336914062 44.6640625 379.169921875 48.3310546875 381.502929688 50.998046875 c 0
 383.8359375 53.6650390625 386.668945312 56.83203125 390.001953125 60.4990234375 c 0
 393.334960938 64.166015625 396.16796875 66.8330078125 398.500976562 68.5 c 0
 400.833984375 70.1669921875 403.500976562 71.6669921875 406.500976562 73 c 0
 409.500976562 74.3330078125 412.500976562 75 415.500976562 75 c 0
 418.500976562 75 421.333984375 74.3330078125 424.000976562 73 c 0
 428.66796875 71 432.16796875 68.5 434.500976562 65.5 c 0
 436.833984375 62.5 438.500976562 58.5 439.500976562 53.5 c 0
 440.500976562 48.5 439.66796875 41.8330078125 437.000976562 33.5 c 0
 434.333984375 25.1669921875 429.666992188 15.6669921875 423 5 c 0xde
EndSplineSet
Validated: 524289
EndChar

StartChar: A
Encoding: 65 65 44
Width: 593
GlyphClass: 2
Flags: HMW
HStem: 251 81.0059
VStem: 447 91.501
LayerCount: 2
Fore
SplineSet
128 41 m 2
 117.333007812 20.3330078125 105.333007812 6.671875 92 0.0048828125 c 0
 84.5927734375 -3.69921875 77.69921875 -5.55078125 71.3203125 -5.55078125 c 0
 66.2177734375 -5.55078125 61.4443359375 -4.3662109375 57 -1.99609375 c 0
 46.806640625 3.6279296875 41.708984375 13.330078125 41.708984375 27.109375 c 0
 41.708984375 39.4638671875 45.806640625 55.0947265625 54 74.00390625 c 0
 62.6669921875 95.3369140625 92.6669921875 147.336914062 144 230.00390625 c 1
 136.741210938 236.225585938 133.112304688 243.456054688 133.112304688 251.694335938 c 0
 133.112304688 254.048828125 133.408203125 256.485351562 134.000976562 259.00390625 c 0
 135.333984375 268.336914062 141.333984375 277.169921875 152.000976562 285.502929688 c 0
 162.66796875 293.8359375 175.000976562 300.3359375 189.000976562 305.002929688 c 1
 309.000976562 495.669921875 397.000976562 623.002929688 453.000976562 687.002929688 c 0
 465.000976562 700.3359375 475.333984375 710.002929688 484.000976562 716.002929688 c 0
 492.66796875 722.002929688 501.334960938 725.002929688 510.001953125 725.002929688 c 0
 512.18359375 725.245117188 514.3046875 725.366210938 516.365234375 725.366210938 c 0
 525.637695312 725.366210938 533.68359375 722.912109375 540.501953125 718.002929688 c 0
 547.685546875 712.830078125 551.27734375 704.4375 551.27734375 692.823242188 c 0
 551.27734375 690.965820312 551.185546875 689.025390625 551.001953125 687.002929688 c 0
 544.334960938 604.3359375 539.001953125 487.168945312 535.001953125 335.501953125 c 0
 533.501953125 278.625 532.751953125 230.819335938 532.751953125 192.083984375 c 0
 532.751953125 127.528320312 534.834960938 88.16796875 539.001953125 74.0009765625 c 0
 540.588867188 67.9697265625 541.3828125 62.203125 541.3828125 56.701171875 c 0
 541.3828125 50.6474609375 540.421875 44.9140625 538.500976562 39.5009765625 c 0
 534.833984375 29.16796875 529.666992188 20.5009765625 523 13.5009765625 c 0
 516.333007812 6.5009765625 509 1.333984375 501 -1.9990234375 c 0
 495.208984375 -4.4365234375 489.663085938 -5.65625 484.359375 -5.65625 c 0
 478.0625 -5.65625 472.109375 -3.9365234375 466.5 -0.4990234375 c 0
 456.166992188 5.833984375 449.666992188 19.6669921875 447 41 c 0
 445.93359375 49.2666015625 445.399414062 65.4267578125 445.399414062 89.4794921875 c 0
 445.399414062 125.559570312 446.599609375 179.399414062 449 251 c 1
 369 247.666992188 296.666992188 240.666992188 232 230 c 1
 128 41 l 2
464 602.005859375 m 1
 426.666992188 557.338867188 366 462.672851562 282 318.005859375 c 1
 346.666992188 326.005859375 403.666992188 330.672851562 453 332.005859375 c 1
 464 602.005859375 l 1
EndSplineSet
Validated: 524289
EndChar

StartChar: B
Encoding: 66 66 45
Width: 593
GlyphClass: 2
Flags: HMW
HStem: -22.9961 21G<81.3364 87.6694> 297.005 72<270.003 274.002> 630.005 78.998<354 368.336>
LayerCount: 2
Fore
SplineSet
200 -14 m 0
 189.333007812 -14.6669921875 177.502929688 -15.662109375 164.502929688 -16.9951171875 c 0
 151.502929688 -18.328125 140.8359375 -19.328125 132.502929688 -19.9951171875 c 0
 124.169921875 -20.662109375 115.669921875 -21.3291015625 107.002929688 -21.99609375 c 0
 98.3359375 -22.6630859375 90.8359375 -22.99609375 84.5029296875 -22.99609375 c 0
 78.169921875 -22.99609375 72.669921875 -22.3291015625 68.0029296875 -20.99609375 c 2
 64.0029296875 -20.99609375 l 2
 51.3359375 -20.99609375 42.1689453125 -16.49609375 36.501953125 -7.49609375 c 0
 33.39453125 -2.560546875 31.8408203125 3.427734375 31.8408203125 10.4677734375 c 0
 31.8408203125 16.265625 32.89453125 22.7783203125 35.001953125 30.00390625 c 0
 43.6689453125 58.00390625 56.6689453125 111.336914062 74.001953125 190.00390625 c 0
 91.3349609375 268.670898438 108.334960938 349.670898438 125.001953125 433.00390625 c 0
 134.334960938 477.670898438 140.66796875 507.670898438 144.000976562 523.00390625 c 0
 147.333984375 538.336914062 152.500976562 559.00390625 159.500976562 585.00390625 c 0
 166.500976562 611.00390625 171.333984375 629.00390625 174.000976562 639.00390625 c 0
 178.66796875 657.00390625 186.500976562 670.50390625 197.500976562 679.50390625 c 0
 208.500976562 688.50390625 220.333984375 693.00390625 233.000976562 693.00390625 c 2
 236.000976562 693.00390625 l 2
 246.66796875 696.336914062 257.834960938 699.169921875 269.501953125 701.502929688 c 0
 281.168945312 703.8359375 291.668945312 705.502929688 301.001953125 706.502929688 c 0
 310.334960938 707.502929688 320.16796875 708.169921875 330.500976562 708.502929688 c 0
 340.833984375 708.8359375 348.666992188 709.002929688 354 709.002929688 c 2
 372.5 709.002929688 l 1
 383 709.002929688 l 2
 425 709.002929688 460.5 700.669921875 489.5 684.002929688 c 0
 518.5 667.3359375 539 643.168945312 551 611.501953125 c 0
 557.75 593.689453125 561.125 574.2421875 561.125 553.16015625 c 0
 561.125 536.762695312 559.083007812 519.376953125 555 501.001953125 c 0
 546.333007812 462.334960938 530.333007812 429.16796875 507 401.500976562 c 0
 483.666992188 373.833984375 456 353.666992188 424 341 c 1
 443.333007812 333.666992188 461.5 322.833984375 478.5 308.500976562 c 0
 495.5 294.16796875 508.666992188 278.16796875 518 260.500976562 c 0
 524.876953125 247.483398438 528.315429688 235.098632812 528.315429688 223.34765625 c 0
 528.315429688 219.151367188 527.876953125 215.036132812 527 211.000976562 c 0
 521.666992188 185.66796875 510 160.500976562 492 135.500976562 c 0
 474 110.500976562 451.166992188 87.66796875 423.5 67.0009765625 c 0
 395.833007812 46.333984375 362.5 28.6669921875 323.5 14 c 0
 284.5 -0.6669921875 243.333007812 -10 200 -14 c 0
363.002929688 630.004882812 m 0
 329.669921875 630.004882812 296.001953125 625.671875 262.001953125 617.004882812 c 1
 258.668945312 604.337890625 253.3359375 584.004882812 246.002929688 556.004882812 c 0
 238.669921875 528.004882812 231.169921875 498.337890625 223.502929688 467.004882812 c 0
 215.8359375 435.671875 208.3359375 403.671875 201.002929688 371.004882812 c 1
 229.669921875 369.671875 257.002929688 369.004882812 283.002929688 369.004882812 c 0
 301.669921875 369.004882812 319.169921875 370.671875 335.502929688 374.004882812 c 0
 351.8359375 377.337890625 365.8359375 381.670898438 377.502929688 387.00390625 c 0
 389.169921875 392.336914062 400.002929688 398.836914062 410.002929688 406.50390625 c 0
 420.002929688 414.170898438 428.3359375 422.00390625 435.002929688 430.00390625 c 0
 441.669921875 438.00390625 447.502929688 446.836914062 452.502929688 456.50390625 c 0
 457.502929688 466.170898438 461.3359375 474.837890625 464.002929688 482.504882812 c 0
 466.669921875 490.171875 469.002929688 498.338867188 471.002929688 507.005859375 c 0
 473.2890625 516.91015625 474.431640625 526.379882812 474.431640625 535.4140625 c 0
 474.431640625 542.189453125 473.7890625 548.719726562 472.502929688 555.005859375 c 0
 469.502929688 569.672851562 464.169921875 581.505859375 456.502929688 590.505859375 c 0
 448.8359375 599.505859375 439.502929688 607.172851562 428.502929688 613.505859375 c 0
 417.502929688 619.838867188 406.502929688 624.171875 395.502929688 626.504882812 c 0
 384.502929688 628.837890625 373.669921875 630.004882812 363.002929688 630.004882812 c 0
274.001953125 297.004882812 m 1
 228.668945312 297.004882812 199 296.670898438 185 296.00390625 c 1
 163 188.670898438 147.666992188 112.337890625 139 67.0048828125 c 1
 145.666992188 67.0048828125 156.833984375 67.337890625 172.500976562 68.0048828125 c 0
 188.16796875 68.671875 200.334960938 69.0048828125 209.001953125 69.0048828125 c 0
 237.668945312 70.337890625 265.668945312 75.6708984375 293.001953125 85.00390625 c 0
 320.334960938 94.3369140625 343.334960938 105.50390625 362.001953125 118.50390625 c 0
 380.668945312 131.50390625 396.168945312 145.170898438 408.501953125 159.50390625 c 0
 420.834960938 173.836914062 428.66796875 187.00390625 432.000976562 199.00390625 c 0
 434.000976562 207.670898438 432.500976562 216.337890625 427.500976562 225.004882812 c 0
 422.500976562 233.671875 414.333984375 242.671875 403.000976562 252.004882812 c 0
 391.66796875 261.337890625 374.834960938 270.004882812 352.501953125 278.004882812 c 0
 330.168945312 286.004882812 304.001953125 292.337890625 274.001953125 297.004882812 c 1
EndSplineSet
Validated: 524289
EndChar

StartChar: C
Encoding: 67 67 46
Width: 593
GlyphClass: 2
Flags: HMW
HStem: -31.002 90.0029<147.333 201.999> 632.001 80.9961<432.333 434.333>
VStem: 471.999 77
LayerCount: 2
Fore
SplineSet
428 64 m 0
 362.01953125 0.607421875 275.954101562 -31.0908203125 169.803710938 -31.0908203125 c 0
 166.553710938 -31.0908203125 163.286132812 -31.0615234375 159.999023438 -31.001953125 c 0
 134.666015625 -31.001953125 111.833007812 -26.3349609375 91.5 -17.001953125 c 0
 71.1669921875 -7.6689453125 54.6669921875 4.6640625 42 19.9970703125 c 0
 29.3330078125 35.330078125 19.3330078125 53.1630859375 12 73.49609375 c 0
 4.6669921875 93.8291015625 0.6669921875 115.49609375 0 138.49609375 c 0
 -0.06640625 140.796875 -0.099609375 143.099609375 -0.099609375 145.403320312 c 0
 -0.099609375 166.1328125 2.6005859375 186.997070312 8 207.99609375 c 0
 19.3330078125 256.663085938 34.8330078125 303.663085938 54.5 348.99609375 c 0
 74.1669921875 394.329101562 96.1669921875 435.329101562 120.5 471.99609375 c 0
 144.833007812 508.663085938 171.166015625 542.330078125 199.499023438 572.997070312 c 0
 227.83203125 603.6640625 255.999023438 629.1640625 283.999023438 649.497070312 c 0
 311.999023438 669.830078125 339.83203125 685.497070312 367.499023438 696.497070312 c 0
 395.166015625 707.497070312 420.666015625 712.997070312 443.999023438 712.997070312 c 0
 466.666015625 712.997070312 486.999023438 710.330078125 504.999023438 704.997070312 c 1
 509.666015625 714.997070312 516.166015625 723.1640625 524.499023438 729.497070312 c 0
 532.83203125 735.830078125 541.665039062 739.330078125 550.998046875 739.997070312 c 0
 561.665039062 741.997070312 571.33203125 739.497070312 579.999023438 732.497070312 c 0
 588.666015625 725.497070312 592.999023438 715.330078125 592.999023438 701.997070312 c 0
 592.999023438 691.997070312 592.33203125 682.1640625 590.999023438 672.497070312 c 0
 589.666015625 662.830078125 588.166015625 653.330078125 586.499023438 643.997070312 c 0
 584.83203125 634.6640625 583.33203125 626.997070312 581.999023438 620.997070312 c 0
 580.666015625 614.997070312 578.999023438 607.997070312 576.999023438 599.997070312 c 0
 574.999023438 591.997070312 573.666015625 586.997070312 572.999023438 584.997070312 c 0
 569.666015625 570.997070312 561.666015625 556.830078125 548.999023438 542.497070312 c 0
 536.33203125 528.1640625 524.665039062 520.331054688 513.998046875 518.998046875 c 0
 511.67578125 518.611328125 509.403320312 518.416992188 507.180664062 518.416992188 c 0
 497.918945312 518.416992188 489.524414062 521.77734375 481.998046875 528.498046875 c 0
 474.739257812 534.979492188 471.110351562 543.174804688 471.110351562 553.083007812 c 0
 471.110351562 555.915039062 471.40625 558.88671875 471.999023438 561.998046875 c 0
 473.33203125 567.331054688 477.33203125 581.331054688 483.999023438 603.998046875 c 0
 483.33203125 604.665039062 480.83203125 606.83203125 476.499023438 610.499023438 c 0
 472.166015625 614.166015625 468.999023438 616.833007812 466.999023438 618.5 c 0
 464.999023438 620.166992188 461.83203125 622.333984375 457.499023438 625.000976562 c 0
 453.166015625 627.66796875 448.999023438 629.500976562 444.999023438 630.500976562 c 0
 440.999023438 631.500976562 436.666015625 632.000976562 431.999023438 632.000976562 c 0
 412.666015625 632.000976562 390.499023438 625.333984375 365.499023438 612.000976562 c 0
 340.499023438 598.66796875 314.999023438 579.66796875 288.999023438 555.000976562 c 0
 262.999023438 530.333984375 238.166015625 502.000976562 214.499023438 470.000976562 c 0
 190.83203125 438.000976562 169.33203125 401.833984375 149.999023438 361.500976562 c 0
 130.666015625 321.16796875 116.666015625 280.66796875 107.999023438 240.000976562 c 0
 103.958007812 222.22265625 101.9375 204.688476562 101.9375 187.399414062 c 0
 101.9375 176.163085938 102.791015625 165.030273438 104.498046875 154.000976562 c 0
 108.831054688 126.000976562 118.831054688 103.16796875 134.498046875 85.5009765625 c 0
 150.165039062 67.833984375 169.33203125 59.0009765625 191.999023438 59.0009765625 c 0
 211.999023438 59.0009765625 231.999023438 61.16796875 251.999023438 65.5009765625 c 0
 271.999023438 69.833984375 290.33203125 75.5009765625 306.999023438 82.5009765625 c 0
 323.666015625 89.5009765625 338.333007812 96.5009765625 351 103.500976562 c 0
 363.666992188 110.500976562 375.666992188 118.000976562 387 126.000976562 c 0
 396.333007812 132.000976562 404.333007812 136.66796875 411 140.000976562 c 0
 417.666992188 143.333984375 424.5 145.000976562 431.5 145.000976562 c 0
 438.5 145.000976562 444.333007812 142.66796875 449 138.000976562 c 0
 455.788085938 131.212890625 459.181640625 123.631835938 459.181640625 115.256835938 c 0
 459.181640625 100.600585938 448.788085938 83.515625 428 64 c 0
EndSplineSet
Validated: 524289
EndChar

StartChar: D
Encoding: 68 68 47
Width: 593
GlyphClass: 2
Flags: HMW
HStem: -31 85.998<281.997 293.667> 694.001 20G<219.665 229.998>
LayerCount: 2
Fore
SplineSet
281 -31 m 0
 250.333007812 -31 220.49609375 -29.5 191.49609375 -26.5 c 0
 162.49609375 -23.5 139.663085938 -20 122.99609375 -16 c 0
 106.329101562 -12 91.8291015625 -8.3330078125 79.49609375 -5 c 0
 67.1630859375 -1.6669921875 59.99609375 0 57.99609375 0 c 0
 45.3291015625 0 36.162109375 4.5 30.4951171875 13.5 c 0
 27.3876953125 18.435546875 25.833984375 24.423828125 25.833984375 31.4638671875 c 0
 25.833984375 37.26171875 26.8876953125 43.7744140625 28.9951171875 51 c 0
 38.328125 83 51.9951171875 139.833007812 69.9951171875 221.5 c 0
 87.9951171875 303.166992188 106.662109375 391.666992188 125.995117188 487 c 0
 133.995117188 524.333007812 139.328125 548.833007812 141.995117188 560.5 c 0
 144.662109375 572.166992188 149.329101562 590.333984375 155.99609375 615.000976562 c 0
 162.663085938 639.66796875 166.663085938 654.66796875 167.99609375 660.000976562 c 0
 172.663085938 678.000976562 180.330078125 691.500976562 190.997070312 700.500976562 c 0
 201.6640625 709.500976562 213.331054688 714.000976562 225.998046875 714.000976562 c 0
 233.998046875 714.000976562 243.998046875 713.333984375 255.998046875 712.000976562 c 0
 267.998046875 710.66796875 283.498046875 708.000976562 302.498046875 704.000976562 c 0
 321.498046875 700.000976562 340.498046875 694.500976562 359.498046875 687.500976562 c 0
 378.498046875 680.500976562 398.331054688 670.66796875 418.998046875 658.000976562 c 0
 439.665039062 645.333984375 458.665039062 630.666992188 475.998046875 614 c 0
 493.331054688 597.333007812 509.1640625 576.5 523.497070312 551.5 c 0
 537.830078125 526.5 548.830078125 499.166992188 556.497070312 469.5 c 0
 563.55078125 442.20703125 567.077148438 410.119140625 567.077148438 373.235351562 c 0
 567.077148438 370.026367188 567.05078125 366.78125 566.997070312 363.5 c 0
 566.330078125 322.5 560.330078125 278.333007812 548.997070312 231 c 0
 543.6640625 207.666992188 535.331054688 184 523.998046875 160 c 0
 512.665039062 136 498.33203125 112.5 480.999023438 89.5 c 0
 463.666015625 66.5 444.833007812 46 424.5 28 c 0
 404.166992188 10 381.5 -4.3330078125 356.5 -15 c 0
 331.5 -25.6669921875 306.333007812 -31 281 -31 c 0
184.99609375 348 m 0
 178.99609375 319.333007812 170.1640625 276.165039062 158.497070312 218.498046875 c 0
 146.830078125 160.831054688 138.330078125 117.331054688 132.997070312 87.998046875 c 1
 155.6640625 75.998046875 180.1640625 67.498046875 206.497070312 62.498046875 c 0
 232.830078125 57.498046875 263.997070312 54.998046875 299.997070312 54.998046875 c 0
 317.330078125 54.998046875 334.997070312 61.1650390625 352.997070312 73.498046875 c 0
 370.997070312 85.8310546875 387.330078125 101.831054688 401.997070312 121.498046875 c 0
 416.6640625 141.165039062 429.6640625 162.83203125 440.997070312 186.499023438 c 0
 452.330078125 210.166015625 460.663085938 233.333007812 465.99609375 256 c 0
 473.55859375 289.063476562 477.33984375 320.0625 477.33984375 348.99609375 c 0
 477.33984375 429.743164062 447.891601562 494.411132812 388.99609375 543 c 0
 360.329101562 566.333007812 316.99609375 590.333007812 258.99609375 615 c 1
 258.99609375 616 l 1
 257.99609375 616 l 1
 256.99609375 616 l 1
 255.99609375 617 l 1
 254.99609375 617 l 1
 253.99609375 618 l 1
 252.99609375 618 l 1
 251.99609375 618 l 1
 251.99609375 619 l 1
 250.99609375 619 l 1
 249.99609375 619 l 1
 248.99609375 620 l 1
 247.99609375 620 l 1
 246.99609375 620 l 1
 246.99609375 621 l 1
 224.99609375 534.333007812 204.329101562 443.333007812 184.99609375 348 c 0
EndSplineSet
Validated: 524289
EndChar

StartChar: E
Encoding: 69 69 48
Width: 593
GlyphClass: 2
Flags: HMW
HStem: -17.498 87.4961 -6 90.4971 312.001 85.999<145.001 186.672> 332.001 80.999<459.335 491.337> 614.501 82.5
LayerCount: 2
Fore
SplineSet
394 -6 m 0x48
 392.05859375 -5.87890625 389.565429688 -5.818359375 386.51953125 -5.818359375 c 0
 372.83203125 -5.818359375 347.994140625 -7.0439453125 312.002929688 -9.498046875 c 0
 268.002929688 -12.498046875 220.002929688 -15.1650390625 168.002929688 -17.498046875 c 0
 140.001953125 -18.75390625 115.48046875 -19.3828125 94.4384765625 -19.3828125 c 0
 76.404296875 -19.3828125 60.92578125 -18.9208984375 48.0029296875 -17.998046875 c 0
 34.0029296875 -17.3310546875 21.669921875 -9.8310546875 11.0029296875 4.501953125 c 0
 2.0205078125 16.5712890625 -2.470703125 30.8876953125 -2.470703125 47.44921875 c 0
 -2.470703125 50.5546875 -2.3125 53.73828125 -1.9970703125 57.001953125 c 0
 0.0029296875 74.3349609375 6.169921875 105.501953125 16.5029296875 150.501953125 c 0
 26.8359375 195.501953125 38.1689453125 243.334960938 50.501953125 294.001953125 c 0
 62.8349609375 344.668945312 75.3349609375 401.668945312 88.001953125 465.001953125 c 0
 96.6689453125 505.001953125 102.501953125 531.501953125 105.501953125 544.501953125 c 0
 108.501953125 557.501953125 113.334960938 576.668945312 120.001953125 602.001953125 c 0
 126.668945312 627.334960938 131.001953125 643.001953125 133.001953125 649.001953125 c 0
 137.668945312 667.001953125 145.3359375 680.668945312 156.002929688 690.001953125 c 0
 166.669921875 699.334960938 178.336914062 704.001953125 191.00390625 704.001953125 c 0
 191.881835938 704.037109375 192.744140625 704.0546875 193.591796875 704.0546875 c 0
 208.849609375 704.0546875 219.319335938 698.370117188 225.00390625 687.001953125 c 1
 261.670898438 692.334960938 303.837890625 695.66796875 351.504882812 697.000976562 c 0
 375.337890625 697.66796875 397.754882812 698.000976562 418.754882812 698.000976562 c 0
 439.754882812 698.000976562 459.337890625 697.666992188 477.504882812 697.000976562 c 0
 513.837890625 695.66796875 542.337890625 693.66796875 563.004882812 691.000976562 c 0
 577.004882812 689.000976562 586.337890625 685.000976562 591.004882812 679.000976562 c 0
 595.671875 673.000976562 596.671875 664.66796875 594.004882812 654.000976562 c 0
 592.671875 648.000976562 590.838867188 642.333984375 588.505859375 637.000976562 c 0
 586.172851562 631.66796875 583.172851562 626.834960938 579.505859375 622.501953125 c 0
 575.838867188 618.168945312 571.005859375 614.668945312 565.005859375 612.001953125 c 0
 559.005859375 609.334960938 552.005859375 608.66796875 544.005859375 610.000976562 c 0
 501.76171875 613.439453125 458.974609375 615.159179688 415.645507812 615.159179688 c 0
 400.16796875 615.159179688 384.622070312 614.939453125 369.006835938 614.500976562 c 0
 309.673828125 612.833984375 258.006835938 608.666992188 214.006835938 602 c 1
 195.33984375 532.666992188 178.672851562 464.666992188 164.005859375 398 c 1xa8
 209.338867188 398 271.671875 400.5 351.004882812 405.5 c 0
 430.337890625 410.5 474.670898438 413 484.00390625 413 c 0
 498.670898438 413 508.170898438 409.666992188 512.50390625 403 c 0
 516.836914062 396.333007812 517.669921875 387 515.002929688 375 c 0
 508.484375 346.319335938 492.405273438 331.978515625 466.765625 331.978515625 c 0
 466.182617188 331.978515625 465.594726562 331.986328125 465.001953125 332.000976562 c 0x18
 453.668945312 332.000976562 405.168945312 328.66796875 319.501953125 322.000976562 c 0
 233.834960938 315.333984375 175.66796875 312.000976562 145.000976562 312.000976562 c 1
 141.66796875 297.333984375 137.334960938 278.166992188 132.001953125 254.5 c 0
 126.668945312 230.833007812 122.168945312 210.5 118.501953125 193.5 c 0
 114.834960938 176.5 111.16796875 159 107.500976562 141 c 0
 103.833984375 123 101.166992188 108.166992188 99.5 96.5 c 0
 97.8330078125 84.8330078125 97.3330078125 76.666015625 98 71.9990234375 c 1
 106.556640625 69.2763671875 126.513671875 67.9150390625 157.872070312 67.9150390625 c 0
 180.266601562 67.9150390625 208.4765625 68.609375 242.500976562 69.998046875 c 0xa8
 324.16796875 73.3310546875 377.000976562 77.6640625 401.000976562 82.9970703125 c 0
 410.333984375 84.330078125 418.166992188 84.830078125 424.5 84.4970703125 c 0
 430.833007812 84.1640625 436 82.8310546875 440 80.498046875 c 0
 444 78.1650390625 447 75.6650390625 449 72.998046875 c 0
 451 70.3310546875 452.333007812 66.8310546875 453 62.498046875 c 0
 453.666992188 58.1650390625 454 54.33203125 454 50.9990234375 c 0
 454 47.666015625 453.666992188 44.3330078125 453 41 c 0
 450.333007812 28.3330078125 443.833007812 17 433.5 7 c 0
 424.3828125 -1.8232421875 413.05859375 -6.2353515625 399.528320312 -6.2353515625 c 0
 397.724609375 -6.2353515625 395.881835938 -6.1572265625 394 -6 c 0x48
EndSplineSet
Validated: 524289
EndChar

StartChar: F
Encoding: 70 70 49
Width: 593
GlyphClass: 2
Flags: HMW
HStem: 316 86.002 619.002 86.999
LayerCount: 2
Fore
SplineSet
90 24 m 0
 85.3330078125 10 76.5 -1.166015625 63.5 -9.4990234375 c 0
 51.4638671875 -17.21484375 39.2841796875 -21.072265625 26.9619140625 -21.072265625 c 0
 25.9755859375 -21.072265625 24.98828125 -21.0478515625 24 -20.998046875 c 0
 11.3330078125 -20.998046875 2.166015625 -16.498046875 -3.5009765625 -7.498046875 c 0
 -6.6083984375 -2.5625 -8.162109375 3.42578125 -8.162109375 10.4658203125 c 0
 -8.162109375 16.263671875 -7.1083984375 22.7763671875 -5.0009765625 30.001953125 c 0
 3.666015625 59.3349609375 17.166015625 115.501953125 35.4990234375 198.501953125 c 0
 53.83203125 281.501953125 71.6650390625 367.001953125 88.998046875 455.001953125 c 0
 98.3310546875 499.668945312 104.831054688 529.668945312 108.498046875 545.001953125 c 0
 112.165039062 560.334960938 117.498046875 581.001953125 124.498046875 607.001953125 c 0
 131.498046875 633.001953125 136.331054688 650.668945312 138.998046875 660.001953125 c 0
 143.665039062 678.001953125 151.33203125 691.501953125 161.999023438 700.501953125 c 0
 172.666015625 709.501953125 184.333007812 714.001953125 197 714.001953125 c 0
 198.650390625 714.12890625 200.249023438 714.192382812 201.796875 714.192382812 c 0
 216.502929688 714.192382812 226.571289062 708.461914062 232 697.000976562 c 1
 294 701.66796875 356 704.66796875 418 706.000976562 c 0
 433.499023438 706.333984375 448.26953125 706.500976562 462.310546875 706.500976562 c 0
 504.436523438 706.500976562 539.999023438 705.000976562 569 702.000976562 c 0
 583 700.66796875 592.166992188 696.834960938 596.5 690.501953125 c 0
 600.833007812 684.168945312 602 675.3359375 600 664.002929688 c 0
 597.333007812 651.3359375 591.5 640.668945312 582.5 632.001953125 c 0
 573.5 623.334960938 561.333007812 619.001953125 546 619.001953125 c 0
 511.680664062 620.856445312 476.15234375 621.784179688 439.413085938 621.784179688 c 0
 370.528320312 621.784179688 297.390625 618.5234375 219.999023438 612.001953125 c 1
 217.33203125 600.668945312 212.665039062 582.501953125 205.998046875 557.501953125 c 0
 199.331054688 532.501953125 192.831054688 507.001953125 186.498046875 481.001953125 c 0
 180.165039062 455.001953125 173.998046875 428.668945312 167.998046875 402.001953125 c 1
 196.568359375 405.430664062 227.83203125 407.14453125 261.790039062 407.14453125 c 0
 267.451171875 407.14453125 273.1875 407.09765625 278.998046875 407.001953125 c 0
 319.665039062 406.334960938 355.998046875 404.501953125 387.998046875 401.501953125 c 0
 419.998046875 398.501953125 445.331054688 395.334960938 463.998046875 392.001953125 c 0
 477.998046875 389.334960938 487.165039062 385.001953125 491.498046875 379.001953125 c 0
 495.831054688 373.001953125 496.998046875 364.668945312 494.998046875 354.001953125 c 0
 493.665039062 348.001953125 491.83203125 342.501953125 489.499023438 337.501953125 c 0
 487.166015625 332.501953125 483.999023438 327.668945312 479.999023438 323.001953125 c 0
 475.999023438 318.334960938 471.166015625 314.834960938 465.499023438 312.501953125 c 0
 459.83203125 310.168945312 452.999023438 309.3359375 444.999023438 310.002929688 c 0
 426.999023438 313.3359375 401.33203125 316.168945312 367.999023438 318.501953125 c 0
 334.666015625 320.834960938 296.833007812 322.16796875 254.5 322.500976562 c 0
 251.680664062 322.5234375 248.892578125 322.534179688 246.13671875 322.534179688 c 0
 207.514648438 322.534179688 175.134765625 320.356445312 149 316 c 1
 113 139.333007812 93.3330078125 42 90 24 c 0
EndSplineSet
Validated: 524289
EndChar

StartChar: G
Encoding: 71 71 50
Width: 593
GlyphClass: 2
Flags: HMW
HStem: -30.9971 89.9971<149.333 200.333> 643.002 80.999<436.332 441.664>
LayerCount: 2
Fore
SplineSet
472 244 m 0
 467.333007812 230 459.666015625 213.669921875 448.999023438 195.002929688 c 0
 438.33203125 176.3359375 425.499023438 156.502929688 410.499023438 135.502929688 c 0
 395.499023438 114.502929688 378.33203125 94.169921875 358.999023438 74.5029296875 c 0
 339.666015625 54.8359375 319.666015625 37.0029296875 298.999023438 21.0029296875 c 0
 278.33203125 5.0029296875 255.83203125 -7.830078125 231.499023438 -17.4970703125 c 0
 208.736328125 -26.5400390625 186.994140625 -31.0615234375 166.2734375 -31.0615234375 c 0
 164.84375 -31.0615234375 163.418945312 -31.0400390625 161.999023438 -30.9970703125 c 0
 136.666015625 -30.9970703125 113.833007812 -26.330078125 93.5 -16.9970703125 c 0
 73.1669921875 -7.6640625 56.6669921875 4.6689453125 44 20.001953125 c 0
 31.3330078125 35.3349609375 21.3330078125 53.16796875 14 73.5009765625 c 0
 6.6669921875 93.833984375 2.6669921875 115.500976562 2 138.500976562 c 0
 1.92578125 141.057617188 1.888671875 143.616210938 1.888671875 146.177734375 c 0
 1.888671875 166.653320312 4.2587890625 187.26171875 8.9990234375 208.000976562 c 0
 20.33203125 257.333984375 36.1650390625 305.333984375 56.498046875 352.000976562 c 0
 76.8310546875 398.66796875 98.998046875 440.66796875 122.998046875 478.000976562 c 0
 146.998046875 515.333984375 173.331054688 549.500976562 201.998046875 580.500976562 c 0
 230.665039062 611.500976562 259.165039062 637.500976562 287.498046875 658.500976562 c 0
 315.831054688 679.500976562 343.831054688 695.66796875 371.498046875 707.000976562 c 0
 399.165039062 718.333984375 424.665039062 724.000976562 447.998046875 724.000976562 c 0
 473.998046875 724.000976562 501.498046875 717.500976562 530.498046875 704.500976562 c 0
 559.498046875 691.500976562 577.331054688 680.333984375 583.998046875 671.000976562 c 0
 588.874023438 664.295898438 591.3125 656.685546875 591.3125 648.169921875 c 0
 591.3125 638.056640625 587.874023438 626.666992188 580.998046875 614.000976562 c 0
 576.998046875 605.333984375 569.831054688 599.000976562 559.498046875 595.000976562 c 0
 549.165039062 591.000976562 539.665039062 591.000976562 530.998046875 595.000976562 c 0
 527.665039062 596.333984375 520.165039062 601.333984375 508.498046875 610.000976562 c 0
 496.831054688 618.66796875 484.6640625 626.334960938 471.997070312 633.001953125 c 0
 459.330078125 639.668945312 447.330078125 643.001953125 435.997070312 643.001953125 c 0
 416.6640625 643.001953125 394.331054688 636.168945312 368.998046875 622.501953125 c 0
 343.665039062 608.834960938 317.998046875 589.16796875 291.998046875 563.500976562 c 0
 265.998046875 537.833984375 240.998046875 508.666992188 216.998046875 476 c 0
 192.998046875 443.333007812 171.331054688 406.333007812 151.998046875 365 c 0
 132.665039062 323.666992188 118.33203125 282 108.999023438 240 c 0
 104.958007812 222.221679688 102.9375 204.6875 102.9375 187.3984375 c 0
 102.9375 176.162109375 103.791015625 165.029296875 105.498046875 154 c 0
 109.831054688 126 119.831054688 103.166992188 135.498046875 85.5 c 0
 151.165039062 67.8330078125 170.33203125 59 192.999023438 59 c 0
 207.666015625 59 224.166015625 64.1669921875 242.499023438 74.5 c 0
 260.83203125 84.8330078125 278.165039062 98 294.498046875 114 c 0
 310.831054688 130 326.831054688 148 342.498046875 168 c 0
 358.165039062 188 371.83203125 207.333007812 383.499023438 226 c 0
 395.166015625 244.666992188 404.666015625 262 411.999023438 278 c 1
 372.666015625 276 333.666015625 272.333007812 294.999023438 267 c 0
 256.33203125 261.666992188 228.999023438 254.666992188 212.999023438 246 c 0
 207.314453125 243.158203125 202.079101562 241.736328125 197.291992188 241.736328125 c 0
 191.973632812 241.736328125 187.209960938 243.491210938 182.999023438 247 c 0
 174.999023438 253.666992188 171.666015625 262.666992188 172.999023438 274 c 0
 174.999023438 299.333007812 191.33203125 319 221.999023438 333 c 0
 241.999023438 342.333007812 281.499023438 349.5 340.499023438 354.5 c 0
 382.641601562 358.071289062 418.237304688 359.857421875 447.28515625 359.857421875 c 0
 458.904296875 359.857421875 469.475585938 359.571289062 478.999023438 359 c 0
 494.33203125 358.333007812 504.33203125 355.5 508.999023438 350.5 c 0
 513.666015625 345.5 515.666015625 337.666992188 514.999023438 327 c 0
 512.33203125 302.333007812 502.33203125 287 484.999023438 281 c 0
 484.33203125 279 482.33203125 273.666992188 478.999023438 265 c 0
 475.666015625 256.333007812 473.333007812 249.333007812 472 244 c 0
EndSplineSet
Validated: 524289
EndChar

StartChar: H
Encoding: 72 72 51
Width: 593
GlyphClass: 2
Flags: HMW
HStem: 311.999 86.001<163.999 201.331>
LayerCount: 2
Fore
SplineSet
438 24 m 0
 433.333007812 10 424.66796875 -1.16796875 412.000976562 -9.5009765625 c 0
 400.272460938 -17.216796875 388.258789062 -21.07421875 375.959960938 -21.07421875 c 0
 374.975585938 -21.07421875 373.989257812 -21.0498046875 373.000976562 -21 c 0
 360.333984375 -21 351.166992188 -16.5 345.5 -7.5 c 0
 342.392578125 -2.564453125 340.838867188 3.423828125 340.838867188 10.4638671875 c 0
 340.838867188 16.26171875 341.892578125 22.7744140625 344 30 c 0
 371.333007812 122.666992188 398 226.666992188 424 342 c 1
 413.333007812 341.333007812 374.166015625 336.166015625 306.499023438 326.499023438 c 0
 238.83203125 316.83203125 191.33203125 311.999023438 163.999023438 311.999023438 c 0
 163.33203125 309.999023438 162.33203125 306.499023438 160.999023438 301.499023438 c 0
 159.666015625 296.499023438 158.666015625 292.999023438 157.999023438 290.999023438 c 0
 139.33203125 224.999023438 118.665039062 135.999023438 95.998046875 23.9990234375 c 0
 91.3310546875 9.9990234375 82.498046875 -1.16796875 69.498046875 -9.5009765625 c 0
 57.4619140625 -17.216796875 45.568359375 -21.07421875 33.8173828125 -21.07421875 c 0
 32.876953125 -21.07421875 31.9365234375 -21.0498046875 30.998046875 -21 c 0
 18.998046875 -21 9.8310546875 -16.5 3.498046875 -7.5 c 0
 0.060546875 -2.6142578125 -1.6591796875 3.302734375 -1.6591796875 10.251953125 c 0
 -1.6591796875 16.1025390625 -0.439453125 22.685546875 1.998046875 30 c 0
 4.6650390625 39.3330078125 8.6650390625 54.3330078125 13.998046875 75 c 0
 19.3310546875 95.6669921875 25.998046875 123.333984375 33.998046875 158.000976562 c 0
 41.998046875 192.66796875 49.3310546875 224.000976562 55.998046875 252.000976562 c 0
 61.3310546875 274.66796875 69.498046875 307.16796875 80.498046875 349.500976562 c 0
 91.498046875 391.833984375 99.3310546875 423.166992188 103.998046875 443.5 c 2
 124.998046875 535 l 2
 130.998046875 565 134.998046875 584.166992188 136.998046875 592.5 c 0
 138.998046875 600.833007812 141.998046875 612.333007812 145.998046875 627 c 2
 154.998046875 660 l 2
 159.665039062 678 167.498046875 691.5 178.498046875 700.5 c 0
 189.498046875 709.5 201.331054688 714 213.998046875 714 c 0
 215.03515625 714.049804688 216.053710938 714.07421875 217.052734375 714.07421875 c 0
 229.53515625 714.07421875 239.016601562 710.216796875 245.498046875 702.500976562 c 0
 249.952148438 697.198242188 252.1796875 689.9375 252.1796875 680.719726562 c 0
 252.1796875 675.453125 251.452148438 669.546875 249.998046875 663.000976562 c 0
 248.665039062 656.333984375 244.498046875 642.000976562 237.498046875 620.000976562 c 0
 230.498046875 598.000976562 224.998046875 577.66796875 220.998046875 559.000976562 c 0
 216.998046875 541.66796875 211.165039062 515.16796875 203.498046875 479.500976562 c 0
 195.831054688 443.833984375 189.6640625 416.666992188 184.997070312 398 c 1
 217.6640625 398 251.6640625 400 286.997070312 404 c 0
 322.330078125 408 354.330078125 412 382.997070312 416 c 0
 411.6640625 420 431.6640625 422.666992188 442.997070312 424 c 1
 443.6640625 428.666992188 444.831054688 435.5 446.498046875 444.5 c 0
 448.165039062 453.5 449.665039062 460.333007812 450.998046875 465 c 0
 460.331054688 506.333007812 466.331054688 533.666015625 468.998046875 546.999023438 c 0
 471.665039062 560.33203125 476.665039062 580.999023438 483.998046875 608.999023438 c 0
 491.331054688 636.999023438 495.998046875 653.999023438 497.998046875 659.999023438 c 0
 502.665039062 677.999023438 510.33203125 691.499023438 520.999023438 700.499023438 c 0
 531.666015625 709.499023438 543.333007812 713.999023438 556 713.999023438 c 0
 557.037109375 714.048828125 558.055664062 714.073242188 559.0546875 714.073242188 c 0
 571.537109375 714.073242188 581.018554688 710.215820312 587.5 702.5 c 0
 591.954101562 697.197265625 594.181640625 689.936523438 594.181640625 680.71875 c 0
 594.181640625 675.452148438 593.454101562 669.545898438 592 663 c 0
 589.333007812 650.333007812 583 624.333007812 573 585 c 0
 563 545.666992188 554.5 511.166992188 547.5 481.5 c 0
 540.5 451.833007812 531 409 519 353 c 0
 509.666992188 306.333007812 495 245 475 169 c 0
 455 93 442.666992188 44.6669921875 438 24 c 0
EndSplineSet
Validated: 524289
EndChar

StartChar: I
Encoding: 73 73 52
Width: 593
GlyphClass: 2
Flags: HMW
HStem: -13.998 80.001 -6.49902 77.999 612.001 89.001 625.002 82.999<176.328 202.995 194.662 202.995 194.662 318.994>
LayerCount: 2
Fore
SplineSet
409 -11 m 0x60
 393.666992188 -8.3330078125 367.821289062 -6.83203125 331.48828125 -6.4990234375 c 0x60
 324.225585938 -6.4326171875 316.983398438 -6.3994140625 309.760742188 -6.3994140625 c 0
 280.850585938 -6.3994140625 252.259765625 -6.9326171875 223.989257812 -7.9990234375 c 0
 188.65625 -9.33203125 151.323242188 -10.6650390625 111.990234375 -11.998046875 c 0
 72.6572265625 -13.3310546875 45.32421875 -13.998046875 29.9912109375 -13.998046875 c 0
 13.9912109375 -13.998046875 2.82421875 -10.6650390625 -3.5087890625 -3.998046875 c 0
 -9.841796875 2.6689453125 -11.6748046875 11.3359375 -9.0078125 22.0029296875 c 0
 -7.0078125 34.0029296875 -1.3408203125 44.169921875 7.9921875 52.5029296875 c 0
 17.3251953125 60.8359375 29.9921875 65.3359375 45.9921875 66.0029296875 c 0
 72.6591796875 67.3359375 118.659179688 69.0029296875 183.9921875 71.0029296875 c 1
 216.659179688 185.002929688 246.326171875 305.669921875 272.993164062 433.002929688 c 0
 277.66015625 457.002929688 282.493164062 479.669921875 287.493164062 501.002929688 c 0
 292.493164062 522.3359375 295.993164062 537.668945312 297.993164062 547.001953125 c 0
 299.993164062 556.334960938 303.826171875 570.834960938 309.493164062 590.501953125 c 0
 315.16015625 610.168945312 318.327148438 621.668945312 318.994140625 625.001953125 c 1
 290.994140625 625.66796875 265.744140625 626.001953125 243.244140625 626.001953125 c 0
 220.744140625 626.001953125 200.994140625 625.66796875 183.994140625 625.001953125 c 0
 168.661132812 625.001953125 157.828125 628.668945312 151.495117188 636.001953125 c 0
 145.162109375 643.334960938 142.995117188 652.66796875 144.995117188 664.000976562 c 0
 146.995117188 676.000976562 152.995117188 686.333984375 162.995117188 695.000976562 c 0
 172.995117188 703.66796875 186.328125 708.000976562 202.995117188 708.000976562 c 0x90
 255.220703125 709.556640625 303.594726562 710.334960938 348.116210938 710.334960938 c 0
 437.1484375 710.334960938 510.775390625 707.223632812 568.995117188 701.001953125 c 0
 591.690429688 698.732421875 603.038085938 688.495117188 603.038085938 670.291015625 c 0
 603.038085938 667.104492188 602.690429688 663.674804688 601.995117188 660.000976562 c 0
 600.662109375 654.000976562 598.495117188 648.16796875 595.495117188 642.500976562 c 0
 592.495117188 636.833984375 588.828125 631.333984375 584.495117188 626.000976562 c 0
 580.162109375 620.66796875 574.662109375 616.500976562 567.995117188 613.500976562 c 0
 561.328125 610.500976562 553.995117188 610.000976562 545.995117188 612.000976562 c 0
 528.662109375 615.333984375 484.329101562 619.000976562 412.99609375 623.000976562 c 1
 411.663085938 617.66796875 407.830078125 602.66796875 401.497070312 578.000976562 c 0
 395.1640625 553.333984375 390.1640625 533.666992188 386.497070312 519 c 0
 382.830078125 504.333007812 377.997070312 483.333007812 371.997070312 456 c 0
 365.997070312 428.666992188 359.997070312 401.666992188 353.997070312 375 c 0
 343.997070312 327.666992188 329.830078125 268.666992188 311.497070312 198 c 0
 293.1640625 127.333007812 282.331054688 85.3330078125 278.998046875 72 c 1
 306.331054688 72 337.331054688 71.8330078125 371.998046875 71.5 c 0
 406.665039062 71.1669921875 425.33203125 71 427.999023438 71 c 0
 442.666015625 71 451.999023438 67.5 455.999023438 60.5 c 0
 459.999023438 53.5 460.999023438 44.3330078125 458.999023438 33 c 0
 457.666015625 27 455.999023438 21.5 453.999023438 16.5 c 0
 451.999023438 11.5 448.999023438 6.5 444.999023438 1.5 c 0
 440.999023438 -3.5 435.83203125 -7.1669921875 429.499023438 -9.5 c 0
 423.166015625 -11.8330078125 416.333007812 -12.3330078125 409 -11 c 0x60
EndSplineSet
Validated: 524289
EndChar

StartChar: J
Encoding: 74 74 53
Width: 593
GlyphClass: 2
Flags: HMW
HStem: -35.001 101.001<178.669 186.002> 625 82.999<161.336 187.002>
VStem: 5.0029 87.501 18.0029 77
LayerCount: 2
Fore
SplineSet
343 215 m 0xe0
 324.333007812 155 305.834960938 106.33203125 287.501953125 68.9990234375 c 0
 269.168945312 31.666015625 251.001953125 4.9990234375 233.001953125 -11.0009765625 c 0
 215.001953125 -27.0009765625 196.001953125 -35.0009765625 176.001953125 -35.0009765625 c 0
 154.668945312 -35.0009765625 135.001953125 -31.0009765625 117.001953125 -23.0009765625 c 0
 99.001953125 -15.0009765625 83.8349609375 -4.333984375 71.501953125 8.9990234375 c 0
 59.1689453125 22.33203125 48.3359375 36.83203125 39.0029296875 52.4990234375 c 0
 29.669921875 68.166015625 22.5029296875 83.8330078125 17.5029296875 99.5 c 0
 12.5029296875 115.166992188 9.0029296875 129.166992188 7.0029296875 141.5 c 0
 5.0029296875 153.833007812 4.3359375 163.666015625 5.0029296875 170.999023438 c 0xe0
 5.0029296875 176.999023438 6.3359375 184.166015625 9.0029296875 192.499023438 c 0
 11.669921875 200.83203125 14.669921875 208.665039062 18.0029296875 215.998046875 c 0
 21.3359375 223.331054688 26.5029296875 229.831054688 33.5029296875 235.498046875 c 0
 40.5029296875 241.165039062 49.0029296875 244.665039062 59.0029296875 245.998046875 c 0
 62.55859375 246.64453125 65.8701171875 246.967773438 68.9365234375 246.967773438 c 0
 78.5166015625 246.967773438 85.705078125 243.811523438 90.5029296875 237.499023438 c 0
 94.65234375 232.0390625 96.7265625 225.649414062 96.7265625 218.329101562 c 0
 96.7265625 214.4765625 96.15234375 210.3671875 95.0029296875 205.999023438 c 0xd0
 94.9501953125 205.706054688 92.4541015625 191.61328125 92.4541015625 176.352539062 c 0
 92.4541015625 166.751953125 93.8037109375 155.80078125 96.50390625 143.5 c 0
 99.50390625 129.833007812 104.170898438 117.333007812 110.50390625 106 c 0
 116.836914062 94.6669921875 126.669921875 85.1669921875 140.002929688 77.5 c 0
 153.3359375 69.8330078125 169.3359375 66 188.002929688 66 c 0
 210.002929688 66 236.3359375 124 267.002929688 240 c 0
 270.3359375 254.666992188 280.502929688 301.666992188 297.502929688 381 c 0
 314.502929688 460.333007812 333.002929688 541.333007812 353.002929688 624 c 1
 311.803710938 625.200195312 273.244140625 625.799804688 237.325195312 625.799804688 c 0
 213.377929688 625.799804688 190.603515625 625.533203125 169.002929688 625 c 0
 153.669921875 625 142.669921875 628.666992188 136.002929688 636 c 0
 129.3359375 643.333007812 127.3359375 652.666015625 130.002929688 663.999023438 c 0
 132.002929688 675.999023438 138.169921875 686.33203125 148.502929688 694.999023438 c 0
 158.8359375 703.666015625 171.668945312 707.999023438 187.001953125 707.999023438 c 0
 239.227539062 709.5546875 287.638671875 710.333007812 332.233398438 710.333007812 c 0
 421.415039062 710.333007812 495.336914062 707.221679688 554.001953125 701 c 0
 576.697265625 698.73046875 588.044921875 688.493164062 588.044921875 670.2890625 c 0
 588.044921875 667.102539062 587.697265625 663.672851562 587.001953125 659.999023438 c 0
 585.668945312 653.999023438 583.501953125 648.166015625 580.501953125 642.499023438 c 0
 577.501953125 636.83203125 573.668945312 631.33203125 569.001953125 625.999023438 c 0
 564.334960938 620.666015625 558.66796875 616.499023438 552.000976562 613.499023438 c 0
 545.333984375 610.499023438 538.333984375 609.999023438 531.000976562 611.999023438 c 0
 510.333984375 615.33203125 477.666992188 618.33203125 433 620.999023438 c 1
 428.333007812 601.666015625 422.166015625 572.333007812 414.499023438 533 c 0
 406.83203125 493.666992188 399.83203125 457.833984375 393.499023438 425.500976562 c 0
 387.166015625 393.16796875 379.333007812 357.16796875 370 317.500976562 c 0
 360.666992188 277.833984375 351.666992188 243.666992188 343 215 c 0xe0
EndSplineSet
Validated: 524289
EndChar

StartChar: K
Encoding: 75 75 54
Width: 593
GlyphClass: 2
Flags: W
HStem: -21.0752 21G<44.4688 51.123 408.313 418.822> 694.072 20G<217.557 224.298>
LayerCount: 2
Fore
SplineSet
108 24 m 0
 103.333007812 10 94.5 -1.1689453125 81.5 -9.501953125 c 0
 69.4638671875 -17.2177734375 57.2841796875 -21.0751953125 44.9619140625 -21.0751953125 c 0
 43.9755859375 -21.0751953125 42.98828125 -21.05078125 42 -21.0009765625 c 0
 29.3330078125 -21.0009765625 20.166015625 -16.5009765625 14.4990234375 -7.5009765625 c 0
 11.3916015625 -2.5654296875 9.837890625 3.4228515625 9.837890625 10.462890625 c 0
 9.837890625 16.2607421875 10.8916015625 22.7734375 12.9990234375 29.9990234375 c 0
 21.666015625 59.33203125 35.3330078125 115.499023438 54 198.499023438 c 0
 72.6669921875 281.499023438 90.6669921875 366.999023438 108 454.999023438 c 0
 116.666992188 497.666015625 122.666992188 526.499023438 126 541.499023438 c 0
 129.333007812 556.499023438 134.833007812 578.166015625 142.5 606.499023438 c 0
 150.166992188 634.83203125 155 652.665039062 157 659.998046875 c 0
 161.666992188 677.998046875 169.333984375 691.498046875 180.000976562 700.498046875 c 0
 190.66796875 709.498046875 202.334960938 713.998046875 215.001953125 713.998046875 c 0
 216.0390625 714.047851562 217.057617188 714.072265625 218.056640625 714.072265625 c 0
 230.5390625 714.072265625 240.020507812 710.21484375 246.501953125 702.499023438 c 0
 250.956054688 697.196289062 253.18359375 689.935546875 253.18359375 680.717773438 c 0
 253.18359375 675.451171875 252.456054688 669.544921875 251.001953125 662.999023438 c 0
 247.668945312 646.999023438 239.001953125 611.999023438 225.001953125 557.999023438 c 0
 211.001953125 503.999023438 199.668945312 459.33203125 191.001953125 423.999023438 c 1
 219.001953125 447.33203125 261.001953125 482.665039062 317.001953125 529.998046875 c 0
 373.001953125 577.331054688 417.334960938 614.831054688 450.001953125 642.498046875 c 0
 482.668945312 670.165039062 503.668945312 687.33203125 513.001953125 693.999023438 c 0
 523.668945312 702.666015625 533.3359375 708.499023438 542.002929688 711.499023438 c 0
 550.669921875 714.499023438 557.836914062 715.166015625 563.50390625 713.499023438 c 0
 569.170898438 711.83203125 574.00390625 708.33203125 578.00390625 702.999023438 c 0
 581.544921875 697.490234375 583.315429688 691.576171875 583.315429688 685.254882812 c 0
 583.315429688 670.155273438 573.211914062 652.736328125 553.00390625 632.999023438 c 0
 541.00390625 620.999023438 499.836914062 584.499023438 429.50390625 523.499023438 c 0
 359.170898438 462.499023438 297.00390625 409.33203125 243.00390625 363.999023438 c 1
 258.336914062 339.999023438 285.336914062 302.499023438 324.00390625 251.499023438 c 0
 362.670898438 200.499023438 396.170898438 155.666015625 424.50390625 116.999023438 c 0
 442.276367188 92.744140625 469.108398438 56.1259765625 469.108398438 40.0419921875 c 0
 469.108398438 28.9599609375 466.573242188 18.9462890625 461.502929688 9.9990234375 c 0
 455.8359375 -0.0009765625 448.668945312 -7.66796875 440.001953125 -13.0009765625 c 0
 430.997070312 -18.5986328125 422.658203125 -21.3974609375 414.985351562 -21.3974609375 c 0
 401.641601562 -21.3974609375 390.313476562 -12.931640625 381.000976562 4 c 0
 376.333984375 12.6669921875 359.500976562 35.6669921875 330.500976562 73 c 0
 301.500976562 110.333007812 270.16796875 151.5 236.500976562 196.5 c 0
 202.833984375 241.5 178.666992188 277.333007812 164 304 c 1
 159 284 l 2
 157 272.666992188 140 186 108 24 c 0
EndSplineSet
Validated: 524289
EndChar

StartChar: L
Encoding: 76 76 55
Width: 593
GlyphClass: 2
Flags: HMW
HStem: -9.00488 81.0029
LayerCount: 2
Fore
SplineSet
480 10 m 0
 436 1.3330078125 370.672851562 -5.0048828125 284.005859375 -9.0048828125 c 0
 197.338867188 -13.0048828125 134.005859375 -15.0048828125 94.005859375 -15.0048828125 c 0
 81.3388671875 -15.0048828125 72.171875 -10.5048828125 66.5048828125 -1.5048828125 c 0
 63.3974609375 3.4306640625 61.84375 9.4189453125 61.84375 16.458984375 c 0
 61.84375 22.2568359375 62.8974609375 28.76953125 65.0048828125 35.9951171875 c 0
 66.337890625 41.328125 78.6708984375 79.4951171875 102.00390625 150.495117188 c 0
 125.336914062 221.495117188 146.336914062 289.995117188 165.00390625 355.995117188 c 0
 173.670898438 385.995117188 186.670898438 440.995117188 204.00390625 520.995117188 c 0
 221.336914062 600.995117188 230.669921875 644.328125 232.002929688 650.995117188 c 0
 236.669921875 668.995117188 244.502929688 682.662109375 255.502929688 691.995117188 c 0
 266.502929688 701.328125 278.002929688 705.995117188 290.002929688 705.995117188 c 0
 291.040039062 706.044921875 292.059570312 706.069335938 293.060546875 706.069335938 c 0
 305.565429688 706.069335938 315.212890625 702.211914062 322.002929688 694.49609375 c 0
 326.484375 689.404296875 328.724609375 682.506835938 328.724609375 673.8046875 c 0
 328.724609375 668.265625 327.817382812 661.997070312 326.001953125 654.99609375 c 0
 321.334960938 635.663085938 314.66796875 609.330078125 306.000976562 575.997070312 c 0
 297.333984375 542.6640625 286.333984375 500.6640625 273.000976562 449.997070312 c 0
 259.66796875 399.330078125 248.334960938 355.330078125 239.001953125 317.997070312 c 0
 231.668945312 289.997070312 219.8359375 249.330078125 203.502929688 195.997070312 c 0
 187.169921875 142.6640625 175.669921875 101.331054688 169.002929688 71.998046875 c 1
 173.526367188 71.9404296875 178.119140625 71.9111328125 182.780273438 71.9111328125 c 0
 231.713867188 71.9111328125 288.288085938 75.107421875 352.502929688 81.498046875 c 0
 422.8359375 88.498046875 470.3359375 95.3310546875 495.002929688 101.998046875 c 0
 503.002929688 103.998046875 509.669921875 103.665039062 515.002929688 100.998046875 c 0
 520.3359375 98.3310546875 524.168945312 94.3310546875 526.501953125 88.998046875 c 0
 528.834960938 83.6650390625 530.16796875 77.83203125 530.500976562 71.4990234375 c 0
 530.833984375 65.166015625 530.666992188 59.3330078125 530 54 c 0
 527.333007812 42 522.333007812 32.3330078125 515 25 c 0
 507.666992188 17.6669921875 496 12.6669921875 480 10 c 0
EndSplineSet
Validated: 524289
EndChar

StartChar: M
Encoding: 77 77 56
Width: 593
GlyphClass: 2
Flags: HMW
HStem: -9.99414 21G<25.001 31.001>
VStem: 194.998 97.001 411.998 89.001
LayerCount: 2
Fore
SplineSet
85 59 m 0
 81 37.6669921875 73.0009765625 20.8388671875 61.0009765625 8.505859375 c 0
 49.0009765625 -3.8271484375 37.0009765625 -9.994140625 25.0009765625 -9.994140625 c 0
 10.1845703125 -9.544921875 2.7763671875 1.7900390625 2.7763671875 24.009765625 c 0
 2.7763671875 34.783203125 4.517578125 48.115234375 8.0009765625 64.0068359375 c 0
 10.0009765625 72.0068359375 14.16796875 85.673828125 20.5009765625 105.006835938 c 0
 26.833984375 124.33984375 35.0009765625 149.672851562 45.0009765625 181.005859375 c 0
 55.0009765625 212.338867188 63.66796875 239.671875 71.0009765625 263.004882812 c 0
 73.0009765625 271.004882812 76.66796875 283.337890625 82.0009765625 300.004882812 c 0
 96.66796875 349.337890625 108.500976562 387.837890625 117.500976562 415.504882812 c 0
 126.500976562 443.171875 137.66796875 477.671875 151.000976562 519.004882812 c 0
 164.333984375 560.337890625 175.666992188 592.837890625 185 616.504882812 c 0
 194.333007812 640.171875 202.333007812 656.671875 209 666.004882812 c 0
 218.333007812 680.004882812 230.333007812 690.171875 245 696.504882812 c 0
 257.116210938 701.736328125 268.095703125 704.352539062 277.936523438 704.352539062 c 0
 280.008789062 704.352539062 282.029296875 704.236328125 284 704.004882812 c 0
 312 704.004882812 326 691.671875 326 667.004882812 c 0
 326.060546875 664.336914062 326.090820312 661.510742188 326.090820312 658.526367188 c 0
 326.090820312 628.69140625 323.060546875 583.017578125 317 521.504882812 c 0
 310.333007812 453.837890625 301.666015625 376.670898438 290.999023438 290.00390625 c 0
 280.33203125 203.336914062 273.33203125 146.00390625 269.999023438 118.00390625 c 1
 297.999023438 212.00390625 324.666015625 296.670898438 349.999023438 372.00390625 c 0
 367.999023438 427.336914062 388.33203125 483.00390625 410.999023438 539.00390625 c 0
 433.666015625 595.00390625 451.999023438 637.670898438 465.999023438 667.00390625 c 0
 470.666015625 677.00390625 477.666015625 685.170898438 486.999023438 691.50390625 c 0
 496.33203125 697.836914062 505.33203125 701.669921875 513.999023438 703.002929688 c 0
 522.666015625 704.3359375 530.999023438 704.668945312 538.999023438 704.001953125 c 2
 542.999023438 704.001953125 l 1
 555.499023438 704.001953125 l 2
 558.499023438 704.001953125 562.666015625 703.168945312 567.999023438 701.501953125 c 0
 573.33203125 699.834960938 577.499023438 697.66796875 580.499023438 695.000976562 c 0
 583.499023438 692.333984375 585.999023438 688.166992188 587.999023438 682.5 c 0
 589.999023438 676.833007812 590.666015625 670 589.999023438 662 c 0
 587.999023438 642 572.666015625 544.333007812 543.999023438 369 c 0
 515.33203125 193.666992188 500.999023438 94.6669921875 500.999023438 72 c 0
 500.33203125 32 487.665039062 6.6669921875 462.998046875 -4 c 0
 456.903320312 -6.4375 451.19140625 -7.6572265625 445.862304688 -7.6572265625 c 0
 439.534179688 -7.6572265625 433.74609375 -5.9375 428.498046875 -2.5 c 0
 418.831054688 3.8330078125 413.331054688 17.666015625 411.998046875 38.9990234375 c 0
 411.899414062 40.6533203125 411.849609375 42.513671875 411.849609375 44.580078125 c 0
 411.849609375 98.29296875 445.232421875 291.099609375 511.997070312 623 c 1
 471.997070312 526.333007812 440.330078125 438.333007812 416.997070312 359 c 0
 393.6640625 283 369.331054688 210.833007812 343.998046875 142.5 c 0
 318.665039062 74.1669921875 301.33203125 32.333984375 291.999023438 17.0009765625 c 0
 281.33203125 1.0009765625 261.999023438 -6.9990234375 233.999023438 -6.9990234375 c 0
 221.33203125 -7.666015625 211.665039062 -5.666015625 204.998046875 -0.9990234375 c 0
 198.331054688 3.66796875 194.998046875 10.3349609375 194.998046875 19.001953125 c 0
 194.998046875 51.001953125 199.665039062 124.501953125 208.998046875 239.501953125 c 0
 218.331054688 354.501953125 227.998046875 464.668945312 237.998046875 570.001953125 c 1
 215.498046875 498.001953125 l 2
 207.165039062 471.334960938 200.165039062 448.16796875 194.498046875 428.500976562 c 0
 188.831054688 408.833984375 180.331054688 379.666992188 168.998046875 341 c 0
 157.665039062 302.333007812 148.998046875 273 142.998046875 253 c 0
 134.998046875 225 126.331054688 196.166992188 116.998046875 166.5 c 0
 107.665039062 136.833007812 100.33203125 113.5 94.9990234375 96.5 c 0
 89.666015625 79.5 86.3330078125 67 85 59 c 0
EndSplineSet
Validated: 524289
EndChar

StartChar: N
Encoding: 78 78 57
Width: 593
GlyphClass: 2
Flags: W
HStem: -12.0664 21G<21.9688 28.25>
LayerCount: 2
Fore
SplineSet
375 -14 m 0
 363 -14.6669921875 353.826171875 -12.5029296875 347.493164062 -7.5029296875 c 0
 341.16015625 -2.5029296875 337.327148438 4.330078125 335.994140625 12.9970703125 c 0
 333.327148438 26.330078125 325.16015625 55.6630859375 311.493164062 100.99609375 c 0
 297.826171875 146.329101562 283.826171875 193.49609375 269.493164062 242.49609375 c 0
 255.16015625 291.49609375 240.827148438 346.329101562 226.494140625 406.99609375 c 0
 212.161132812 467.663085938 202.994140625 519.330078125 198.994140625 561.997070312 c 1
 185.661132812 489.330078125 171.328125 421.663085938 155.995117188 358.99609375 c 0
 140.662109375 296.329101562 124.495117188 232.49609375 107.495117188 167.49609375 c 0
 90.4951171875 102.49609375 80.662109375 62.99609375 77.9951171875 48.99609375 c 0
 73.9951171875 27.6630859375 66.4951171875 11.99609375 55.4951171875 1.99609375 c 0
 45.1826171875 -7.37890625 34.138671875 -12.06640625 22.361328125 -12.06640625 c 0
 21.576171875 -12.06640625 20.787109375 -12.0458984375 19.9951171875 -12.00390625 c 0
 7.328125 -12.00390625 -0.0048828125 -6.3369140625 -2.0048828125 4.99609375 c 0
 -2.6044921875 8.396484375 -2.9052734375 12.2763671875 -2.9052734375 16.63671875 c 0
 -2.9052734375 26.8095703125 -1.271484375 39.5966796875 1.9951171875 54.99609375 c 0
 4.662109375 68.3291015625 17.3291015625 119.99609375 39.99609375 209.99609375 c 0
 62.6630859375 299.99609375 82.330078125 378.663085938 98.9970703125 445.99609375 c 0
 115.6640625 513.329101562 129.997070312 577.99609375 141.997070312 639.99609375 c 0
 143.997070312 653.329101562 147.997070312 664.662109375 153.997070312 673.995117188 c 0
 159.997070312 683.328125 166.997070312 690.161132812 174.997070312 694.494140625 c 0
 182.997070312 698.827148438 190.997070312 701.827148438 198.997070312 703.494140625 c 0
 206.997070312 705.161132812 214.6640625 705.328125 221.997070312 703.995117188 c 0
 249.330078125 703.995117188 263.663085938 691.662109375 264.99609375 666.995117188 c 0
 267.663085938 622.995117188 284.830078125 541.995117188 316.497070312 423.995117188 c 0
 348.1640625 305.995117188 375.997070312 210.662109375 399.997070312 137.995117188 c 1
 416.6640625 200.662109375 438.331054688 291.829101562 464.998046875 411.49609375 c 0
 491.665039062 531.163085938 506.998046875 609.99609375 510.998046875 647.99609375 c 0
 512.998046875 663.99609375 519.165039062 677.49609375 529.498046875 688.49609375 c 0
 539.831054688 699.49609375 550.998046875 704.99609375 562.998046875 704.99609375 c 0
 569.665039062 704.99609375 575.33203125 704.163085938 579.999023438 702.49609375 c 0
 584.666015625 700.829101562 588.166015625 698.829101562 590.499023438 696.49609375 c 0
 592.83203125 694.163085938 594.33203125 690.330078125 594.999023438 684.997070312 c 0
 595.666015625 679.6640625 595.833007812 674.831054688 595.5 670.498046875 c 0
 595.166992188 666.165039062 594.666992188 659.33203125 594 649.999023438 c 0
 593.333007812 639.33203125 582 585.83203125 560 489.499023438 c 0
 538 393.166015625 513.833007812 293.333007812 487.5 190 c 0
 461.166992188 86.6669921875 442.666992188 27 432 11 c 0
 422 -5.6669921875 403 -14 375 -14 c 0
EndSplineSet
Validated: 524289
EndChar

StartChar: O
Encoding: 79 79 58
Width: 593
GlyphClass: 2
Flags: HMW
HStem: -24 83.998<192.663 193.667> 636.997 81.001<381.665 393.331>
LayerCount: 2
Fore
SplineSet
181 -24 m 0
 143 -23.3330078125 111.663085938 -10.8349609375 86.99609375 13.498046875 c 0
 62.3291015625 37.8310546875 46.49609375 70.498046875 39.49609375 111.498046875 c 0
 36.9169921875 126.603515625 35.6279296875 142.228515625 35.6279296875 158.375 c 0
 35.6279296875 186.053710938 39.4169921875 215.260742188 46.99609375 245.998046875 c 0
 47.6630859375 249.331054688 48.99609375 254.998046875 50.99609375 262.998046875 c 0
 57.6630859375 292.998046875 63.330078125 316.998046875 67.9970703125 334.998046875 c 0
 72.6640625 352.998046875 79.4970703125 376.998046875 88.4970703125 406.998046875 c 0
 97.4970703125 436.998046875 107.6640625 465.498046875 118.997070312 492.498046875 c 0
 130.330078125 519.498046875 142.997070312 544.998046875 156.997070312 568.998046875 c 0
 182.997070312 612.331054688 218.830078125 647.998046875 264.497070312 675.998046875 c 0
 310.1640625 703.998046875 357.331054688 717.998046875 405.998046875 717.998046875 c 0
 430.665039062 717.998046875 453.33203125 712.831054688 473.999023438 702.498046875 c 0
 494.666015625 692.165039062 511.833007812 677.33203125 525.5 657.999023438 c 0
 539.166992188 638.666015625 548.5 613.999023438 553.5 583.999023438 c 0
 555.918945312 569.483398438 557.12890625 554.108398438 557.12890625 537.875976562 c 0
 557.12890625 520.560546875 555.752929688 502.267578125 553 482.999023438 c 0
 547.666992188 449.666015625 540.833984375 413.999023438 532.500976562 375.999023438 c 0
 524.16796875 337.999023438 514.16796875 299.499023438 502.500976562 260.499023438 c 0
 490.833984375 221.499023438 479.666992188 190.666015625 469 167.999023438 c 0
 454.333007812 136.666015625 438.333007812 109.666015625 421 86.9990234375 c 0
 403.666992188 64.33203125 386.166992188 45.83203125 368.5 31.4990234375 c 0
 350.833007812 17.166015625 331.666015625 5.8330078125 310.999023438 -2.5 c 0
 290.33203125 -10.8330078125 269.83203125 -16.5 249.499023438 -19.5 c 0
 229.166015625 -22.5 206.333007812 -24 181 -24 c 0
199.99609375 59.998046875 m 0
 216.663085938 59.998046875 233.330078125 62.1650390625 249.997070312 66.498046875 c 0
 266.6640625 70.8310546875 282.997070312 77.8310546875 298.997070312 87.498046875 c 0
 314.997070312 97.1650390625 330.497070312 109.998046875 345.497070312 125.998046875 c 0
 360.497070312 141.998046875 373.330078125 160.665039062 383.997070312 181.998046875 c 0
 387.997070312 190.665039062 395.1640625 210.665039062 405.497070312 241.998046875 c 0
 415.830078125 273.331054688 426.663085938 310.6640625 437.99609375 353.997070312 c 0
 449.329101562 397.330078125 458.329101562 439.997070312 464.99609375 481.997070312 c 0
 466.928710938 494.750976562 467.89453125 506.903320312 467.89453125 518.453125 c 0
 467.89453125 546.748046875 462.095703125 571.4296875 450.497070312 592.497070312 c 0
 434.1640625 622.1640625 409.6640625 636.997070312 376.997070312 636.997070312 c 0
 343.6640625 636.997070312 312.6640625 623.830078125 283.997070312 597.497070312 c 0
 255.330078125 571.1640625 230.330078125 534.331054688 208.997070312 486.998046875 c 0
 180.330078125 423.665039062 157.663085938 348.665039062 140.99609375 261.998046875 c 0
 136.99609375 240.665039062 134.163085938 220.998046875 132.49609375 202.998046875 c 0
 131.454101562 191.749023438 130.93359375 180.499023438 130.93359375 169.25 c 0
 130.93359375 162.499023438 131.12109375 155.749023438 131.49609375 148.998046875 c 0
 132.49609375 130.998046875 135.329101562 115.498046875 139.99609375 102.498046875 c 0
 144.663085938 89.498046875 152.163085938 79.1650390625 162.49609375 71.498046875 c 0
 172.829101562 63.8310546875 185.329101562 59.998046875 199.99609375 59.998046875 c 0
EndSplineSet
Validated: 524289
EndChar

StartChar: P
Encoding: 80 80 59
Width: 593
GlyphClass: 2
Flags: HMW
HStem: 230.001 82<261.998 270.998 261.998 287.664> 630.003 80.998<358.33 408.997>
LayerCount: 2
Fore
SplineSet
123 24 m 0
 120.333007812 10 112.49609375 -0.830078125 99.49609375 -8.4970703125 c 0
 87.5361328125 -15.55078125 75.435546875 -19.0771484375 63.1943359375 -19.0771484375 c 0
 62.12890625 -19.0771484375 61.0634765625 -19.05078125 59.99609375 -18.9970703125 c 0
 46.6630859375 -18.9970703125 36.830078125 -14.830078125 30.4970703125 -6.4970703125 c 0
 27.0595703125 -1.9736328125 25.33984375 3.6796875 25.33984375 10.462890625 c 0
 25.33984375 16.17578125 26.5595703125 22.6884765625 28.9970703125 30.0029296875 c 0
 31.6640625 40.669921875 35.6640625 56.5029296875 40.9970703125 77.5029296875 c 0
 46.330078125 98.5029296875 52.330078125 124.502929688 58.9970703125 155.502929688 c 0
 65.6640625 186.502929688 71.9970703125 216.502929688 77.9970703125 245.502929688 c 0
 83.9970703125 274.502929688 91.330078125 310.002929688 99.9970703125 352.002929688 c 0
 108.6640625 394.002929688 115.997070312 429.002929688 121.997070312 457.002929688 c 0
 131.330078125 500.3359375 144.997070312 557.668945312 162.997070312 629.001953125 c 1
 158.997070312 634.001953125 l 2
 156.330078125 642.001953125 156.663085938 650.168945312 159.99609375 658.501953125 c 0
 163.329101562 666.834960938 168.329101562 674.334960938 174.99609375 681.001953125 c 0
 181.663085938 687.668945312 188.330078125 691.668945312 194.997070312 693.001953125 c 0
 218.997070312 698.334960938 252.997070312 702.66796875 296.997070312 706.000976562 c 0
 340.997070312 709.333984375 371.330078125 711.000976562 387.997070312 711.000976562 c 0
 429.997070312 711.000976562 465.6640625 703.000976562 494.997070312 687.000976562 c 0
 524.330078125 671.000976562 544.997070312 646.833984375 556.997070312 614.500976562 c 0
 563.747070312 596.313476562 567.122070312 576.174804688 567.122070312 554.0859375 c 0
 567.122070312 536.904296875 565.080078125 518.54296875 560.997070312 499.000976562 c 0
 552.330078125 461.66796875 538.497070312 426.500976562 519.497070312 393.500976562 c 0
 500.497070312 360.500976562 478.497070312 332.000976562 453.497070312 308.000976562 c 0
 428.497070312 284.000976562 400.1640625 265.000976562 368.497070312 251.000976562 c 0
 336.830078125 237.000976562 304.330078125 230.000976562 270.997070312 230.000976562 c 0
 222.330078125 230.000976562 184.997070312 233.66796875 158.997070312 241.000976562 c 1
 153.6640625 213.000976562 148.831054688 186.16796875 144.498046875 160.500976562 c 0
 140.165039062 134.833984375 135.83203125 108.166992188 131.499023438 80.5 c 0
 127.166015625 52.8330078125 124.333007812 34 123 24 c 0
368.99609375 630.002929688 m 0
 347.663085938 630.002929688 307.99609375 627.333984375 249.99609375 622.000976562 c 1
 246.663085938 608.66796875 240.330078125 584.000976562 230.997070312 548.000976562 c 0
 221.6640625 512.000976562 212.331054688 475.000976562 202.998046875 437.000976562 c 0
 193.665039062 399.000976562 184.998046875 362.000976562 176.998046875 326.000976562 c 1
 198.248046875 316.625976562 224.477539062 311.938476562 255.6875 311.938476562 c 0
 257.768554688 311.938476562 259.872070312 311.958984375 261.998046875 312.000976562 c 0
 279.998046875 312.000976562 296.665039062 313.333984375 311.998046875 316.000976562 c 0
 327.331054688 318.66796875 340.998046875 322.334960938 352.998046875 327.001953125 c 0
 364.998046875 331.668945312 376.331054688 337.8359375 386.998046875 345.502929688 c 0
 397.665039062 353.169921875 406.665039062 360.836914062 413.998046875 368.50390625 c 0
 421.331054688 376.170898438 428.1640625 385.170898438 434.497070312 395.50390625 c 0
 440.830078125 405.836914062 445.997070312 415.169921875 449.997070312 423.502929688 c 0
 453.997070312 431.8359375 457.830078125 441.502929688 461.497070312 452.502929688 c 0
 465.1640625 463.502929688 467.997070312 472.502929688 469.997070312 479.502929688 c 0
 471.997070312 486.502929688 474.330078125 495.002929688 476.997070312 505.002929688 c 0
 479.397460938 516.203125 480.59765625 526.743164062 480.59765625 536.623046875 c 0
 480.59765625 543.209960938 480.063476562 549.502929688 478.997070312 555.502929688 c 0
 476.330078125 570.502929688 471.163085938 582.502929688 463.49609375 591.502929688 c 0
 455.829101562 600.502929688 446.49609375 608.002929688 435.49609375 614.002929688 c 0
 424.49609375 620.002929688 413.329101562 624.169921875 401.99609375 626.502929688 c 0
 390.663085938 628.8359375 379.663085938 630.002929688 368.99609375 630.002929688 c 0
EndSplineSet
Validated: 524289
EndChar

StartChar: Q
Encoding: 81 81 60
Width: 593
GlyphClass: 2
Flags: HMW
HStem: -23.9961 84.002<188.999 232.999> 637.005 80.9971<380.667 392.332>
LayerCount: 2
Fore
SplineSet
382 -206 m 0
 374.446289062 -210.443359375 367.041015625 -212.6640625 359.783203125 -212.6640625 c 0
 356.151367188 -212.6640625 352.556640625 -212.107421875 348.999023438 -210.99609375 c 0
 338.33203125 -207.663085938 329.999023438 -199.99609375 323.999023438 -187.99609375 c 0
 317.999023438 -175.99609375 308.499023438 -153.663085938 295.499023438 -120.99609375 c 0
 282.499023438 -88.3291015625 269.999023438 -54.99609375 257.999023438 -20.99609375 c 1
 244.666015625 -23.1298828125 230.267578125 -24.1962890625 214.802734375 -24.1962890625 c 0
 210.934570312 -24.1962890625 207 -24.1298828125 202.999023438 -23.99609375 c 0
 174.999023438 -23.99609375 150.666015625 -19.3291015625 129.999023438 -9.99609375 c 0
 109.33203125 -0.6630859375 92.33203125 12.3369140625 78.9990234375 29.00390625 c 0
 65.666015625 45.6708984375 55.4990234375 65.50390625 48.4990234375 88.50390625 c 0
 41.08984375 112.848632812 37.47265625 138.78515625 37.47265625 166.670898438 c 0
 37.47265625 191.768554688 40.314453125 218.212890625 45.9990234375 246.002929688 c 0
 71.33203125 375.3359375 107.999023438 481.668945312 155.999023438 565.001953125 c 0
 181.999023438 609.001953125 217.83203125 645.501953125 263.499023438 674.501953125 c 0
 309.166015625 703.501953125 356.333007812 718.001953125 405 718.001953125 c 0
 430.333007812 718.001953125 453 713.334960938 473 704.001953125 c 0
 493 694.668945312 509.833007812 681.001953125 523.5 663.001953125 c 0
 537.166992188 645.001953125 546.5 620.668945312 551.5 590.001953125 c 0
 553.918945312 575.163085938 555.12890625 559.154296875 555.12890625 541.974609375 c 0
 555.12890625 523.6484375 553.752929688 503.991210938 551 483.000976562 c 0
 545 437.000976562 533.666992188 380.833984375 517 314.500976562 c 0
 500.333007812 248.16796875 484.666015625 197.66796875 469.999023438 163.000976562 c 0
 439.999023438 91.0009765625 397.666015625 39.66796875 342.999023438 9.0009765625 c 1
 350.999023438 -10.33203125 359.666015625 -29.9990234375 368.999023438 -49.9990234375 c 0
 378.33203125 -69.9990234375 387.33203125 -88.666015625 395.999023438 -105.999023438 c 0
 404.666015625 -123.33203125 410.666015625 -134.999023438 413.999023438 -140.999023438 c 0
 416.666015625 -148.33203125 416.333007812 -156.33203125 413 -164.999023438 c 0
 409.666992188 -173.666015625 405 -181.833007812 399 -189.5 c 0
 393 -197.166992188 387.333007812 -202.666992188 382 -206 c 0
139.999023438 262.004882812 m 0
 135.958984375 238.974609375 133.938476562 217.353515625 133.938476562 197.139648438 c 0
 133.938476562 184 134.791992188 171.456054688 136.499023438 159.505859375 c 0
 140.83203125 129.172851562 150.33203125 105.005859375 164.999023438 87.005859375 c 0
 179.666015625 69.005859375 198.999023438 60.005859375 222.999023438 60.005859375 c 2
 232.999023438 60.005859375 l 1
 224.999023438 90.005859375 219.666015625 113.338867188 216.999023438 130.005859375 c 0
 216.220703125 136.561523438 215.83203125 142.802734375 215.83203125 148.729492188 c 0
 215.83203125 178.358398438 225.553710938 200.1171875 244.998046875 214.005859375 c 0
 251.665039062 218.672851562 258.33203125 221.505859375 264.999023438 222.505859375 c 0
 271.666015625 223.505859375 277.499023438 221.505859375 282.499023438 216.505859375 c 0
 287.499023438 211.505859375 290.33203125 204.005859375 290.999023438 194.005859375 c 0
 294.33203125 160.672851562 302.33203125 124.33984375 314.999023438 85.0068359375 c 1
 346.33203125 104.33984375 370.999023438 135.33984375 388.999023438 178.006835938 c 0
 392.999023438 188.006835938 399.499023438 208.173828125 408.499023438 238.506835938 c 0
 417.499023438 268.83984375 427.666015625 306.672851562 438.999023438 352.005859375 c 0
 450.33203125 397.338867188 458.665039062 440.671875 463.998046875 482.004882812 c 0
 465.634765625 494.9140625 466.452148438 507.103515625 466.452148438 518.575195312 c 0
 466.452148438 549.1640625 460.634765625 574.641601562 448.998046875 595.004882812 c 0
 432.998046875 623.004882812 408.665039062 637.004882812 375.998046875 637.004882812 c 0
 341.998046875 637.004882812 310.498046875 624.004882812 281.498046875 598.004882812 c 0
 252.498046875 572.004882812 227.665039062 535.671875 206.998046875 489.004882812 c 0
 175.665039062 419.671875 153.33203125 344.004882812 139.999023438 262.004882812 c 0
EndSplineSet
Validated: 524289
EndChar

StartChar: R
Encoding: 82 82 61
Width: 593
GlyphClass: 2
Flags: W
HStem: -19.0801 21G<61.7935 68.7402 416 428.445> 694.06 20G<218.051 224.953>
VStem: 479.897 88.5586<409.03 519.094>
LayerCount: 2
Fore
SplineSet
122 24 m 0
 119.333007812 10 111.66796875 -0.8330078125 99.0009765625 -8.5 c 0
 87.34765625 -15.5537109375 75.130859375 -19.080078125 62.349609375 -19.080078125 c 0
 61.2373046875 -19.080078125 60.12109375 -19.0537109375 59.0009765625 -19 c 0
 46.333984375 -19 36.6669921875 -14.8330078125 30 -6.5 c 0
 26.2958984375 -1.8701171875 24.4443359375 3.9423828125 24.4443359375 10.939453125 c 0
 24.4443359375 16.5361328125 25.62890625 22.8896484375 27.9990234375 30 c 0
 38.666015625 64.6669921875 46.8330078125 94.1669921875 52.5 118.5 c 0
 58.1669921875 142.833007812 71.333984375 202.666015625 92.0009765625 297.999023438 c 0
 94.66796875 310.666015625 101.66796875 337.833007812 113.000976562 379.5 c 0
 124.333984375 421.166992188 133.333984375 460.666992188 140.000976562 498 c 0
 144.66796875 520.666992188 150.16796875 551.333984375 156.500976562 590.000976562 c 0
 162.833984375 628.66796875 167.000976562 652.000976562 169.000976562 660.000976562 c 2
 170.000976562 666.000976562 l 2
 172.000976562 678.66796875 178.66796875 689.66796875 190.000976562 699.000976562 c 0
 200.040039062 709.040039062 211.555664062 714.059570312 224.546875 714.059570312 c 0
 225.359375 714.059570312 226.176757812 714.040039062 227.000976562 714.000976562 c 0
 239.000976562 714.000976562 248.333984375 711.333984375 255.000976562 706.000976562 c 1
 305.66796875 703.333984375 350.66796875 696.166992188 390.000976562 684.5 c 0
 429.333984375 672.833007812 461.000976562 658.333007812 485.000976562 641 c 0
 509.000976562 623.666992188 528.000976562 604 542.000976562 582 c 0
 556.000976562 560 564.333984375 538 567.000976562 516 c 0
 567.970703125 508 568.456054688 499.955078125 568.456054688 491.8671875 c 0
 568.456054688 477.712890625 566.970703125 463.423828125 564.000976562 449 c 0
 560.000976562 432.333007812 554.333984375 417 547.000976562 403 c 0
 539.66796875 389 531.16796875 376.833007812 521.500976562 366.5 c 0
 511.833984375 356.166992188 500.166992188 347 486.5 339 c 0
 472.833007812 331 458.666015625 324.166992188 443.999023438 318.5 c 0
 429.33203125 312.833007812 412.33203125 307.833007812 392.999023438 303.5 c 0
 373.666015625 299.166992188 354.833007812 295.833984375 336.5 293.500976562 c 0
 318.166992188 291.16796875 297.333984375 289.000976562 274.000976562 287.000976562 c 1
 328.66796875 252.333984375 374.500976562 211.833984375 411.500976562 165.500976562 c 0
 412.370117188 164.413085938 478.106445312 81.5439453125 478.106445312 43.2431640625 c 0
 478.106445312 32.6953125 475.571289062 22.9482421875 470.500976562 14.0009765625 c 0
 464.833984375 4.0009765625 457.333984375 -3.9990234375 448.000976562 -9.9990234375 c 0
 440.178710938 -15.3759765625 432.356445312 -18.0654296875 424.534179688 -18.0654296875 c 0
 416 -16.998046875 l 0
 405.333007812 -14.3310546875 397 -6.3310546875 391 7.001953125 c 0
 384.333007812 21.001953125 374.166015625 38.1689453125 360.499023438 58.501953125 c 0
 346.83203125 78.8349609375 329.999023438 101.501953125 309.999023438 126.501953125 c 0
 289.999023438 151.501953125 266.33203125 176.168945312 238.999023438 200.501953125 c 0
 211.666015625 224.834960938 184.333007812 244.334960938 157 259.001953125 c 1
 149.666992188 220.334960938 142.5 174.66796875 135.5 122.000976562 c 0
 128.5 69.333984375 124 36.6669921875 122 24 c 0
224.001953125 498 m 0
 222.668945312 490.666992188 220.172851562 480.833984375 216.505859375 468.500976562 c 0
 212.838867188 456.16796875 209.505859375 445.16796875 206.505859375 435.500976562 c 0
 203.505859375 425.833984375 199.338867188 412.500976562 194.005859375 395.500976562 c 0
 188.672851562 378.500976562 184.672851562 366.333984375 182.005859375 359.000976562 c 1
 189.244140625 357.4765625 198.658203125 356.71484375 210.25 356.71484375 c 0
 218.943359375 356.71484375 228.862304688 357.143554688 240.005859375 358.000976562 c 0
 265.338867188 359.333984375 287.171875 360.833984375 305.504882812 362.500976562 c 0
 323.837890625 364.16796875 342.004882812 366.500976562 360.004882812 369.500976562 c 0
 378.004882812 372.500976562 393.171875 376.000976562 405.504882812 380.000976562 c 0
 417.837890625 384.000976562 429.170898438 389.000976562 439.50390625 395.000976562 c 0
 449.836914062 401.000976562 458.169921875 408.16796875 464.502929688 416.500976562 c 0
 470.8359375 424.833984375 475.3359375 434.333984375 478.002929688 445.000976562 c 0
 479.266601562 450.895507812 479.897460938 456.724609375 479.897460938 462.486328125 c 0
 479.897460938 474.969726562 476.932617188 487.141601562 471.002929688 499.000976562 c 0
 462.3359375 516.333984375 449.668945312 531.666992188 433.001953125 545 c 0
 416.334960938 558.333007812 396.834960938 570.5 374.501953125 581.5 c 0
 352.168945312 592.5 330.501953125 601.333007812 309.501953125 608 c 0
 288.501953125 614.666992188 268.334960938 620 249.001953125 624 c 1
 239.001953125 575.333007812 230.668945312 533.333007812 224.001953125 498 c 0
EndSplineSet
Validated: 524289
EndChar

StartChar: S
Encoding: 83 83 62
Width: 593
GlyphClass: 2
Flags: HMW
HStem: -29 85<178.337 182.001> 632 76.002 645.001 79.001<427 427.001>
LayerCount: 2
Fore
SplineSet
4 66 m 0xa0
 2.71875 72.91796875 2.0791015625 79.3447265625 2.0791015625 85.2783203125 c 0
 2.0791015625 94.7841796875 3.7216796875 103.026367188 7.0048828125 110.00390625 c 0
 12.337890625 121.336914062 20.6708984375 130.00390625 32.00390625 136.00390625 c 0
 40.00390625 139.336914062 46.50390625 141.669921875 51.50390625 143.002929688 c 0
 56.50390625 144.3359375 61.50390625 144.668945312 66.50390625 144.001953125 c 0
 71.50390625 143.334960938 76.00390625 140.66796875 80.00390625 136.000976562 c 0
 84.00390625 131.333984375 88.00390625 124.666992188 92.00390625 116 c 0
 98.6708984375 98 110.50390625 83.5 127.50390625 72.5 c 0
 144.50390625 61.5 165.670898438 56 191.00390625 56 c 0
 205.670898438 56 221.670898438 58.1669921875 239.00390625 62.5 c 0
 256.336914062 66.8330078125 273.669921875 73.5 291.002929688 82.5 c 0
 308.3359375 91.5 324.668945312 102 340.001953125 114 c 0
 355.334960938 126 368.501953125 140.166992188 379.501953125 156.5 c 0
 390.501953125 172.833007812 398.001953125 190 402.001953125 208 c 0
 404.001953125 218 405.501953125 227 406.501953125 235 c 0
 407.501953125 243 407.334960938 251.666992188 406.001953125 261 c 0
 404.668945312 270.333007812 402.001953125 278.833007812 398.001953125 286.5 c 0
 394.001953125 294.166992188 387.501953125 301.833984375 378.501953125 309.500976562 c 0
 369.501953125 317.16796875 358.668945312 324.000976562 346.001953125 330.000976562 c 0
 333.334960938 336.000976562 317.16796875 341.500976562 297.500976562 346.500976562 c 0
 277.833984375 351.500976562 255.666992188 355.333984375 231 358.000976562 c 0
 209.666992188 360.66796875 191 367.000976562 175 377.000976562 c 0
 159 387.000976562 147 399.16796875 139 413.500976562 c 0
 131 427.833984375 125.833007812 442.833984375 123.5 458.500976562 c 0
 122.5390625 464.952148438 122.05859375 471.430664062 122.05859375 477.938476562 c 0
 122.05859375 487.235351562 123.0390625 496.588867188 125 506.000976562 c 0
 130.333007812 528.66796875 139 550.500976562 151 571.500976562 c 0
 163 592.500976562 178.666992188 612.333984375 198 631.000976562 c 0
 217.333007812 649.66796875 239 665.834960938 263 679.501953125 c 0
 287 693.168945312 314.666992188 704.001953125 346 712.001953125 c 0
 377.333007812 720.001953125 410 724.001953125 444 724.001953125 c 0xa0
 460.666992188 724.001953125 483.166992188 722.501953125 511.5 719.501953125 c 0
 539.833007812 716.501953125 559 712.668945312 569 708.001953125 c 0
 579.666992188 703.334960938 586.333984375 696.001953125 589.000976562 686.001953125 c 0
 590.067382812 682.001953125 590.6015625 677.895507812 590.6015625 673.681640625 c 0
 590.6015625 667.362304688 589.401367188 660.801757812 587.000976562 654.001953125 c 0
 584.333984375 646.001953125 580.333984375 639.668945312 575.000976562 635.001953125 c 0
 569.66796875 630.334960938 564.000976562 627.66796875 558.000976562 627.000976562 c 0
 552.000976562 626.333984375 546.500976562 626.166992188 541.500976562 626.5 c 0
 536.500976562 626.833007812 531.333984375 628 526.000976562 630 c 0
 525.333984375 630 523.333984375 630.666992188 520.000976562 632 c 0xc0
 510.000976562 634.666992188 502.000976562 636.833984375 496.000976562 638.500976562 c 0
 490.000976562 640.16796875 480.000976562 641.66796875 466.000976562 643.000976562 c 0
 452.000976562 644.333984375 436.000976562 645.000976562 418.000976562 645.000976562 c 0
 390.000976562 645.000976562 362.16796875 640.500976562 334.500976562 631.500976562 c 0
 306.833984375 622.500976562 282.833984375 609.000976562 262.500976562 591.000976562 c 0
 242.16796875 573.000976562 229.66796875 553.000976562 225.000976562 531.000976562 c 0
 223.413085938 524.118164062 222.618164062 517.516601562 222.618164062 511.194335938 c 0
 222.618164062 493.633789062 228.74609375 478.236328125 241.000976562 465.000976562 c 0
 257.66796875 447.000976562 285.000976562 437.333984375 323.000976562 436.000976562 c 0
 357.000976562 434.000976562 386.333984375 428.16796875 411.000976562 418.500976562 c 0
 435.66796875 408.833984375 454.500976562 397.166992188 467.500976562 383.5 c 0
 480.500976562 369.833007812 490.16796875 353.833007812 496.500976562 335.5 c 0
 502.833984375 317.166992188 506.000976562 299 506.000976562 281 c 0
 506.000976562 263 503.66796875 244.333007812 499.000976562 225 c 0
 491.66796875 194.333007812 480.000976562 165.5 464.000976562 138.5 c 0
 448.000976562 111.5 429.16796875 87.8330078125 407.500976562 67.5 c 0
 385.833984375 47.1669921875 361.833984375 29.6669921875 335.500976562 15 c 0
 309.16796875 0.3330078125 281.66796875 -10.6669921875 253.000976562 -18 c 0
 224.333984375 -25.3330078125 196.000976562 -29 168.000976562 -29 c 0
 124.66796875 -29 88.16796875 -19.8330078125 58.5009765625 -1.5 c 0
 28.833984375 16.8330078125 10.6669921875 39.3330078125 4 66 c 0xa0
EndSplineSet
Validated: 524289
EndChar

